<?xml version="1.0" encoding="UTF-8" standalone="no"?>
<!-- Created with Inkscape (http://www.inkscape.org/) -->

<svg
   width="1920"
   height="1080"
   viewBox="0 0 508 285.75001"
   version="1.1"
   id="svg802"
   sodipodi:docname="background1.svg"
   inkscape:export-filename="C:\My Web Sites\test\dragonballz.visualcinnamon.com\background1.png"
   inkscape:export-xdpi="96"
   inkscape:export-ydpi="96"
   inkscape:version="1.1.2 (0a00cf5339, 2022-02-04, custom)"
   xmlns:inkscape="http://www.inkscape.org/namespaces/inkscape"
   xmlns:sodipodi="http://sodipodi.sourceforge.net/DTD/sodipodi-0.dtd"
   xmlns:xlink="http://www.w3.org/1999/xlink"
   xmlns="http://www.w3.org/2000/svg"
   xmlns:svg="http://www.w3.org/2000/svg">
  <sodipodi:namedview
     id="namedview804"
     pagecolor="#ffffff"
     bordercolor="#666666"
     borderopacity="1.0"
     inkscape:pageshadow="2"
     inkscape:pageopacity="0.0"
     inkscape:pagecheckerboard="0"
     inkscape:document-units="mm"
     showgrid="false"
     width="1920mm"
     units="px"
     inkscape:zoom="0.35545034"
     inkscape:cx="1191.4463"
     inkscape:cy="192.71328"
     inkscape:window-width="1920"
     inkscape:window-height="991"
     inkscape:window-x="-9"
     inkscape:window-y="-9"
     inkscape:window-maximized="1"
     inkscape:current-layer="layer1" />
  <defs
     id="defs799">
    <style
       id="style1536">.d,.e{fill:#272425;}.e,.f{fill-rule:evenodd;}.g{fill:#80b392;}.h{fill:#d98138;}.i{fill:#d0704a;}.j{fill:#3b4f90;}.k{fill:#ad4135;}.l{fill:#e6ad5f;}.m{fill:#508c6c;}.f{fill:#243f70;}.n{fill:#6a79b6;}</style>
    <style
       id="style4349">
      .cls-1 {
        fill: url(#linear-gradient-24);
      }

      .cls-2 {
        clip-path: url(#clippath-13);
      }

      .cls-3 {
        clip-path: url(#clippath-18);
      }

      .cls-4 {
        clip-path: url(#clippath-3);
      }

      .cls-5 {
        clip-path: url(#clippath-16);
      }

      .cls-6 {
        fill: url(#linear-gradient-20);
      }

      .cls-7 {
        fill: url(#linear-gradient-5);
      }

      .cls-8 {
        fill: url(#linear-gradient-6);
      }

      .cls-9 {
        clip-path: url(#clippath-26);
      }

      .cls-10 {
        clip-path: url(#clippath-2);
      }

      .cls-11 {
        fill: url(#linear-gradient-23);
      }

      .cls-12 {
        clip-path: url(#clippath-14);
      }

      .cls-13 {
        fill: url(#linear-gradient-15);
      }

      .cls-14 {
        fill: url(#linear-gradient-8);
      }

      .cls-15 {
        fill: url(#linear-gradient);
      }

      .cls-16 {
        fill: url(#linear-gradient-7);
      }

      .cls-17 {
        fill: url(#linear-gradient-14);
      }

      .cls-18 {
        clip-path: url(#clippath-4);
      }

      .cls-19 {
        fill: url(#linear-gradient-18);
      }

      .cls-20 {
        clip-path: url(#clippath-15);
      }

      .cls-21 {
        clip-path: url(#clippath-12);
      }

      .cls-22 {
        clip-path: url(#clippath-7);
      }

      .cls-23 {
        clip-path: url(#clippath-8);
      }

      .cls-24 {
        fill: url(#linear-gradient-9);
      }

      .cls-25 {
        clip-path: url(#clippath-24);
      }

      .cls-26 {
        fill: url(#linear-gradient-10);
      }

      .cls-27 {
        clip-path: url(#clippath-10);
      }

      .cls-28 {
        fill: url(#linear-gradient-2);
      }

      .cls-29 {
        fill: #272525;
      }

      .cls-30 {
        fill: url(#linear-gradient-16);
      }

      .cls-31 {
        fill: url(#linear-gradient-12);
      }

      .cls-32 {
        clip-path: url(#clippath-5);
      }

      .cls-33 {
        clip-path: url(#clippath);
      }

      .cls-34 {
        fill: url(#linear-gradient-11);
      }

      .cls-35 {
        fill: url(#linear-gradient-4);
      }

      .cls-36 {
        fill: url(#linear-gradient-19);
      }

      .cls-37 {
        clip-path: url(#clippath-9);
      }

      .cls-38 {
        clip-path: url(#clippath-25);
      }

      .cls-39 {
        fill: none;
      }

      .cls-40 {
        fill: url(#linear-gradient-25);
      }

      .cls-41 {
        clip-path: url(#clippath-22);
      }

      .cls-42 {
        fill: url(#linear-gradient-3);
      }

      .cls-43 {
        clip-path: url(#clippath-21);
      }

      .cls-44 {
        fill: url(#linear-gradient-17);
      }

      .cls-45 {
        clip-path: url(#clippath-11);
      }

      .cls-46 {
        clip-path: url(#clippath-23);
      }

      .cls-47 {
        fill: url(#linear-gradient-21);
      }

      .cls-48 {
        clip-path: url(#clippath-6);
      }

      .cls-49 {
        clip-path: url(#clippath-1);
      }

      .cls-50 {
        clip-path: url(#clippath-19);
      }

      .cls-51 {
        fill: url(#linear-gradient-13);
      }

      .cls-52 {
        fill: url(#linear-gradient-22);
      }
    </style>
    <clipPath
       id="clippath">
      <polygon
         class="cls-39"
         points="91.57 8.01 87.78 29.47 102.31 29.47 102.89 26.16 92.27 26.16 93.38 19.87 102.17 19.87 102.74 16.62 93.95 16.62 94.88 11.33 104.76 11.33 105.35 8.01 91.57 8.01"
         id="polygon4351" />
    </clipPath>
    <linearGradient
       id="linear-gradient"
       x1="-371.13"
       y1="-4.05"
       x2="-370.13"
       y2="-4.05"
       gradientTransform="translate(183.56 -7934.81) rotate(-90) scale(21.46)"
       gradientUnits="userSpaceOnUse">
      <stop
         offset="0"
         stop-color="#364c96"
         id="stop4354" />
      <stop
         offset=".23"
         stop-color="#364c96"
         id="stop4356" />
      <stop
         offset=".73"
         stop-color="#4674b7"
         id="stop4358" />
      <stop
         offset="1"
         stop-color="#64a7de"
         id="stop4360" />
    </linearGradient>
    <clipPath
       id="clippath-1">
      <path
         class="cls-39"
         d="M127.28,9l-2.47,14.03c-.19,1.07-.26,2.03-.23,2.86,.04,.84,.23,1.55,.58,2.14s.88,1.04,1.6,1.35,1.66,.46,2.81,.46c.95,0,1.79-.1,2.53-.29,.74-.2,1.34-.39,1.8-.57l-.1-2.97c-.33,.12-.77,.26-1.33,.4-.55,.14-1.17,.22-1.85,.22-.99,0-1.64-.28-1.96-.84s-.36-1.49-.13-2.79l1.16-6.6h5.76l.55-3.13h-5.76l.86-4.89-3.86,.62h.04Z"
         id="path4363" />
    </clipPath>
    <linearGradient
       id="linear-gradient-2"
       x1="-371.13"
       y1="-4.05"
       x2="-370.13"
       y2="-4.05"
       gradientTransform="matrix(0,-21.46,21.46,0,217.29,-7934.43)"
       gradientUnits="userSpaceOnUse">
      <stop
         offset="0"
         stop-color="#364c96"
         id="stop4366" />
      <stop
         offset=".23"
         stop-color="#364c96"
         id="stop4368" />
      <stop
         offset=".73"
         stop-color="#4674b7"
         id="stop4370" />
      <stop
         offset="1"
         stop-color="#64a7de"
         id="stop4372" />
    </linearGradient>
    <clipPath
       id="clippath-2">
      <path
         class="cls-39"
         d="M141.82,18.39c.24-.45,.55-.86,.91-1.21,.36-.35,.78-.64,1.25-.85,.47-.22,1-.32,1.57-.32s1.02,.1,1.39,.29,.66,.46,.88,.8,.36,.74,.42,1.21c.06,.46,.05,.95-.04,1.47h-6.97c.15-.48,.34-.94,.59-1.39m1.37-4.97c-.97,.36-1.87,.9-2.7,1.61s-1.55,1.61-2.16,2.68-1.04,2.32-1.29,3.75c-.22,1.22-.25,2.34-.1,3.36s.5,1.91,1.05,2.66,1.31,1.34,2.29,1.77c.98,.42,2.18,.63,3.6,.63,.56,0,1.11-.03,1.66-.09s1.06-.14,1.54-.23,.91-.2,1.29-.31c.38-.11,.68-.22,.91-.33l.04-3.07c-.47,.19-1.09,.36-1.87,.53s-1.63,.25-2.54,.25c-1.55,0-2.67-.36-3.36-1.07s-.97-1.72-.85-3.02h10.68c.06-.21,.11-.44,.17-.7s.1-.49,.14-.7c.48-2.75,.22-4.81-.78-6.19-1.01-1.38-2.62-2.07-4.85-2.07-.95,0-1.91,.18-2.88,.54"
         id="path4375" />
    </clipPath>
    <linearGradient
       id="linear-gradient-3"
       x1="-375.85"
       y1="-1.91"
       x2="-374.85"
       y2="-1.91"
       gradientTransform="matrix(0,-17,17,0,176.88,-6359.72)"
       gradientUnits="userSpaceOnUse">
      <stop
         offset="0"
         stop-color="#364c96"
         id="stop4378" />
      <stop
         offset=".23"
         stop-color="#364c96"
         id="stop4380" />
      <stop
         offset=".73"
         stop-color="#4674b7"
         id="stop4382" />
      <stop
         offset="1"
         stop-color="#64a7de"
         id="stop4384" />
    </linearGradient>
    <clipPath
       id="clippath-3">
      <path
         class="cls-39"
         d="M159.76,13.29c-1.12,.24-2.07,.49-2.84,.76l-2.72,15.42h3.75l2.29-12.97c.2-.06,.54-.13,1.01-.22,.48-.08,.93-.12,1.34-.12,.72,0,1.35,.06,1.87,.17,.53,.11,.94,.22,1.23,.33l1.21-3.16c-.18-.06-.41-.13-.71-.2s-.61-.14-.93-.19c-.32-.05-.64-.09-.97-.12-.32-.03-.61-.05-.86-.05-1.32,0-2.55,.12-3.67,.36"
         id="path4387" />
    </clipPath>
    <linearGradient
       id="linear-gradient-4"
       x1="-376.49"
       y1="-1.49"
       x2="-375.49"
       y2="-1.49"
       gradientTransform="matrix(0,-16.54,16.54,0,185.26,-6196.91)"
       gradientUnits="userSpaceOnUse">
      <stop
         offset="0"
         stop-color="#364c96"
         id="stop4390" />
      <stop
         offset=".23"
         stop-color="#364c96"
         id="stop4392" />
      <stop
         offset=".73"
         stop-color="#4674b7"
         id="stop4394" />
      <stop
         offset="1"
         stop-color="#64a7de"
         id="stop4396" />
    </linearGradient>
    <clipPath
       id="clippath-4">
      <path
         class="cls-39"
         d="M172.3,26.3c-.51-.2-.91-.41-1.2-.63l1.63-9.26c.39-.1,.78-.17,1.17-.2s.76-.05,1.11-.05c1.67,0,2.8,.46,3.39,1.39s.74,2.23,.44,3.9c-.28,1.57-.81,2.82-1.61,3.75-.79,.93-1.87,1.39-3.23,1.39-.62,0-1.19-.1-1.7-.29m.06-13.08c-1.15,.19-2.12,.38-2.92,.59l-3.77,21.39h3.75l1.11-6.29c.37,.23,.86,.43,1.47,.62,.61,.18,1.29,.28,2.06,.28,1.14,0,2.19-.21,3.16-.62,.97-.41,1.82-.99,2.55-1.73s1.35-1.63,1.85-2.66,.86-2.17,1.08-3.41c.23-1.3,.24-2.47,.05-3.51-.2-1.04-.59-1.93-1.17-2.66s-1.35-1.3-2.29-1.69c-.94-.39-2.05-.59-3.33-.59s-2.43,.09-3.58,.28"
         id="path4399" />
    </clipPath>
    <linearGradient
       id="linear-gradient-5"
       x1="-370.48"
       y1="-4.46"
       x2="-369.48"
       y2="-4.46"
       gradientTransform="matrix(0,-22.26,22.26,0,273.52,-8212.46)"
       gradientUnits="userSpaceOnUse">
      <stop
         offset="0"
         stop-color="#364c96"
         id="stop4402" />
      <stop
         offset=".23"
         stop-color="#364c96"
         id="stop4404" />
      <stop
         offset=".73"
         stop-color="#4674b7"
         id="stop4406" />
      <stop
         offset="1"
         stop-color="#64a7de"
         id="stop4408" />
    </linearGradient>
    <clipPath
       id="clippath-5">
      <path
         class="cls-39"
         d="M190.7,13.29c-1.13,.24-2.07,.49-2.84,.76l-2.72,15.42h3.75l2.29-12.97c.2-.06,.53-.13,1.01-.22,.48-.08,.92-.12,1.34-.12,.72,0,1.35,.06,1.87,.17,.53,.11,.94,.22,1.23,.33l1.21-3.16c-.18-.06-.41-.13-.71-.2s-.61-.14-.93-.19c-.32-.05-.64-.09-.97-.12s-.61-.05-.86-.05c-1.32,0-2.54,.12-3.67,.36"
         id="path4411" />
    </clipPath>
    <linearGradient
       id="linear-gradient-6"
       x1="-376.49"
       y1="-1.49"
       x2="-375.49"
       y2="-1.49"
       gradientTransform="matrix(0,-16.54,16.54,0,216.2,-6196.91)"
       gradientUnits="userSpaceOnUse">
      <stop
         offset="0"
         stop-color="#364c96"
         id="stop4414" />
      <stop
         offset=".23"
         stop-color="#364c96"
         id="stop4416" />
      <stop
         offset=".73"
         stop-color="#4674b7"
         id="stop4418" />
      <stop
         offset="1"
         stop-color="#64a7de"
         id="stop4420" />
    </linearGradient>
    <clipPath
       id="clippath-6">
      <path
         class="cls-39"
         d="M200.5,13.28l-2.86,16.2h3.75l2.86-16.2h-3.75Zm1.35-6.44c-.53,.41-.85,.98-.98,1.7-.12,.7,0,1.26,.39,1.67,.38,.41,.89,.62,1.53,.62s1.19-.21,1.72-.62,.85-.97,.98-1.67c.13-.72,0-1.29-.38-1.7s-.88-.62-1.5-.62-1.22,.21-1.75,.62"
         id="path4423" />
    </clipPath>
    <linearGradient
       id="linear-gradient-7"
       x1="-369.74"
       y1="-4.81"
       x2="-368.74"
       y2="-4.81"
       gradientTransform="matrix(0,-23.25,23.25,0,313.45,-8567.92)"
       gradientUnits="userSpaceOnUse">
      <stop
         offset="0"
         stop-color="#364c96"
         id="stop4426" />
      <stop
         offset=".23"
         stop-color="#364c96"
         id="stop4428" />
      <stop
         offset=".73"
         stop-color="#4674b7"
         id="stop4430" />
      <stop
         offset="1"
         stop-color="#64a7de"
         id="stop4432" />
    </linearGradient>
    <clipPath
       id="clippath-7">
      <path
         class="cls-39"
         d="M209.6,14.16c-1.25,.86-2,2.03-2.26,3.52-.14,.76-.13,1.41,0,1.93,.14,.53,.39,.98,.74,1.35s.78,.7,1.3,.97c.52,.28,1.1,.54,1.73,.79,1.04,.41,1.77,.8,2.2,1.15,.42,.35,.59,.79,.49,1.33-.1,.58-.4,.99-.9,1.22-.5,.24-1.24,.36-2.23,.36s-1.86-.1-2.59-.31c-.74-.21-1.36-.42-1.88-.65l-1.2,3.13c.33,.14,.9,.34,1.73,.57,.83,.24,1.95,.36,3.37,.36,2.13,0,3.83-.4,5.12-1.19s2.07-1.97,2.34-3.51c.13-.72,.14-1.34,.05-1.86s-.31-.98-.64-1.38-.78-.76-1.34-1.08-1.26-.65-2.09-.98c-.5-.19-.93-.37-1.27-.54-.34-.18-.61-.35-.81-.53s-.32-.37-.38-.57c-.06-.21-.06-.44,0-.71,.09-.54,.4-.93,.92-1.19s1.16-.39,1.93-.39c.85,0,1.58,.08,2.19,.23s1.11,.33,1.49,.51l1.22-3.03c-.4-.17-1.02-.34-1.86-.51-.84-.18-1.73-.26-2.68-.26-1.88,0-3.44,.43-4.69,1.28"
         id="path4435" />
    </clipPath>
    <linearGradient
       id="linear-gradient-8"
       x1="-375.85"
       y1="-1.91"
       x2="-374.85"
       y2="-1.91"
       gradientTransform="matrix(0,-17,17,0,244.4,-6359.72)"
       gradientUnits="userSpaceOnUse">
      <stop
         offset="0"
         stop-color="#364c96"
         id="stop4438" />
      <stop
         offset=".23"
         stop-color="#364c96"
         id="stop4440" />
      <stop
         offset=".73"
         stop-color="#4674b7"
         id="stop4442" />
      <stop
         offset="1"
         stop-color="#64a7de"
         id="stop4444" />
    </linearGradient>
    <clipPath
       id="clippath-8">
      <path
         class="cls-39"
         d="M225.61,18.39c.24-.45,.55-.86,.91-1.21,.36-.35,.78-.64,1.25-.85,.47-.22,1-.32,1.58-.32s1.02,.1,1.39,.29,.66,.46,.88,.8,.36,.74,.42,1.21c.06,.46,.05,.95-.04,1.47h-6.97c.15-.48,.34-.94,.59-1.39m1.37-4.97c-.97,.36-1.87,.9-2.7,1.61s-1.55,1.61-2.16,2.68-1.04,2.32-1.3,3.75c-.21,1.22-.25,2.34-.1,3.36s.5,1.91,1.05,2.66,1.31,1.34,2.29,1.77c.98,.42,2.18,.63,3.6,.63,.56,0,1.11-.03,1.66-.09s1.06-.14,1.54-.23,.91-.2,1.29-.31c.38-.11,.68-.22,.91-.33l.05-3.07c-.47,.19-1.09,.36-1.87,.53s-1.63,.25-2.54,.25c-1.55,0-2.67-.36-3.36-1.07s-.97-1.72-.85-3.02h10.68c.06-.21,.11-.44,.17-.7s.1-.49,.14-.7c.48-2.75,.22-4.81-.78-6.19-1.01-1.38-2.62-2.07-4.85-2.07-.95,0-1.91,.18-2.88,.54"
         id="path4447" />
    </clipPath>
    <linearGradient
       id="linear-gradient-9"
       x1="-375.85"
       y1="-1.91"
       x2="-374.85"
       y2="-1.91"
       gradientTransform="matrix(0,-17,17,0,260.67,-6359.72)"
       gradientUnits="userSpaceOnUse">
      <stop
         offset="0"
         stop-color="#364c96"
         id="stop4450" />
      <stop
         offset=".23"
         stop-color="#364c96"
         id="stop4452" />
      <stop
         offset=".73"
         stop-color="#4674b7"
         id="stop4454" />
      <stop
         offset="1"
         stop-color="#64a7de"
         id="stop4456" />
    </linearGradient>
    <clipPath
       id="clippath-9">
      <path
         class="cls-39"
         d="M84.5,34.42c-1.62,.58-3.1,1.42-4.42,2.54-1.32,1.11-2.45,2.48-3.38,4.08-.93,1.61-1.58,3.45-1.95,5.54-.36,2.06-.39,3.89-.09,5.5s.9,2.96,1.78,4.06c.88,1.1,2.04,1.94,3.46,2.52,1.42,.57,3.07,.86,4.94,.86,2.18,0,4.04-.15,5.58-.45s2.67-.58,3.39-.85l2.17-12.33h-5.61l-1.53,8.67c-.35,.07-.75,.12-1.19,.14-.45,.02-.98,.04-1.61,.04-1.15,0-2.12-.2-2.92-.59-.79-.4-1.41-.95-1.86-1.67-.45-.72-.73-1.58-.84-2.57-.11-.99-.06-2.1,.15-3.32,.44-2.52,1.38-4.5,2.79-5.95,1.42-1.45,3.43-2.17,6.05-2.17,1.17,0,2.23,.15,3.17,.45,.94,.3,1.76,.65,2.46,1.06l2.41-4.49c-.17-.12-.46-.29-.86-.5-.41-.22-.93-.42-1.58-.63-.65-.2-1.43-.38-2.35-.54s-1.97-.23-3.14-.23c-1.73,0-3.4,.29-5.02,.86"
         id="path4459" />
    </clipPath>
    <linearGradient
       id="linear-gradient-10"
       x1="-368.01"
       y1="-5.54"
       x2="-367.01"
       y2="-5.54"
       gradientTransform="translate(229.77 -9494.26) rotate(-90) scale(25.96)"
       gradientUnits="userSpaceOnUse">
      <stop
         offset="0"
         stop-color="#6eb253"
         id="stop4462" />
      <stop
         offset=".48"
         stop-color="#9dc44d"
         id="stop4464" />
      <stop
         offset="1"
         stop-color="#d7dd3f"
         id="stop4466" />
    </linearGradient>
    <clipPath
       id="clippath-10">
      <path
         class="cls-39"
         d="M105.06,53.49c-.5-.97-.6-2.28-.31-3.94,.29-1.65,.86-2.95,1.7-3.9s1.87-1.42,3.09-1.42,2.08,.47,2.57,1.42c.49,.95,.59,2.25,.3,3.9-.29,1.65-.85,2.97-1.68,3.94-.83,.97-1.86,1.46-3.08,1.46s-2.08-.48-2.58-1.46m1.44-13.14c-1.22,.48-2.33,1.15-3.3,2.01-.98,.86-1.81,1.91-2.49,3.13s-1.15,2.58-1.42,4.06c-.26,1.49-.27,2.85-.04,4.08,.24,1.24,.69,2.29,1.35,3.16,.66,.88,1.52,1.55,2.57,2.03s2.27,.72,3.67,.72,2.73-.24,3.96-.72c1.22-.48,2.32-1.16,3.29-2.03,.97-.88,1.78-1.93,2.43-3.16s1.1-2.6,1.37-4.08c.26-1.49,.27-2.84,.03-4.06s-.69-2.27-1.35-3.13c-.66-.86-1.52-1.53-2.58-2.01-1.05-.48-2.27-.72-3.63-.72s-2.62,.24-3.85,.72"
         id="path4469" />
    </clipPath>
    <linearGradient
       id="linear-gradient-11"
       x1="-372.53"
       y1="-3.48"
       x2="-371.53"
       y2="-3.48"
       gradientTransform="matrix(0,-19.92,19.92,0,177.93,-7361.45)"
       gradientUnits="userSpaceOnUse">
      <stop
         offset="0"
         stop-color="#6eb253"
         id="stop4472" />
      <stop
         offset=".48"
         stop-color="#9dc44d"
         id="stop4474" />
      <stop
         offset="1"
         stop-color="#d7dd3f"
         id="stop4476" />
    </linearGradient>
    <clipPath
       id="clippath-11">
      <path
         class="cls-39"
         d="M123.04,41.3l-.54,3.07h3.07l.54-3.07h-3.07Zm6.21,0l-.44,2.51h2.51l.44-2.51h-2.51Zm26.96-1.17l-3.34,18.92h5.36l3.33-18.92h-5.35Zm31.75,0l-3.33,18.92h5.36l3.33-18.92h-5.36Zm-18.35,8.85c.25-1.44,.81-2.62,1.67-3.56,.86-.93,2-1.4,3.41-1.4,.48,0,.9,.02,1.25,.05,.35,.04,.66,.08,.91,.13l-1.51,8.56c-.37,.19-.81,.36-1.31,.5-.51,.14-1.03,.22-1.58,.22-2.42,0-3.37-1.5-2.84-4.49m1.63-8.61c-1.28,.44-2.4,1.07-3.37,1.89s-1.77,1.79-2.4,2.93c-.63,1.14-1.07,2.4-1.32,3.79-.49,2.78-.18,4.94,.94,6.49s2.98,2.32,5.6,2.32c1,0,2.03-.2,2.03-.2,.77-.16,1.41-.39,1.88-.59-.12,.81-.38,2.02-1.03,3.35-.53,1.08-1.27,2.62-2.97,3.64-1.39,.84-2.74,1.01-3.43,1.01-1.18,0-2.21-.1-3.1-.29s-1.72-.45-2.5-.79l-1.73,4.49c.92,.33,1.94,.6,3.06,.81,.4,.07,.79,.13,1.19,.18,0,0,1.15,.13,2.21,.13,3.5-.02,6.24-1.44,6.24-1.44,2.26-1.17,3.55-2.75,4.22-3.59,2.13-2.81,2.78-5.45,3.26-7.83l2.8-15.89c-.46-.14-.98-.28-1.56-.41-.59-.13-1.21-.25-1.86-.34s-1.32-.17-1.99-.23-1.33-.09-1.98-.09c-1.51,0-2.9,.22-4.18,.67m44.68,14.46c-.51-.32-.69-.9-.54-1.74,.08-.43,.23-.79,.48-1.08,.24-.29,.55-.51,.91-.68,.36-.17,.77-.28,1.23-.34,.45-.06,.93-.09,1.44-.09,.36,0,.75,.03,1.17,.07,.42,.05,.74,.1,.95,.14l-.72,4.06c-.3,.05-.69,.09-1.17,.11s-.99,.04-1.52,.04c-.98,0-1.73-.16-2.23-.49m2.7-15.1c-.62,.06-1.22,.13-1.78,.22-.57,.08-1.09,.18-1.58,.29s-.89,.21-1.22,.31l-.08,4.32c.69-.24,1.49-.43,2.4-.56,.91-.13,1.82-.2,2.73-.2,1.37,0,2.28,.28,2.73,.83,.45,.55,.6,1.28,.44,2.19l-.09,.5c-.32-.1-.74-.17-1.27-.23s-1.14-.09-1.84-.09c-1.03,0-2.04,.1-3.04,.3-.99,.2-1.9,.53-2.73,.99-.82,.46-1.53,1.07-2.1,1.83-.58,.77-.97,1.7-1.16,2.81-.2,1.15-.18,2.12,.06,2.91,.24,.79,.68,1.43,1.31,1.92,.63,.49,1.43,.85,2.39,1.06,.96,.22,2.05,.32,3.27,.32,1.94,0,3.62-.11,5.02-.34,1.41-.23,2.51-.42,3.31-.59l1.97-11.15c.21-1.17,.26-2.24,.17-3.2-.1-.96-.4-1.77-.92-2.45-.52-.67-1.27-1.19-2.26-1.55-.99-.36-2.28-.54-3.86-.54-.62,0-1.24,.03-1.87,.09m-97-3.2l-.32,1.83h1.83l.32-1.83h-1.83Zm77.39-1.1l-2.8,15.89c-.22,1.22-.3,2.34-.25,3.35s.3,1.86,.75,2.57,1.12,1.26,2.01,1.65c.89,.39,2.07,.59,3.53,.59,1.15,0,2.14-.1,2.96-.29,.83-.19,1.58-.42,2.28-.68l-.02-4.17c-.54,.19-1.12,.34-1.75,.45s-1.23,.16-1.81,.16c-1.2,0-1.94-.33-2.21-1.01-.28-.67-.32-1.57-.12-2.7l1.17-6.65h6.44l.79-4.46h-6.44l.98-5.57-5.51,.86h0Zm-64.95,19.12c-.35,0-.65-.03-.91-.05l2.78-15.75c.37-.05,.76-.08,1.17-.09s.8-.02,1.19-.02c2.8,0,4.74,.67,5.79,2.01,1.06,1.34,1.36,3.32,.89,5.93-.44,2.49-1.46,4.45-3.07,5.86-1.6,1.41-3.81,2.12-6.61,2.12-.48,0-.89,0-1.24-.02m1.14-20.57c-1.42,.08-2.79,.25-4.13,.49l-.26,1.45h-3.05l-.76,4.32h3.05l-.09,.51h2.46l-.64,3.64h-2.46l-2.53,14.35c1.25,.27,2.54,.44,3.86,.52,1.33,.08,2.49,.13,3.5,.13,2.2,0,4.24-.26,6.11-.79,1.87-.53,3.51-1.32,4.93-2.37s2.61-2.38,3.56-3.99,1.62-3.49,2-5.64c.4-2.25,.4-4.18,.02-5.79-.39-1.6-1.12-2.92-2.18-3.95-1.07-1.03-2.42-1.79-4.08-2.27-1.65-.48-3.55-.72-5.68-.72-1.01,0-2.22,.04-3.64,.12m22.8-1.62c-.73,.56-1.19,1.34-1.36,2.32s0,1.76,.54,2.32,1.24,.85,2.1,.85,1.66-.28,2.4-.85c.73-.56,1.19-1.34,1.36-2.32s0-1.76-.54-2.32c-.54-.56-1.23-.85-2.1-.85s-1.66,.28-2.4,.85m31.75,0c-.73,.56-1.19,1.34-1.36,2.32s0,1.76,.54,2.32,1.24,.85,2.1,.85,1.66-.28,2.4-.85c.73-.56,1.19-1.34,1.36-2.32s0-1.76-.54-2.32c-.54-.56-1.23-.85-2.1-.85s-1.66,.28-2.4,.85m45.17-.34l-3.67,20.82c-.18,1.01-.24,1.91-.17,2.71,.06,.8,.33,1.49,.79,2.05,.46,.56,1.15,1,2.07,1.31,.92,.31,2.15,.48,3.71,.5l1.53-4.42c-.64-.05-1.14-.16-1.49-.32-.35-.17-.61-.38-.77-.65-.16-.26-.24-.59-.24-.97s.04-.82,.12-1.29l3.63-20.6-5.51,.86Z"
         id="path4479" />
    </clipPath>
    <linearGradient
       id="linear-gradient-12"
       x1="-363.18"
       y1="-7.7"
       x2="-362.18"
       y2="-7.7"
       gradientTransform="matrix(0,-38.39,38.39,0,476.58,-13872.88)"
       gradientUnits="userSpaceOnUse">
      <stop
         offset="0"
         stop-color="#6eb253"
         id="stop4482" />
      <stop
         offset=".48"
         stop-color="#9dc44d"
         id="stop4484" />
      <stop
         offset="1"
         stop-color="#d7dd3f"
         id="stop4486" />
    </linearGradient>
    <clipPath
       id="clippath-12">
      <path
         class="cls-39"
         d="M30.71,39.17c0,.39,.32,.71,.71,.71s.71-.32,.71-.71-.32-.71-.71-.71-.71,.32-.71,.71m-1.08-8.02c0,.68,.55,1.23,1.23,1.23s1.23-.55,1.23-1.23-.55-1.23-1.23-1.23-1.23,.55-1.23,1.23m6.76-1.24c0,.4,.33,.73,.73,.73s.73-.33,.73-.73-.33-.73-.73-.73-.73,.33-.73,.73m-13.1-.23c0,.68,.55,1.23,1.23,1.23s1.23-.55,1.23-1.23-.55-1.23-1.23-1.23-1.23,.55-1.23,1.23m-7.05-5.37c0,.27,.01,.53,.02,.8,.65-.03,1.17-.56,1.17-1.22s-.48-1.15-1.1-1.21c-.06,.55-.09,1.09-.09,1.64m18.11-2.34c0,.68,.55,1.23,1.22,1.23s1.23-.55,1.23-1.23-.55-1.23-1.23-1.23-1.22,.55-1.22,1.23m-6.08-1.57c0,.4,.33,.73,.73,.73s.73-.33,.73-.73-.33-.73-.73-.73-.73,.33-.73,.73M9.11,29.78c0-.57,.46-1.03,1.03-1.03s1.03,.46,1.03,1.03-.46,1.03-1.03,1.03-1.03-.46-1.03-1.03m6.2-11.21c-.47,0-.91-.14-1.29-.37l-2.78,2.56c.44,.65,.71,1.43,.71,2.27,0,2.21-1.79,4.01-4.01,4.01-.49,0-.95-.09-1.38-.25L0,68.42H20.94c.77-4.8,2.14-13.53,2.29-16.2,0,0,.91-8.27-1.12-11.1-1.19-1.67-3-3.9-4.3-7.38-.43,.25-.92,.4-1.45,.4-1.61,0-2.92-1.31-2.92-2.92s1.31-2.92,2.92-2.92c.05,0,.09,0,.14,.01-.13-.99-.21-2.05-.23-3.19h-.05c-.68,0-1.23-.55-1.23-1.23s.55-1.23,1.23-1.23c.04,0,.08,0,.12,.01,.15-1.37,.48-2.73,.99-4.06l-.61-.5c-.4,.28-.88,.45-1.4,.45m18.2-2.51c0,.4,.33,.73,.73,.73s.73-.33,.73-.73-.33-.73-.73-.73-.73,.33-.73,.73m-12.17-.66c0,.68,.55,1.23,1.23,1.23s1.23-.55,1.23-1.23-.55-1.23-1.23-1.23-1.23,.55-1.23,1.23m5.15-1.31c0,.79,.32,1.5,.82,2.02l-2.37,3.67c-.4-.16-.83-.25-1.28-.25-.83,0-1.6,.3-2.19,.79l-3.6-2.96c-.2,.41-.38,.83-.54,1.26l3.31,2.72c-.26,.49-.41,1.05-.41,1.64,0,.8,.28,1.54,.74,2.13l-3.11,3.61c-.4-.24-.86-.39-1.35-.41,.27,2.1,.74,3.89,1.31,5.43,.46-.27,.84-.66,1.1-1.14l4.7,2.31c-.22,.41-.36,.87-.36,1.37,0,1.61,1.31,2.92,2.92,2.92s2.81-1.22,2.9-2.76h4.76c.23,.72,.69,1.33,1.29,1.76l-2.52,3.83c-.32-.12-.67-.19-1.03-.19-1.63,0-2.96,1.33-2.96,2.96s1.33,2.96,2.96,2.96,2.96-1.33,2.96-2.96c0-.8-.32-1.52-.83-2.05l2.63-4.01c.25,.06,.5,.09,.77,.09,1.9,0,3.44-1.54,3.44-3.44s-1.54-3.44-3.44-3.44-3.29,1.4-3.43,3.17h-4.83c-.45-1.04-1.48-1.76-2.68-1.76-.62,0-1.19,.2-1.67,.53l-5.24-2.58v-.1c0-.59-.18-1.13-.48-1.59l3.15-3.66c.5,.29,1.08,.46,1.71,.46,1.9,0,3.44-1.54,3.44-3.44,0-.98-.41-1.85-1.06-2.48l2.38-3.68c.31,.11,.63,.18,.98,.18h.09l1.82,6.9c-.64,.4-1.08,1.11-1.08,1.92,0,1.25,1.01,2.26,2.26,2.26,.93,0,1.74-.57,2.08-1.37l3.66,.41c.17,1.45,1.39,2.58,2.88,2.58,1.61,0,2.92-1.31,2.92-2.92s-1.31-2.92-2.92-2.92c-.09,0-.18,.02-.27,.03l-1.69-5.07c.37-.32,.61-.79,.61-1.32,0-.96-.78-1.75-1.75-1.75s-1.75,.78-1.75,1.75,.72,1.68,1.64,1.74l1.69,5.06c-.56,.35-.99,.88-1.22,1.51l-3.66-.41c-.19-1.03-1.07-1.8-2.14-1.84l-1.83-6.9c.92-.49,1.55-1.45,1.55-2.56,0-1.61-1.3-2.91-2.91-2.91s-2.91,1.3-2.91,2.91M9.42,8.55l-1.65,10.48h.16c.9,0,1.72,.3,2.38,.79l2.81-2.59c-.17-.33-.28-.71-.28-1.11,0-1.35,1.1-2.45,2.45-2.45s2.45,1.1,2.45,2.45c0,.35-.08,.69-.21,.99l.31,.26c1.65-3.45,4.55-6.57,8.59-8.82H9.42ZM40.32,0l-.46,5.06c.49-.02,.98-.04,1.49-.04,14.28,0,20.26,12.26,20.26,18.74,0,0-.94,6.11,1.01,8.54,1.96,2.43,5.91,5.4,3.48,6.68s-3.38,2.29-3.38,3.58,.76,2.44-.28,2.79c-1.04,.36-1.11,.66-.74,.89,.38,.23,1.57,1.49,.33,2.2-1.24,.71-1.93,1.77-1.7,2.48s2.38,3.57-.81,4.43c-3.19,.86-7.85,.4-9.42,1.52-.38,.27-.81,1.11-1.21,2.26h15.86L74.45,0H40.32Z"
         id="path4489" />
    </clipPath>
    <linearGradient
       id="linear-gradient-13"
       x1="-350.73"
       y1="-7.17"
       x2="-349.73"
       y2="-7.17"
       gradientTransform="translate(26112.1 568.1) scale(74.45)"
       gradientUnits="userSpaceOnUse">
      <stop
         offset="0"
         stop-color="#a22430"
         id="stop4492" />
      <stop
         offset=".23"
         stop-color="#ce4239"
         id="stop4494" />
      <stop
         offset=".46"
         stop-color="#d25b30"
         id="stop4496" />
      <stop
         offset=".73"
         stop-color="#df9335"
         id="stop4498" />
      <stop
         offset=".97"
         stop-color="#fff138"
         id="stop4500" />
      <stop
         offset="1"
         stop-color="#fff138"
         id="stop4502" />
    </linearGradient>
    <clipPath
       id="clippath-13">
      <polygon
         class="cls-39"
         points="91.57 8.01 87.78 29.47 102.31 29.47 102.89 26.16 92.27 26.16 93.38 19.87 102.17 19.87 102.74 16.62 93.95 16.62 94.88 11.33 104.76 11.33 105.35 8.01 91.57 8.01"
         id="polygon4505" />
    </clipPath>
    <linearGradient
       id="linear-gradient-14"
       x1="-370.34"
       y1="-4.6"
       x2="-369.34"
       y2="-4.6"
       gradientTransform="matrix(0,-21.46,21.46,0,195.28,-7917.86)"
       xlink:href="#linear-gradient" />
    <clipPath
       id="clippath-14">
      <path
         class="cls-39"
         d="M111.43,13.21c-1.19,.19-2.16,.38-2.92,.59l-2.76,15.67h3.75l2.3-13.07c.25-.04,.65-.09,1.17-.15,.53-.06,1.03-.09,1.5-.09,.64,0,1.17,.09,1.58,.26,.41,.18,.71,.46,.9,.84,.19,.38,.29,.88,.3,1.49,0,.61-.07,1.35-.22,2.21l-1.5,8.51h3.75l1.61-9.1c.19-1.09,.26-2.1,.21-3.02s-.29-1.7-.7-2.35c-.41-.65-1.03-1.16-1.85-1.52-.83-.36-1.9-.54-3.22-.54-1.4,0-2.7,.09-3.89,.28"
         id="path4509" />
    </clipPath>
    <linearGradient
       id="linear-gradient-15"
       x1="-375.69"
       y1="-2.05"
       x2="-374.69"
       y2="-2.05"
       gradientTransform="matrix(0,-16.54,16.54,0,147.35,-6183.73)"
       xlink:href="#linear-gradient" />
    <clipPath
       id="clippath-15">
      <path
         class="cls-39"
         d="M127.28,9l-2.47,14.03c-.19,1.07-.26,2.03-.23,2.86,.04,.84,.23,1.55,.58,2.14s.88,1.04,1.6,1.35,1.66,.46,2.81,.46c.95,0,1.79-.1,2.53-.29,.74-.2,1.34-.39,1.8-.57l-.1-2.97c-.33,.12-.77,.26-1.33,.4-.55,.14-1.17,.22-1.85,.22-.99,0-1.64-.28-1.96-.84s-.36-1.49-.13-2.79l1.16-6.6h5.76l.55-3.13h-5.76l.86-4.89-3.86,.62h.04Z"
         id="path4513" />
    </clipPath>
    <linearGradient
       id="linear-gradient-16"
       x1="-370.35"
       y1="-4.6"
       x2="-369.35"
       y2="-4.6"
       gradientTransform="matrix(0,-21.46,21.46,0,229.02,-7917.49)"
       xlink:href="#linear-gradient" />
    <clipPath
       id="clippath-16">
      <path
         class="cls-39"
         d="M141.82,18.39c.24-.45,.55-.86,.91-1.21,.36-.35,.78-.64,1.25-.85,.47-.22,1-.32,1.57-.32s1.02,.1,1.39,.29,.66,.46,.88,.8,.36,.74,.42,1.21c.06,.46,.05,.95-.04,1.47h-6.97c.15-.48,.34-.94,.59-1.39m1.37-4.97c-.97,.36-1.87,.9-2.7,1.61s-1.55,1.61-2.16,2.68-1.04,2.32-1.29,3.75c-.22,1.22-.25,2.34-.1,3.36s.5,1.91,1.05,2.66,1.31,1.34,2.29,1.77c.98,.42,2.18,.63,3.6,.63,.56,0,1.11-.03,1.66-.09s1.06-.14,1.54-.23,.91-.2,1.29-.31c.38-.11,.68-.22,.91-.33l.04-3.07c-.47,.19-1.09,.36-1.87,.53s-1.63,.25-2.54,.25c-1.55,0-2.67-.36-3.36-1.07s-.97-1.72-.85-3.02h10.68c.06-.21,.11-.44,.17-.7s.1-.49,.14-.7c.48-2.75,.22-4.81-.78-6.19-1.01-1.38-2.62-2.07-4.85-2.07-.95,0-1.91,.18-2.88,.54"
         id="path4517" />
    </clipPath>
    <linearGradient
       id="linear-gradient-17"
       x1="-375.05"
       y1="-2.46"
       x2="-374.06"
       y2="-2.46"
       gradientTransform="matrix(0,-17,17,0,186.33,-6346.19)"
       xlink:href="#linear-gradient" />
    <clipPath
       id="clippath-18">
      <path
         class="cls-39"
         d="M172.3,26.3c-.51-.2-.91-.41-1.2-.63l1.63-9.26c.39-.1,.78-.17,1.17-.2s.76-.05,1.11-.05c1.67,0,2.8,.46,3.39,1.39s.74,2.23,.44,3.9c-.28,1.57-.81,2.82-1.61,3.75-.79,.93-1.87,1.39-3.23,1.39-.62,0-1.19-.1-1.7-.29m.06-13.08c-1.15,.19-2.12,.38-2.92,.59l-3.77,21.39h3.75l1.11-6.29c.37,.23,.86,.43,1.47,.62,.61,.18,1.29,.28,2.06,.28,1.14,0,2.19-.21,3.16-.62,.97-.41,1.82-.99,2.55-1.73s1.35-1.63,1.85-2.66,.86-2.17,1.08-3.41c.23-1.3,.24-2.47,.05-3.51-.2-1.04-.59-1.93-1.17-2.66s-1.35-1.3-2.29-1.69c-.94-.39-2.05-.59-3.33-.59s-2.43,.09-3.58,.28"
         id="path4521" />
    </clipPath>
    <linearGradient
       id="linear-gradient-18"
       x1="-369.69"
       y1="-5"
       x2="-368.69"
       y2="-5"
       gradientTransform="matrix(0,-22.26,22.26,0,285.65,-8194.9)"
       xlink:href="#linear-gradient" />
    <clipPath
       id="clippath-19">
      <path
         class="cls-39"
         d="M190.7,13.29c-1.13,.24-2.07,.49-2.84,.76l-2.72,15.42h3.75l2.29-12.97c.2-.06,.53-.13,1.01-.22,.48-.08,.92-.12,1.34-.12,.72,0,1.35,.06,1.87,.17,.53,.11,.94,.22,1.23,.33l1.21-3.16c-.18-.06-.41-.13-.71-.2s-.61-.14-.93-.19c-.32-.05-.64-.09-.97-.12s-.61-.05-.86-.05c-1.32,0-2.54,.12-3.67,.36"
         id="path4525" />
    </clipPath>
    <linearGradient
       id="linear-gradient-19"
       x1="-375.69"
       y1="-2.05"
       x2="-374.69"
       y2="-2.05"
       gradientTransform="matrix(0,-16.54,16.54,0,225.41,-6183.73)"
       xlink:href="#linear-gradient" />
    <clipPath
       id="clippath-21">
      <path
         class="cls-39"
         d="M209.6,14.16c-1.25,.86-2,2.03-2.26,3.52-.14,.76-.13,1.41,0,1.93,.14,.53,.39,.98,.74,1.35s.78,.7,1.3,.97c.52,.28,1.1,.54,1.73,.79,1.04,.41,1.77,.8,2.2,1.15,.42,.35,.59,.79,.49,1.33-.1,.58-.4,.99-.9,1.22-.5,.24-1.24,.36-2.23,.36s-1.86-.1-2.59-.31c-.74-.21-1.36-.42-1.88-.65l-1.2,3.13c.33,.14,.9,.34,1.73,.57,.83,.24,1.95,.36,3.37,.36,2.13,0,3.83-.4,5.12-1.19s2.07-1.97,2.34-3.51c.13-.72,.14-1.34,.05-1.86s-.31-.98-.64-1.38-.78-.76-1.34-1.08-1.26-.65-2.09-.98c-.5-.19-.93-.37-1.27-.54-.34-.18-.61-.35-.81-.53s-.32-.37-.38-.57c-.06-.21-.06-.44,0-.71,.09-.54,.4-.93,.92-1.19s1.16-.39,1.93-.39c.85,0,1.58,.08,2.19,.23s1.11,.33,1.49,.51l1.22-3.03c-.4-.17-1.02-.34-1.86-.51-.84-.18-1.73-.26-2.68-.26-1.88,0-3.44,.43-4.69,1.28"
         id="path4529" />
    </clipPath>
    <linearGradient
       id="linear-gradient-20"
       x1="-375.05"
       y1="-2.47"
       x2="-374.06"
       y2="-2.47"
       gradientTransform="matrix(0,-17,17,0,253.85,-6346.19)"
       xlink:href="#linear-gradient" />
    <clipPath
       id="clippath-22">
      <path
         class="cls-39"
         d="M225.61,18.39c.24-.45,.55-.86,.91-1.21,.36-.35,.78-.64,1.25-.85,.47-.22,1-.32,1.58-.32s1.02,.1,1.39,.29,.66,.46,.88,.8,.36,.74,.42,1.21c.06,.46,.05,.95-.04,1.47h-6.97c.15-.48,.34-.94,.59-1.39m1.37-4.97c-.97,.36-1.87,.9-2.7,1.61s-1.55,1.61-2.16,2.68-1.04,2.32-1.3,3.75c-.21,1.22-.25,2.34-.1,3.36s.5,1.91,1.05,2.66,1.31,1.34,2.29,1.77c.98,.42,2.18,.63,3.6,.63,.56,0,1.11-.03,1.66-.09s1.06-.14,1.54-.23,.91-.2,1.29-.31c.38-.11,.68-.22,.91-.33l.05-3.07c-.47,.19-1.09,.36-1.87,.53s-1.63,.25-2.54,.25c-1.55,0-2.67-.36-3.36-1.07s-.97-1.72-.85-3.02h10.68c.06-.21,.11-.44,.17-.7s.1-.49,.14-.7c.48-2.75,.22-4.81-.78-6.19-1.01-1.38-2.62-2.07-4.85-2.07-.95,0-1.91,.18-2.88,.54"
         id="path4533" />
    </clipPath>
    <linearGradient
       id="linear-gradient-21"
       x1="-375.05"
       y1="-2.46"
       x2="-374.06"
       y2="-2.46"
       gradientTransform="matrix(0,-17,17,0,270.11,-6346.19)"
       xlink:href="#linear-gradient" />
    <clipPath
       id="clippath-23">
      <path
         class="cls-39"
         d="M84.5,34.42c-1.62,.58-3.1,1.42-4.42,2.54-1.32,1.11-2.45,2.48-3.38,4.08-.93,1.61-1.58,3.45-1.95,5.54-.36,2.06-.39,3.89-.09,5.5s.9,2.96,1.78,4.06c.88,1.1,2.04,1.94,3.46,2.52,1.42,.57,3.07,.86,4.94,.86,2.18,0,4.04-.15,5.58-.45s2.67-.58,3.39-.85l2.17-12.33h-5.61l-1.53,8.67c-.35,.07-.75,.12-1.19,.14-.45,.02-.98,.04-1.61,.04-1.15,0-2.12-.2-2.92-.59-.79-.4-1.41-.95-1.86-1.67-.45-.72-.73-1.58-.84-2.57-.11-.99-.06-2.1,.15-3.32,.44-2.52,1.38-4.5,2.79-5.95,1.42-1.45,3.43-2.17,6.05-2.17,1.17,0,2.23,.15,3.17,.45,.94,.3,1.76,.65,2.46,1.06l2.41-4.49c-.17-.12-.46-.29-.86-.5-.41-.22-.93-.42-1.58-.63-.65-.2-1.43-.38-2.35-.54s-1.97-.23-3.14-.23c-1.73,0-3.4,.29-5.02,.86"
         id="path4537" />
    </clipPath>
    <linearGradient
       id="linear-gradient-22"
       x1="-367.23"
       y1="-6.08"
       x2="-366.23"
       y2="-6.08"
       gradientTransform="matrix(0,-25.96,25.96,0,243.79,-9473.86)"
       xlink:href="#linear-gradient-10" />
    <clipPath
       id="clippath-24">
      <path
         class="cls-39"
         d="M105.06,53.49c-.5-.97-.6-2.28-.31-3.94,.29-1.65,.86-2.95,1.7-3.9s1.87-1.42,3.09-1.42,2.08,.47,2.57,1.42c.49,.95,.59,2.25,.3,3.9-.29,1.65-.85,2.97-1.68,3.94-.83,.97-1.86,1.46-3.08,1.46s-2.08-.48-2.58-1.46m1.44-13.14c-1.22,.48-2.33,1.15-3.3,2.01-.98,.86-1.81,1.91-2.49,3.13s-1.15,2.58-1.42,4.06c-.26,1.49-.27,2.85-.04,4.08,.24,1.24,.69,2.29,1.35,3.16,.66,.88,1.52,1.55,2.57,2.03s2.27,.72,3.67,.72,2.73-.24,3.96-.72c1.22-.48,2.32-1.16,3.29-2.03,.97-.88,1.78-1.93,2.43-3.16s1.1-2.6,1.37-4.08c.26-1.49,.27-2.84,.03-4.06s-.69-2.27-1.35-3.13c-.66-.86-1.52-1.53-2.58-2.01-1.05-.48-2.27-.72-3.63-.72s-2.62,.24-3.85,.72"
         id="path4541" />
    </clipPath>
    <linearGradient
       id="linear-gradient-23"
       x1="-371.74"
       y1="-4.03"
       x2="-370.73"
       y2="-4.03"
       gradientTransform="matrix(0,-19.92,19.92,0,188.87,-7345.68)"
       xlink:href="#linear-gradient-10" />
    <clipPath
       id="clippath-25">
      <path
         class="cls-39"
         d="M123.04,41.3l-.54,3.07h3.07l.54-3.07h-3.07Zm6.21,0l-.44,2.51h2.51l.44-2.51h-2.51Zm26.96-1.17l-3.34,18.92h5.36l3.33-18.92h-5.35Zm31.75,0l-3.33,18.92h5.36l3.33-18.92h-5.36Zm-18.35,8.85c.25-1.44,.81-2.62,1.67-3.56,.86-.93,2-1.4,3.41-1.4,.48,0,.9,.02,1.25,.05,.35,.04,.66,.08,.91,.13l-1.51,8.56c-.37,.19-.81,.36-1.31,.5-.51,.14-1.03,.22-1.58,.22-2.42,0-3.37-1.5-2.84-4.49m1.63-8.61c-1.28,.44-2.4,1.07-3.37,1.89s-1.77,1.79-2.4,2.93c-.63,1.14-1.07,2.4-1.32,3.79-.49,2.78-.18,4.94,.94,6.49s2.98,2.32,5.6,2.32c1,0,2.03-.2,2.03-.2,.77-.16,1.41-.39,1.88-.59-.12,.81-.38,2.02-1.03,3.35-.53,1.08-1.27,2.62-2.97,3.64-1.39,.84-2.74,1.01-3.43,1.01-1.18,0-2.21-.1-3.1-.29s-1.72-.45-2.5-.79l-1.73,4.49c.92,.33,1.94,.6,3.06,.81,.4,.07,.79,.13,1.19,.18,0,0,1.15,.13,2.21,.13,3.5-.02,6.24-1.44,6.24-1.44,2.26-1.17,3.55-2.75,4.22-3.59,2.13-2.81,2.78-5.45,3.26-7.83l2.8-15.89c-.46-.14-.98-.28-1.56-.41-.59-.13-1.21-.25-1.86-.34s-1.32-.17-1.99-.23-1.33-.09-1.98-.09c-1.51,0-2.9,.22-4.18,.67m44.68,14.46c-.51-.32-.69-.9-.54-1.74,.08-.43,.23-.79,.48-1.08,.24-.29,.55-.51,.91-.68,.36-.17,.77-.28,1.23-.34,.45-.06,.93-.09,1.44-.09,.36,0,.75,.03,1.17,.07,.42,.05,.74,.1,.95,.14l-.72,4.06c-.3,.05-.69,.09-1.17,.11s-.99,.04-1.52,.04c-.98,0-1.73-.16-2.23-.49m2.7-15.1c-.62,.06-1.22,.13-1.78,.22-.57,.08-1.09,.18-1.58,.29s-.89,.21-1.22,.31l-.08,4.32c.69-.24,1.49-.43,2.4-.56,.91-.13,1.82-.2,2.73-.2,1.37,0,2.28,.28,2.73,.83,.45,.55,.6,1.28,.44,2.19l-.09,.5c-.32-.1-.74-.17-1.27-.23s-1.14-.09-1.84-.09c-1.03,0-2.04,.1-3.04,.3-.99,.2-1.9,.53-2.73,.99-.82,.46-1.53,1.07-2.1,1.83-.58,.77-.97,1.7-1.16,2.81-.2,1.15-.18,2.12,.06,2.91,.24,.79,.68,1.43,1.31,1.92,.63,.49,1.43,.85,2.39,1.06,.96,.22,2.05,.32,3.27,.32,1.94,0,3.62-.11,5.02-.34,1.41-.23,2.51-.42,3.31-.59l1.97-11.15c.21-1.17,.26-2.24,.17-3.2-.1-.96-.4-1.77-.92-2.45-.52-.67-1.27-1.19-2.26-1.55-.99-.36-2.28-.54-3.86-.54-.62,0-1.24,.03-1.87,.09m-97-3.2l-.32,1.83h1.83l.32-1.83h-1.83Zm77.39-1.1l-2.8,15.89c-.22,1.22-.3,2.34-.25,3.35s.3,1.86,.75,2.57,1.12,1.26,2.01,1.65c.89,.39,2.07,.59,3.53,.59,1.15,0,2.14-.1,2.96-.29,.83-.19,1.58-.42,2.28-.68l-.02-4.17c-.54,.19-1.12,.34-1.75,.45s-1.23,.16-1.81,.16c-1.2,0-1.94-.33-2.21-1.01-.28-.67-.32-1.57-.12-2.7l1.17-6.65h6.44l.79-4.46h-6.44l.98-5.57-5.51,.86h0Zm-64.95,19.12c-.35,0-.65-.03-.91-.05l2.78-15.75c.37-.05,.76-.08,1.17-.09s.8-.02,1.19-.02c2.8,0,4.74,.67,5.79,2.01,1.06,1.34,1.36,3.32,.89,5.93-.44,2.49-1.46,4.45-3.07,5.86-1.6,1.41-3.81,2.12-6.61,2.12-.48,0-.89,0-1.24-.02m1.14-20.57c-1.42,.08-2.79,.25-4.13,.49l-.26,1.45h-3.05l-.76,4.32h3.05l-.09,.51h2.46l-.64,3.64h-2.46l-2.53,14.35c1.25,.27,2.54,.44,3.86,.52,1.33,.08,2.49,.13,3.5,.13,2.2,0,4.24-.26,6.11-.79,1.87-.53,3.51-1.32,4.93-2.37s2.61-2.38,3.56-3.99,1.62-3.49,2-5.64c.4-2.25,.4-4.18,.02-5.79-.39-1.6-1.12-2.92-2.18-3.95-1.07-1.03-2.42-1.79-4.08-2.27-1.65-.48-3.55-.72-5.68-.72-1.01,0-2.22,.04-3.64,.12m22.8-1.62c-.73,.56-1.19,1.34-1.36,2.32s0,1.76,.54,2.32,1.24,.85,2.1,.85,1.66-.28,2.4-.85c.73-.56,1.19-1.34,1.36-2.32s0-1.76-.54-2.32c-.54-.56-1.23-.85-2.1-.85s-1.66,.28-2.4,.85m31.75,0c-.73,.56-1.19,1.34-1.36,2.32s0,1.76,.54,2.32,1.24,.85,2.1,.85,1.66-.28,2.4-.85c.73-.56,1.19-1.34,1.36-2.32s0-1.76-.54-2.32c-.54-.56-1.23-.85-2.1-.85s-1.66,.28-2.4,.85m45.17-.34l-3.67,20.82c-.18,1.01-.24,1.91-.17,2.71,.06,.8,.33,1.49,.79,2.05,.46,.56,1.15,1,2.07,1.31,.92,.31,2.15,.48,3.71,.5l1.53-4.42c-.64-.05-1.14-.16-1.49-.32-.35-.17-.61-.38-.77-.65-.16-.26-.24-.59-.24-.97s.04-.82,.12-1.29l3.63-20.6-5.51,.86Z"
         id="path4545" />
    </clipPath>
    <linearGradient
       id="linear-gradient-24"
       x1="-362.42"
       y1="-8.23"
       x2="-361.41"
       y2="-8.23"
       gradientTransform="matrix(0,-38.39,38.39,0,496.94,-13842.96)"
       xlink:href="#linear-gradient-10" />
    <clipPath
       id="clippath-26">
      <path
         class="cls-39"
         d="M30.71,39.17c0,.39,.32,.71,.71,.71s.71-.32,.71-.71-.32-.71-.71-.71-.71,.32-.71,.71m-1.08-8.02c0,.68,.55,1.23,1.23,1.23s1.23-.55,1.23-1.23-.55-1.23-1.23-1.23-1.23,.55-1.23,1.23m6.76-1.24c0,.4,.33,.73,.73,.73s.73-.33,.73-.73-.33-.73-.73-.73-.73,.33-.73,.73m-13.1-.23c0,.68,.55,1.23,1.23,1.23s1.23-.55,1.23-1.23-.55-1.23-1.23-1.23-1.23,.55-1.23,1.23m-7.05-5.37c0,.27,.01,.53,.02,.8,.65-.03,1.17-.56,1.17-1.22s-.48-1.15-1.1-1.21c-.06,.55-.09,1.09-.09,1.64m18.11-2.34c0,.68,.55,1.23,1.22,1.23s1.23-.55,1.23-1.23-.55-1.23-1.23-1.23-1.22,.55-1.22,1.23m-6.08-1.57c0,.4,.33,.73,.73,.73s.73-.33,.73-.73-.33-.73-.73-.73-.73,.33-.73,.73M9.11,29.78c0-.57,.46-1.03,1.03-1.03s1.03,.46,1.03,1.03-.46,1.03-1.03,1.03-1.03-.46-1.03-1.03m6.2-11.21c-.47,0-.91-.14-1.29-.37l-2.78,2.56c.44,.65,.71,1.43,.71,2.27,0,2.21-1.79,4.01-4.01,4.01-.49,0-.95-.09-1.38-.25L0,68.42H20.94c.77-4.8,2.14-13.53,2.29-16.2,0,0,.91-8.27-1.12-11.1-1.19-1.67-3-3.9-4.3-7.38-.43,.25-.92,.4-1.45,.4-1.61,0-2.92-1.31-2.92-2.92s1.31-2.92,2.92-2.92c.05,0,.09,0,.14,.01-.13-.99-.21-2.05-.23-3.19h-.05c-.68,0-1.23-.55-1.23-1.23s.55-1.23,1.23-1.23c.04,0,.08,0,.12,.01,.15-1.37,.48-2.73,.99-4.06l-.61-.5c-.4,.28-.88,.45-1.4,.45m18.2-2.51c0,.4,.33,.73,.73,.73s.73-.33,.73-.73-.33-.73-.73-.73-.73,.33-.73,.73m-12.17-.66c0,.68,.55,1.23,1.23,1.23s1.23-.55,1.23-1.23-.55-1.23-1.23-1.23-1.23,.55-1.23,1.23m5.15-1.31c0,.79,.32,1.5,.82,2.02l-2.37,3.67c-.4-.16-.83-.25-1.28-.25-.83,0-1.6,.3-2.19,.79l-3.6-2.96c-.2,.41-.38,.83-.54,1.26l3.31,2.72c-.26,.49-.41,1.05-.41,1.64,0,.8,.28,1.54,.74,2.13l-3.11,3.61c-.4-.24-.86-.39-1.35-.41,.27,2.1,.74,3.89,1.31,5.43,.46-.27,.84-.66,1.1-1.14l4.7,2.31c-.22,.41-.36,.87-.36,1.37,0,1.61,1.31,2.92,2.92,2.92s2.81-1.22,2.9-2.76h4.76c.23,.72,.69,1.33,1.29,1.76l-2.52,3.83c-.32-.12-.67-.19-1.03-.19-1.63,0-2.96,1.33-2.96,2.96s1.33,2.96,2.96,2.96,2.96-1.33,2.96-2.96c0-.8-.32-1.52-.83-2.05l2.63-4.01c.25,.06,.5,.09,.77,.09,1.9,0,3.44-1.54,3.44-3.44s-1.54-3.44-3.44-3.44-3.29,1.4-3.43,3.17h-4.83c-.45-1.04-1.48-1.76-2.68-1.76-.62,0-1.19,.2-1.67,.53l-5.24-2.58v-.1c0-.59-.18-1.13-.48-1.59l3.15-3.66c.5,.29,1.08,.46,1.71,.46,1.9,0,3.44-1.54,3.44-3.44,0-.98-.41-1.85-1.06-2.48l2.38-3.68c.31,.11,.63,.18,.98,.18h.09l1.82,6.9c-.64,.4-1.08,1.11-1.08,1.92,0,1.25,1.01,2.26,2.26,2.26,.93,0,1.74-.57,2.08-1.37l3.66,.41c.17,1.45,1.39,2.58,2.88,2.58,1.61,0,2.92-1.31,2.92-2.92s-1.31-2.92-2.92-2.92c-.09,0-.18,.02-.27,.03l-1.69-5.07c.37-.32,.61-.79,.61-1.32,0-.96-.78-1.75-1.75-1.75s-1.75,.78-1.75,1.75,.72,1.68,1.64,1.74l1.69,5.06c-.56,.35-.99,.88-1.22,1.51l-3.66-.41c-.19-1.03-1.07-1.8-2.14-1.84l-1.83-6.9c.92-.49,1.55-1.45,1.55-2.56,0-1.61-1.3-2.91-2.91-2.91s-2.91,1.3-2.91,2.91M9.42,8.55l-1.65,10.48h.16c.9,0,1.72,.3,2.38,.79l2.81-2.59c-.17-.33-.28-.71-.28-1.11,0-1.35,1.1-2.45,2.45-2.45s2.45,1.1,2.45,2.45c0,.35-.08,.69-.21,.99l.31,.26c1.65-3.45,4.55-6.57,8.59-8.82H9.42ZM40.32,0l-.46,5.06c.49-.02,.98-.04,1.49-.04,14.28,0,20.26,12.26,20.26,18.74,0,0-.94,6.11,1.01,8.54,1.96,2.43,5.91,5.4,3.48,6.68s-3.38,2.29-3.38,3.58,.76,2.44-.28,2.79c-1.04,.36-1.11,.66-.74,.89,.38,.23,1.57,1.49,.33,2.2-1.24,.71-1.93,1.77-1.7,2.48s2.38,3.57-.81,4.43c-3.19,.86-7.85,.4-9.42,1.52-.38,.27-.81,1.11-1.21,2.26h15.86L74.45,0H40.32Z"
         id="path4549" />
    </clipPath>
    <linearGradient
       id="linear-gradient-25"
       x1="-349.97"
       y1="-7.69"
       x2="-348.97"
       y2="-7.69"
       gradientTransform="matrix(74.45,0,0,74.45,26055.84,606.63)"
       xlink:href="#linear-gradient-13" />
    <linearGradient
       inkscape:collect="always"
       xlink:href="#linear-gradient"
       id="linearGradient4932"
       gradientUnits="userSpaceOnUse"
       gradientTransform="matrix(0,-21.46,21.46,0,183.56,-7934.81)"
       x1="-371.13"
       y1="-4.05"
       x2="-370.13"
       y2="-4.05" />
    <linearGradient
       inkscape:collect="always"
       xlink:href="#linear-gradient-10"
       id="linearGradient4934"
       gradientUnits="userSpaceOnUse"
       gradientTransform="matrix(0,-25.96,25.96,0,229.77,-9494.26)"
       x1="-368.01"
       y1="-5.54"
       x2="-367.01"
       y2="-5.54" />
    <linearGradient
       inkscape:collect="always"
       xlink:href="#linear-gradient-13"
       id="linearGradient4936"
       gradientUnits="userSpaceOnUse"
       gradientTransform="matrix(74.45,0,0,74.45,26112.1,568.1)"
       x1="-350.73"
       y1="-7.17"
       x2="-349.73"
       y2="-7.17" />
  </defs>
  <g
     inkscape:label="Layer 1"
     inkscape:groupmode="layer"
     id="layer1">
    <g
       id="g1671"
       transform="matrix(0.45196179,0,0,0.45196179,9.8518918,255.33652)">
      <g
         id="a" />
      <g
         id="b">
        <g
           id="c">
          <g
             id="g1619">
            <path
               class="l"
               d="m 16.35,3.33 4.24,2.07 -2.96,3.3 -6.8,-0.1 c -0.3,0.05 5.52,-5.28 5.52,-5.28"
               id="path1541" />
            <path
               class="h"
               d="m 6.53,10.56 c 0,0 1.74,-3.6 10.88,-1.88 L 20.57,5.02 15.63,2.35 10.29,7.89 15.52,3.14 19.37,5.12 16.7,8.18 c 0,0 -9.48,-2.27 -10.18,2.37"
               id="path1543" />
            <polygon
               class="n"
               points="4.99,3 10.69,1.69 5.22,9.56 "
               id="polygon1545" />
            <path
               class="j"
               d="m 4.86,2.95 c 0,0 -0.2,3.27 -0.02,4.1 0,0 -0.57,-4.16 -0.63,-4.66 0,0 4.18,-2.09 7.38,-2.39 0,0 0.45,3.59 0.57,4.49 0,0 -14.54,6.04 -11.54,22.49 0,0 -3.05,-9.61 4.39,-19.06 0,0 0.49,-0.62 1.08,-1.46 C 6.69,5.62 7.24,5.13 8.34,3.54 8.49,3.32 9.52,2.02 9.57,1.81 9.57,1.81 7.6,1.56 5.38,2.7 L 5,2.83"
               id="path1547" />
            <polygon
               class="i"
               points="9.87,10.41 14.15,10.07 15.77,14.55 14.42,14.91 13.52,15.22 12.33,15.6 9.63,16.97 8.74,17.36 8.34,17.51 "
               id="polygon1549" />
            <path
               class="k"
               d="m 13.23,15.27 c 0.08,-0.03 0.17,-0.06 0.26,-0.09 L 11.53,11.65 8.26,12.3 7.61,16.22 v -5.49 l 5.23,-0.92 2.22,5.49 c 0,0 -0.45,0.11 -1.17,0.36"
               id="path1551" />
            <path
               class="g"
               d="m 24.96,14.87 c 0.14,-0.14 0.63,-0.83 0.63,-0.83 l -8.29,2.31 c 0,0 2.71,-0.11 2.96,-0.1 0.25,0.01 3.45,0.28 3.45,0.28 l 0.58,-0.59 0.68,-1.06 z"
               id="path1553" />
            <path
               class="m"
               d="m 5.87,22.89 c 0,0 6.33,-8.03 17.15,-4.87 0,0 2.9,-3.25 3.23,-4.1 0,0 -1.35,-1.83 -4.81,-2.54 l -1,1.47 0.95,-1.04 c 0,0 2.29,0.88 2.99,2.66 0,0 -0.58,1.41 -1.58,2.42 0,0 -10.44,-2.11 -16.93,6"
               id="path1555" />
            <path
               class="k"
               d="M 15.01,15.25 C 1.82,18.86 0.04,31.4 4.31,37.35 c 3.47,4.83 10.38,5.81 14.95,2.38 3.9,-2.93 4.51,-7.99 1.78,-11.79 -2.19,-3.04 -6.42,-3.74 -9.47,-1.55 -2.43,1.75 -2.99,5.14 -1.24,7.57 1.4,1.95 4.11,2.39 6.06,0.99 1.56,-1.12 1.91,-3.29 0.79,-4.85 1.12,1.56 1,4.03 -1.02,5.25 -2.05,1.25 -4.6,0.7 -6.01,-1.24 -1.82,-2.52 -1.36,-5.49 0.64,-7.43 3.42,-3.31 8.47,-2.13 10.67,1.3 2.68,4.17 2.13,9.5 -2.72,12.6 C 13.93,43.66 7.03,42.17 3.56,37.34 -0.69,31.4 1.24,20.03 13.13,14.47 l 1.88,0.77 z"
               id="path1557" />
            <path
               class="f"
               d="m 26.06,41.96 h 4.96 l 0.7,-3.79 c 0.21,-1.18 0.4,-2.22 0.44,-3.2 l 2.5,6.99 h 4.97 l 2.5,-13.55 h -4.91 l -1.31,7.05 c -0.25,-1.21 -0.61,-2.1 -0.83,-2.75 l -1.55,-4.3 h -4.97 z"
               id="path1559" />
            <path
               class="f"
               d="m 48.49,34.26 0.44,-2.31 h 0.23 c 1.23,0 1.8,0.28 1.8,0.99 0,0.91 -0.68,1.33 -2.1,1.33 H 48.5 Z m -6.35,7.69 h 4.93 l 0.76,-4.15 h 1.93 c 3.94,0 6.08,-1.91 6.08,-5 0,-3.09 -1.99,-4.4 -5.99,-4.4 h -5.21 z"
               id="path1561" />
            <path
               class="f"
               d="m 66.66,36.97 c -0.87,0.55 -1.82,0.83 -2.58,0.83 -1.44,0 -2.37,-0.89 -2.37,-2.33 0,-1.69 1.21,-2.9 2.92,-2.9 0.89,0 1.76,0.28 2.69,0.81 l 0.83,-4.53 c -1.02,-0.51 -2.16,-0.78 -3.45,-0.78 -2.46,0 -4.59,0.97 -6.03,2.65 -1.23,1.44 -1.86,3.22 -1.86,5.23 0,1.9 0.76,3.64 2.07,4.78 1.18,1.02 2.69,1.57 4.38,1.57 0.83,0 1.65,-0.15 2.48,-0.45 l 0.91,-4.89 z"
               id="path1563" />
            <path
               class="f"
               d="m 78.77,36.97 c -0.87,0.55 -1.82,0.83 -2.58,0.83 -1.44,0 -2.37,-0.89 -2.37,-2.33 0,-1.69 1.21,-2.9 2.92,-2.9 0.89,0 1.76,0.28 2.69,0.81 l 0.83,-4.53 c -1.02,-0.51 -2.16,-0.78 -3.45,-0.78 -2.46,0 -4.59,0.97 -6.03,2.65 -1.23,1.44 -1.86,3.22 -1.86,5.23 0,1.9 0.76,3.64 2.07,4.78 1.18,1.02 2.69,1.57 4.38,1.57 0.83,0 1.65,-0.15 2.48,-0.45 l 0.91,-4.89 z"
               id="path1565" />
            <path
               class="e"
               d="m 5.67,46.81 h 0.55 l 0.12,-0.93 c 0.05,-0.39 0.22,-0.57 0.54,-0.57 0.19,0 0.29,0.1 0.29,0.28 0,0.04 0,0.09 -0.01,0.17 l -0.14,1.06 h 0.55 l 0.13,-1 c 0.02,-0.14 0.04,-0.27 0.04,-0.39 0,-0.36 -0.24,-0.57 -0.65,-0.57 -0.26,0 -0.48,0.12 -0.71,0.36 l 0.04,-0.3 H 5.91 l -0.25,1.89 z"
               id="path1567" />
            <path
               class="e"
               d="m 8.74,46.2 -0.32,0.32 c 0.23,0.24 0.48,0.36 0.78,0.36 0.44,0 0.74,-0.27 0.74,-0.65 0,-0.21 -0.1,-0.37 -0.31,-0.49 C 9.37,45.59 9.2,45.52 9.2,45.4 c 0,-0.1 0.08,-0.17 0.2,-0.17 0.13,0 0.26,0.08 0.4,0.23 l 0.32,-0.29 c -0.19,-0.2 -0.43,-0.31 -0.69,-0.31 -0.44,0 -0.74,0.27 -0.74,0.61 0,0.24 0.12,0.38 0.36,0.53 0.2,0.13 0.36,0.17 0.36,0.32 0,0.1 -0.09,0.18 -0.22,0.18 -0.15,0 -0.32,-0.1 -0.45,-0.29"
               id="path1569" />
            <path
               class="e"
               d="m 12.27,45.75 c 0,0.39 -0.2,0.64 -0.49,0.64 -0.29,0 -0.45,-0.18 -0.45,-0.45 0,-0.42 0.2,-0.66 0.51,-0.66 0.27,0 0.43,0.18 0.43,0.47 m 0.38,1.05 0.25,-1.89 h -0.55 l -0.03,0.27 c -0.15,-0.23 -0.36,-0.33 -0.62,-0.33 -0.52,0 -0.91,0.46 -0.91,1.13 0,0.57 0.28,0.9 0.77,0.9 0.26,0 0.45,-0.1 0.58,-0.28 l -0.03,0.21 h 0.55 z"
               id="path1571" />
            <path
               class="e"
               d="m 13.63,46.81 h 0.54 l 0.12,-0.94 c 0.05,-0.37 0.15,-0.57 0.41,-0.57 0.16,0 0.24,0.1 0.24,0.28 0,0.02 0,0.08 -0.02,0.17 l -0.14,1.06 h 0.54 l 0.12,-0.94 c 0.05,-0.38 0.15,-0.57 0.41,-0.57 0.17,0 0.25,0.1 0.25,0.28 0,0.02 0,0.08 -0.02,0.17 l -0.13,1.06 h 0.54 l 0.13,-1 c 0.02,-0.15 0.03,-0.28 0.03,-0.39 0,-0.36 -0.21,-0.57 -0.54,-0.57 -0.24,0 -0.42,0.12 -0.63,0.38 -0.09,-0.25 -0.27,-0.38 -0.53,-0.38 -0.24,0 -0.42,0.11 -0.61,0.36 l 0.04,-0.3 h -0.51 l -0.25,1.89 z"
               id="path1573" />
            <path
               class="e"
               d="m 20.66,45.8 c 0,0.4 -0.19,0.64 -0.51,0.64 -0.27,0 -0.43,-0.18 -0.43,-0.45 0,-0.42 0.2,-0.66 0.51,-0.66 0.28,0 0.43,0.17 0.43,0.47 m -1.34,-0.89 -0.36,2.76 h 0.54 l 0.11,-0.84 c 0,-0.06 0.02,-0.13 0.02,-0.19 0,-0.03 0,-0.05 0,-0.08 0.2,0.22 0.41,0.32 0.67,0.32 0.52,0 0.89,-0.46 0.89,-1.14 0,-0.57 -0.3,-0.89 -0.78,-0.89 -0.21,0 -0.41,0.09 -0.61,0.27 l 0.03,-0.21 h -0.52 z"
               id="path1575" />
            <path
               class="e"
               d="m 23.04,45.35 c 0.26,0 0.41,0.16 0.41,0.45 0,0.35 -0.23,0.59 -0.54,0.59 -0.26,0 -0.42,-0.17 -0.42,-0.44 0,-0.35 0.21,-0.59 0.54,-0.59 m 0,-0.5 c -0.64,0 -1.1,0.46 -1.1,1.1 0,0.56 0.37,0.93 0.96,0.93 0.67,0 1.12,-0.47 1.12,-1.09 0,-0.57 -0.38,-0.95 -0.98,-0.95"
               id="path1577" />
            <path
               class="e"
               d="m 25.53,44.91 h -0.55 l -0.09,0.69 c -0.04,0.28 -0.05,0.47 -0.05,0.58 0,0.41 0.33,0.7 0.88,0.7 0.32,0 0.57,-0.09 0.74,-0.26 0.2,-0.2 0.26,-0.49 0.31,-0.88 l 0.11,-0.83 h -0.55 l -0.1,0.76 c -0.07,0.5 -0.15,0.73 -0.5,0.73 -0.22,0 -0.34,-0.12 -0.34,-0.35 0,-0.09 0.02,-0.2 0.04,-0.34 l 0.1,-0.79 z"
               id="path1579" />
            <path
               class="e"
               d="m 29.81,45.66 c 0.08,-0.27 0.25,-0.41 0.51,-0.41 0.26,0 0.38,0.15 0.39,0.41 z m -0.03,0.32 h 1.43 c 0,-0.05 0,-0.11 0,-0.16 0,-0.61 -0.35,-0.97 -0.91,-0.97 -0.61,0 -1.07,0.45 -1.07,1.1 0,0.57 0.38,0.94 0.96,0.94 0.39,0 0.68,-0.14 0.87,-0.41 l -0.37,-0.31 c -0.14,0.18 -0.28,0.27 -0.48,0.27 -0.28,0 -0.45,-0.16 -0.45,-0.41 v -0.04 z"
               id="path1581" />
            <path
               class="e"
               d="m 31.97,46.81 h 0.55 l 0.12,-0.93 c 0.05,-0.39 0.22,-0.57 0.54,-0.57 0.19,0 0.29,0.1 0.29,0.28 0,0.04 0,0.09 -0.01,0.17 l -0.14,1.06 h 0.55 l 0.13,-1 c 0.02,-0.14 0.04,-0.27 0.04,-0.39 0,-0.36 -0.24,-0.57 -0.65,-0.57 -0.26,0 -0.48,0.12 -0.71,0.36 l 0.04,-0.3 h -0.51 l -0.25,1.89 z"
               id="path1583" />
            <path
               class="e"
               d="m 34.85,46.81 h 0.55 l 0.12,-0.93 c 0.05,-0.39 0.22,-0.57 0.54,-0.57 0.18,0 0.29,0.1 0.29,0.28 0,0.04 0,0.09 -0.01,0.17 l -0.14,1.06 h 0.55 l 0.13,-1 c 0.02,-0.14 0.04,-0.27 0.04,-0.39 0,-0.36 -0.24,-0.57 -0.65,-0.57 -0.26,0 -0.48,0.12 -0.71,0.36 l 0.04,-0.3 h -0.51 l -0.25,1.89 z"
               id="path1585" />
            <path
               class="e"
               d="m 39.37,46.81 h 0.54 l 0.12,-0.94 c 0.05,-0.37 0.15,-0.57 0.41,-0.57 0.16,0 0.24,0.1 0.24,0.28 0,0.02 0,0.08 -0.02,0.17 l -0.14,1.06 h 0.54 l 0.12,-0.94 c 0.05,-0.38 0.15,-0.57 0.41,-0.57 0.17,0 0.25,0.1 0.25,0.28 0,0.02 0,0.08 -0.02,0.17 l -0.13,1.06 h 0.54 l 0.13,-1 c 0.02,-0.15 0.04,-0.28 0.04,-0.39 0,-0.36 -0.21,-0.57 -0.54,-0.57 -0.24,0 -0.42,0.12 -0.63,0.38 -0.09,-0.25 -0.27,-0.38 -0.53,-0.38 -0.24,0 -0.42,0.11 -0.61,0.36 l 0.04,-0.3 h -0.51 l -0.25,1.89 z"
               id="path1587" />
            <path
               class="e"
               d="m 43.77,45.66 c 0.08,-0.27 0.25,-0.41 0.51,-0.41 0.26,0 0.38,0.15 0.39,0.41 h -0.89 z m -0.03,0.32 h 1.43 c 0,-0.05 0,-0.11 0,-0.16 0,-0.61 -0.35,-0.97 -0.91,-0.97 -0.61,0 -1.07,0.45 -1.07,1.1 0,0.57 0.38,0.94 0.96,0.94 0.39,0 0.68,-0.14 0.87,-0.41 l -0.37,-0.31 c -0.13,0.18 -0.28,0.27 -0.47,0.27 -0.28,0 -0.45,-0.16 -0.45,-0.41 v -0.04 z"
               id="path1589" />
            <path
               class="e"
               d="m 46.36,46.71 -0.52,0.96 h 0.62 l 1.5,-2.76 h -0.63 l -0.49,0.98 c -0.06,0.12 -0.1,0.24 -0.14,0.36 -0.02,-0.16 -0.04,-0.28 -0.05,-0.35 l -0.19,-1 h -0.59 l 0.49,1.8 z"
               id="path1591" />
            <path
               class="e"
               d="m 49.03,45.66 c 0.08,-0.27 0.25,-0.41 0.51,-0.41 0.26,0 0.38,0.15 0.39,0.41 H 49.04 Z M 49,45.98 h 1.43 c 0,-0.05 0,-0.11 0,-0.16 0,-0.61 -0.35,-0.97 -0.91,-0.97 -0.61,0 -1.07,0.45 -1.07,1.1 0,0.57 0.38,0.94 0.96,0.94 0.39,0 0.68,-0.14 0.87,-0.41 l -0.37,-0.31 c -0.14,0.18 -0.28,0.27 -0.48,0.27 -0.28,0 -0.45,-0.16 -0.45,-0.41 v -0.04 z"
               id="path1593" />
            <path
               class="e"
               d="m 51.19,46.81 h 0.55 L 51.84,46 c 0.05,-0.42 0.22,-0.62 0.51,-0.62 0.07,0 0.14,0.01 0.22,0.04 l 0.11,-0.55 c -0.06,-0.02 -0.11,-0.02 -0.17,-0.02 -0.23,0 -0.43,0.13 -0.57,0.4 l 0.05,-0.33 h -0.54 l -0.25,1.89 z"
               id="path1595" />
            <polygon
               class="e"
               points="55.81,43.81 55.27,43.81 54.87,46.81 55.42,46.81 55.55,45.77 56.25,46.81 56.87,46.81 56.14,45.75 57.08,44.91 56.4,44.91 55.56,45.72 "
               id="polygon1597" />
            <path
               class="e"
               d="m 59.02,45.75 c 0,0.39 -0.2,0.64 -0.49,0.64 -0.29,0 -0.46,-0.18 -0.46,-0.45 0,-0.42 0.2,-0.66 0.51,-0.66 0.27,0 0.43,0.18 0.43,0.47 m 0.38,1.05 0.25,-1.89 h -0.55 l -0.03,0.27 c -0.15,-0.23 -0.36,-0.33 -0.62,-0.33 -0.52,0 -0.91,0.46 -0.91,1.13 0,0.57 0.28,0.9 0.77,0.9 0.26,0 0.45,-0.1 0.58,-0.28 l -0.03,0.21 h 0.55 z"
               id="path1599" />
            <polygon
               class="e"
               points="60.94,46.81 61.33,43.81 60.79,43.81 60.39,46.81 "
               id="polygon1601" />
            <path
               class="e"
               d="m 62.25,44.18 c 0,0.18 0.14,0.32 0.32,0.32 0.18,0 0.32,-0.14 0.32,-0.32 0,-0.18 -0.14,-0.32 -0.32,-0.32 -0.18,0 -0.32,0.14 -0.32,0.32 m -0.29,2.63 h 0.55 l 0.24,-1.89 H 62.2 Z"
               id="path1603" />
            <polygon
               class="e"
               points="63.51,44.91 63.46,45.34 63.82,45.34 63.62,46.81 64.17,46.81 64.36,45.34 64.73,45.34 64.79,44.91 64.42,44.91 64.51,44.28 63.96,44.28 63.87,44.91 "
               id="polygon1605" />
            <path
               class="e"
               d="m 65.88,45.66 c 0.08,-0.27 0.25,-0.41 0.51,-0.41 0.26,0 0.38,0.15 0.39,0.41 h -0.89 z m -0.03,0.32 h 1.43 c 0,-0.05 0,-0.11 0,-0.16 0,-0.61 -0.35,-0.97 -0.91,-0.97 -0.61,0 -1.07,0.45 -1.07,1.1 0,0.57 0.38,0.94 0.96,0.94 0.39,0 0.68,-0.14 0.87,-0.41 l -0.37,-0.31 c -0.13,0.18 -0.28,0.27 -0.48,0.27 -0.28,0 -0.45,-0.16 -0.45,-0.41 v -0.04 z"
               id="path1607" />
            <polygon
               class="e"
               points="70.25,46.81 70.64,43.81 70.1,43.81 69.71,46.81 "
               id="polygon1609" />
            <path
               class="e"
               d="m 72.73,45.75 c 0,0.39 -0.2,0.64 -0.49,0.64 -0.29,0 -0.45,-0.18 -0.45,-0.45 0,-0.42 0.2,-0.66 0.51,-0.66 0.27,0 0.43,0.18 0.43,0.47 m 0.38,1.05 0.25,-1.89 h -0.55 l -0.03,0.27 c -0.15,-0.23 -0.36,-0.33 -0.62,-0.33 -0.52,0 -0.91,0.46 -0.91,1.13 0,0.57 0.28,0.9 0.77,0.9 0.26,0 0.45,-0.1 0.58,-0.28 l -0.03,0.21 h 0.55 z"
               id="path1611" />
            <path
               class="e"
               d="m 74.5,46.81 h 0.58 l 1.02,-1.89 h -0.63 l -0.49,0.98 c -0.05,0.1 -0.1,0.24 -0.15,0.42 v -0.04 c 0,-0.13 -0.01,-0.25 -0.04,-0.36 l -0.19,-1 h -0.59 l 0.48,1.89 z"
               id="path1613" />
            <path
               class="e"
               d="m 76.93,44.18 c 0,0.18 0.14,0.32 0.32,0.32 0.18,0 0.32,-0.14 0.32,-0.32 0,-0.18 -0.14,-0.32 -0.32,-0.32 -0.18,0 -0.32,0.14 -0.32,0.32 m -0.29,2.63 h 0.55 l 0.25,-1.89 h -0.55 z"
               id="path1615" />
            <path
               class="d"
               d="M 3.28,45.99 2.91,46.8 H 2.2 L 3.72,43.67 H 4.58 L 4.95,46.8 H 4.25 L 4.19,45.99 H 3.29 Z M 4.15,45.48 4.09,44.81 C 4.08,44.64 4.06,44.39 4.04,44.2 H 4.03 c -0.08,0.19 -0.17,0.43 -0.25,0.61 l -0.31,0.67 z"
               id="path1617" />
          </g>
        </g>
      </g>
    </g>
    <g
       id="g4930"
       transform="matrix(0.26458333,0,0,0.26458333,437.14181,257.23798)">
      <g
         id="b-3">
        <g
           id="c-8">
          <g
             id="g4607">
            <g
               class="cls-33"
               clip-path="url(#clippath)"
               id="g4557">
              <rect
                 class="cls-15"
                 x="87.779999"
                 y="8.0100002"
                 width="17.559999"
                 height="21.459999"
                 id="rect4555"
                 style="fill:url(#linearGradient4932)" />
            </g>
            <g
               class="cls-49"
               clip-path="url(#clippath-1)"
               id="g4561">
              <rect
                 class="cls-28"
                 x="124.54"
                 y="8.3900003"
                 width="11.49"
                 height="21.459999"
                 id="rect4559"
                 style="fill:url(#linear-gradient-2)" />
            </g>
            <g
               class="cls-10"
               clip-path="url(#clippath-2)"
               id="g4565">
              <rect
                 class="cls-42"
                 x="136.78999"
                 y="12.88"
                 width="15.4"
                 height="17"
                 id="rect4563"
                 style="fill:url(#linear-gradient-3)" />
            </g>
            <g
               class="cls-4"
               clip-path="url(#clippath-3)"
               id="g4569">
              <rect
                 class="cls-35"
                 x="154.2"
                 y="12.94"
                 width="12.7"
                 height="16.540001"
                 id="rect4567"
                 style="fill:url(#linear-gradient-4)" />
            </g>
            <g
               class="cls-18"
               clip-path="url(#clippath-4)"
               id="g4573">
              <rect
                 class="cls-7"
                 x="165.67"
                 y="12.94"
                 width="17.26"
                 height="22.26"
                 id="rect4571"
                 style="fill:url(#linear-gradient-5)" />
            </g>
            <g
               class="cls-32"
               clip-path="url(#clippath-5)"
               id="g4577">
              <rect
                 class="cls-8"
                 x="185.14"
                 y="12.94"
                 width="12.7"
                 height="16.540001"
                 id="rect4575"
                 style="fill:url(#linear-gradient-6)" />
            </g>
            <g
               class="cls-48"
               clip-path="url(#clippath-6)"
               id="g4581">
              <rect
                 class="cls-16"
                 x="197.64999"
                 y="6.2199998"
                 width="7.9699998"
                 height="23.25"
                 id="rect4579"
                 style="fill:url(#linear-gradient-7)" />
            </g>
            <g
               class="cls-22"
               clip-path="url(#clippath-7)"
               id="g4585">
              <rect
                 class="cls-14"
                 x="205.02"
                 y="12.88"
                 width="13.81"
                 height="17"
                 id="rect4583"
                 style="fill:url(#linear-gradient-8)" />
            </g>
            <g
               class="cls-23"
               clip-path="url(#clippath-8)"
               id="g4589">
              <rect
                 class="cls-24"
                 x="220.58"
                 y="12.88"
                 width="15.4"
                 height="17"
                 id="rect4587"
                 style="fill:url(#linear-gradient-9)" />
            </g>
            <g
               class="cls-37"
               clip-path="url(#clippath-9)"
               id="g4593">
              <rect
                 class="cls-26"
                 x="74.349998"
                 y="33.560001"
                 width="23.1"
                 height="25.959999"
                 id="rect4591"
                 style="fill:url(#linearGradient4934)" />
            </g>
            <g
               class="cls-27"
               clip-path="url(#clippath-10)"
               id="g4597">
              <rect
                 class="cls-34"
                 x="99.010002"
                 y="39.630001"
                 width="19.139999"
                 height="19.92"
                 id="rect4595"
                 style="fill:url(#linear-gradient-11)" />
            </g>
            <g
               class="cls-45"
               clip-path="url(#clippath-11)"
               id="g4601">
              <rect
                 class="cls-31"
                 x="121.29"
                 y="31.15"
                 width="119.13"
                 height="38.389999"
                 id="rect4599"
                 style="fill:url(#linear-gradient-12)" />
            </g>
            <g
               class="cls-21"
               clip-path="url(#clippath-12)"
               id="g4605">
              <rect
                 class="cls-51"
                 x="0"
                 y="0"
                 width="74.449997"
                 height="68.419998"
                 id="rect4603"
                 style="fill:url(#linearGradient4936)" />
            </g>
          </g>
        </g>
      </g>
      <g
         id="b-2"
         data-name="b">
        <g
           id="c-2"
           data-name="c">
          <g
             id="g4713">
            <g
               class="cls-2"
               clip-path="url(#clippath-13)"
               id="g4613">
              <rect
                 class="cls-17"
                 x="87.779999"
                 y="8.0100002"
                 width="17.559999"
                 height="21.459999"
                 id="rect4611"
                 style="fill:url(#linear-gradient-14)" />
            </g>
            <g
               class="cls-12"
               clip-path="url(#clippath-14)"
               id="g4617">
              <polyline
                 class="cls-13"
                 points="121.14 29.48 105.74 29.48 105.74 12.94 121.14 12.94"
                 id="polyline4615"
                 style="fill:url(#linear-gradient-15)" />
            </g>
            <g
               class="cls-20"
               clip-path="url(#clippath-15)"
               id="g4621">
              <rect
                 class="cls-30"
                 x="124.54"
                 y="8.3900003"
                 width="11.49"
                 height="21.459999"
                 id="rect4619"
                 style="fill:url(#linear-gradient-16)" />
            </g>
            <g
               class="cls-5"
               clip-path="url(#clippath-16)"
               id="g4625">
              <rect
                 class="cls-44"
                 x="136.78999"
                 y="12.88"
                 width="15.4"
                 height="17"
                 id="rect4623"
                 style="fill:url(#linear-gradient-17)" />
            </g>
            <g
               id="g4627" />
            <g
               class="cls-3"
               clip-path="url(#clippath-18)"
               id="g4631">
              <rect
                 class="cls-19"
                 x="165.67"
                 y="12.94"
                 width="17.26"
                 height="22.26"
                 id="rect4629"
                 style="fill:url(#linear-gradient-18)" />
            </g>
            <g
               class="cls-50"
               clip-path="url(#clippath-19)"
               id="g4635">
              <rect
                 class="cls-36"
                 x="185.14"
                 y="12.94"
                 width="12.7"
                 height="16.540001"
                 id="rect4633"
                 style="fill:url(#linear-gradient-19)" />
            </g>
            <g
               id="g4637" />
            <g
               class="cls-43"
               clip-path="url(#clippath-21)"
               id="g4641">
              <rect
                 class="cls-6"
                 x="205.02"
                 y="12.88"
                 width="13.81"
                 height="17"
                 id="rect4639"
                 style="fill:url(#linear-gradient-20)" />
            </g>
            <g
               class="cls-41"
               clip-path="url(#clippath-22)"
               id="g4645">
              <rect
                 class="cls-47"
                 x="220.58"
                 y="12.88"
                 width="15.4"
                 height="17"
                 id="rect4643"
                 style="fill:url(#linear-gradient-21)" />
            </g>
            <g
               class="cls-46"
               clip-path="url(#clippath-23)"
               id="g4649">
              <rect
                 class="cls-52"
                 x="74.349998"
                 y="33.560001"
                 width="23.1"
                 height="25.959999"
                 id="rect4647"
                 style="fill:url(#linear-gradient-22)" />
            </g>
            <g
               class="cls-25"
               clip-path="url(#clippath-24)"
               id="g4653">
              <rect
                 class="cls-11"
                 x="99.010002"
                 y="39.630001"
                 width="19.139999"
                 height="19.92"
                 id="rect4651"
                 style="fill:url(#linear-gradient-23)" />
            </g>
            <g
               class="cls-38"
               clip-path="url(#clippath-25)"
               id="g4657">
              <rect
                 class="cls-1"
                 x="121.37"
                 y="31.209999"
                 width="119.13"
                 height="38.389999"
                 id="rect4655"
                 style="fill:url(#linear-gradient-24)" />
            </g>
            <g
               class="cls-9"
               clip-path="url(#clippath-26)"
               id="g4661">
              <rect
                 class="cls-40"
                 width="74.449997"
                 height="68.419998"
                 id="rect4659"
                 x="0"
                 y="0"
                 style="fill:url(#linear-gradient-25)" />
            </g>
            <g
               id="g4711">
              <path
                 class="cls-29"
                 d="m 50.54,67.5 c 0.1,0 0.2,0 0.28,-0.01 0.08,0 0.16,-0.02 0.22,-0.03 l 0.45,-1.86 h 1.2 l -0.65,2.68 c -0.14,0.06 -0.35,0.11 -0.62,0.17 -0.27,0.05 -0.62,0.08 -1.04,0.08 -0.36,0 -0.68,-0.05 -0.95,-0.16 -0.28,-0.11 -0.51,-0.26 -0.69,-0.45 -0.18,-0.2 -0.32,-0.43 -0.42,-0.71 -0.09,-0.28 -0.14,-0.59 -0.14,-0.94 0,-0.4 0.07,-0.8 0.21,-1.2 0.14,-0.4 0.35,-0.75 0.63,-1.06 0.28,-0.31 0.62,-0.57 1.03,-0.76 0.41,-0.2 0.88,-0.29 1.42,-0.29 0.25,0 0.51,0.04 0.78,0.11 0.27,0.07 0.52,0.18 0.74,0.32 l -0.43,0.93 c -0.18,-0.11 -0.37,-0.2 -0.58,-0.25 -0.2,-0.06 -0.4,-0.08 -0.6,-0.08 -0.31,0 -0.59,0.06 -0.84,0.18 -0.24,0.12 -0.45,0.28 -0.62,0.48 -0.17,0.2 -0.3,0.44 -0.39,0.71 -0.09,0.27 -0.13,0.55 -0.13,0.85 0,0.45 0.09,0.78 0.28,0.99 0.19,0.21 0.47,0.31 0.84,0.31"
                 id="path4663" />
              <path
                 class="cls-29"
                 d="m 55.28,68.53 c -0.27,0 -0.51,-0.04 -0.71,-0.12 -0.2,-0.08 -0.37,-0.2 -0.5,-0.35 -0.13,-0.15 -0.23,-0.33 -0.3,-0.53 -0.07,-0.2 -0.1,-0.43 -0.1,-0.68 0,-0.31 0.05,-0.62 0.15,-0.93 0.1,-0.31 0.25,-0.59 0.44,-0.83 0.2,-0.25 0.43,-0.45 0.72,-0.61 0.28,-0.16 0.61,-0.23 0.97,-0.23 0.27,0 0.5,0.04 0.71,0.12 0.2,0.08 0.37,0.2 0.5,0.35 0.13,0.15 0.23,0.32 0.3,0.53 0.07,0.21 0.1,0.43 0.1,0.68 0,0.31 -0.05,0.62 -0.15,0.93 -0.1,0.31 -0.24,0.59 -0.43,0.83 -0.19,0.25 -0.43,0.45 -0.71,0.61 -0.29,0.16 -0.62,0.24 -0.99,0.24 m 0.57,-3.3 c -0.17,0 -0.32,0.05 -0.45,0.15 -0.13,0.1 -0.24,0.22 -0.32,0.37 -0.09,0.15 -0.15,0.31 -0.2,0.49 -0.04,0.18 -0.07,0.35 -0.07,0.51 0,0.26 0.04,0.46 0.12,0.61 0.08,0.14 0.23,0.21 0.45,0.21 0.17,0 0.32,-0.05 0.45,-0.15 0.13,-0.1 0.24,-0.22 0.32,-0.37 0.09,-0.15 0.15,-0.31 0.2,-0.49 0.04,-0.18 0.07,-0.35 0.07,-0.51 0,-0.26 -0.04,-0.46 -0.12,-0.61 -0.08,-0.14 -0.23,-0.21 -0.45,-0.21"
                 id="path4665" />
              <path
                 class="cls-29"
                 d="m 65.73,65.16 c 0,0.52 -0.08,0.99 -0.25,1.4 -0.17,0.41 -0.41,0.76 -0.73,1.04 -0.32,0.29 -0.7,0.51 -1.15,0.66 -0.45,0.15 -0.97,0.23 -1.54,0.23 -0.22,0 -0.47,-0.01 -0.75,-0.04 -0.28,-0.03 -0.56,-0.07 -0.82,-0.12 l 1.24,-5.16 c 0.29,-0.06 0.57,-0.1 0.85,-0.12 0.27,-0.02 0.51,-0.04 0.73,-0.04 0.38,0 0.72,0.05 1.02,0.15 0.3,0.1 0.56,0.25 0.76,0.44 0.21,0.19 0.37,0.42 0.48,0.68 0.11,0.26 0.16,0.55 0.16,0.87 m -3.83,2.3 c 0.06,0 0.11,0.01 0.17,0.01 h 0.24 c 0.33,0 0.64,-0.05 0.91,-0.15 0.27,-0.1 0.5,-0.25 0.69,-0.44 0.19,-0.19 0.33,-0.43 0.44,-0.71 0.1,-0.28 0.15,-0.6 0.15,-0.95 0,-0.18 -0.02,-0.34 -0.07,-0.49 -0.05,-0.15 -0.12,-0.27 -0.23,-0.38 -0.11,-0.11 -0.24,-0.19 -0.41,-0.24 -0.17,-0.06 -0.37,-0.08 -0.61,-0.08 -0.15,0 -0.31,0 -0.47,0.02 l -0.82,3.41 z"
                 id="path4667" />
              <path
                 class="cls-29"
                 d="m 67.5,68.42 h -1.14 l 0.97,-4.06 h 1.15 l -0.97,4.06 z m 0.56,-4.55 c -0.16,0 -0.3,-0.05 -0.43,-0.14 -0.13,-0.09 -0.19,-0.24 -0.19,-0.44 0,-0.11 0.02,-0.21 0.06,-0.3 0.04,-0.1 0.1,-0.18 0.17,-0.25 0.07,-0.07 0.16,-0.12 0.25,-0.17 0.1,-0.04 0.2,-0.06 0.3,-0.06 0.16,0 0.3,0.05 0.43,0.14 0.13,0.1 0.19,0.24 0.19,0.44 0,0.11 -0.02,0.21 -0.07,0.3 -0.04,0.1 -0.1,0.18 -0.17,0.25 -0.07,0.07 -0.16,0.12 -0.25,0.17 -0.1,0.04 -0.2,0.06 -0.3,0.06"
                 id="path4669" />
              <path
                 class="cls-29"
                 d="m 72.41,67.91 c -0.08,0.33 -0.18,0.62 -0.3,0.87 -0.13,0.24 -0.28,0.45 -0.47,0.61 -0.19,0.16 -0.41,0.28 -0.67,0.36 -0.26,0.08 -0.57,0.12 -0.92,0.12 -0.32,0 -0.6,-0.03 -0.82,-0.09 -0.22,-0.06 -0.42,-0.13 -0.6,-0.22 l 0.39,-0.91 c 0.16,0.07 0.33,0.14 0.5,0.18 0.17,0.05 0.38,0.08 0.64,0.08 0.33,0 0.58,-0.07 0.74,-0.22 0.17,-0.15 0.28,-0.34 0.33,-0.57 l 0.03,-0.15 c -0.1,0.05 -0.21,0.09 -0.33,0.12 -0.12,0.03 -0.24,0.05 -0.37,0.05 -0.24,0 -0.45,-0.04 -0.62,-0.11 -0.17,-0.07 -0.32,-0.18 -0.43,-0.31 -0.11,-0.13 -0.19,-0.29 -0.25,-0.48 -0.05,-0.18 -0.08,-0.38 -0.08,-0.6 0,-0.39 0.07,-0.74 0.22,-1.04 0.14,-0.3 0.34,-0.55 0.57,-0.75 0.24,-0.2 0.51,-0.35 0.83,-0.45 0.31,-0.1 0.64,-0.15 0.98,-0.15 0.25,0 0.49,0.03 0.73,0.08 0.24,0.05 0.48,0.13 0.71,0.24 l -0.79,3.34 z M 71.9,65.25 c -0.09,-0.02 -0.2,-0.03 -0.32,-0.03 -0.2,0 -0.37,0.04 -0.53,0.1 -0.15,0.07 -0.29,0.16 -0.4,0.28 -0.11,0.12 -0.19,0.26 -0.25,0.43 -0.06,0.17 -0.09,0.35 -0.09,0.54 0,0.09 0,0.18 0.02,0.26 0.01,0.08 0.04,0.15 0.08,0.21 0.04,0.06 0.1,0.11 0.17,0.14 0.07,0.04 0.16,0.05 0.27,0.05 0.07,0 0.17,-0.01 0.29,-0.04 0.12,-0.03 0.23,-0.08 0.33,-0.18 l 0.42,-1.77 h 0.01 z"
                 id="path4671" />
              <path
                 class="cls-29"
                 d="m 74.78,68.42 h -1.14 l 0.97,-4.06 h 1.15 l -0.97,4.06 z m 0.56,-4.55 c -0.16,0 -0.3,-0.05 -0.43,-0.14 -0.13,-0.09 -0.19,-0.24 -0.19,-0.44 0,-0.11 0.02,-0.21 0.06,-0.3 0.04,-0.1 0.1,-0.18 0.17,-0.25 0.07,-0.07 0.16,-0.12 0.25,-0.17 0.1,-0.04 0.2,-0.06 0.3,-0.06 0.16,0 0.3,0.05 0.43,0.14 0.13,0.1 0.19,0.24 0.19,0.44 0,0.11 -0.02,0.21 -0.07,0.3 -0.04,0.1 -0.1,0.18 -0.17,0.25 -0.07,0.07 -0.16,0.12 -0.25,0.17 -0.1,0.04 -0.2,0.06 -0.3,0.06"
                 id="path4673" />
              <path
                 class="cls-29"
                 d="m 77.29,63.35 1.2,-0.18 -0.29,1.2 h 1.28 l -0.23,0.94 h -1.27 l -0.34,1.42 c -0.03,0.12 -0.05,0.23 -0.06,0.33 0,0.1 0,0.19 0.04,0.27 0.03,0.07 0.09,0.13 0.17,0.17 0.08,0.04 0.2,0.06 0.34,0.06 0.12,0 0.24,-0.01 0.36,-0.04 0.12,-0.02 0.23,-0.05 0.35,-0.1 l 0.08,0.88 c -0.15,0.06 -0.32,0.11 -0.5,0.15 -0.18,0.04 -0.39,0.06 -0.64,0.06 -0.36,0 -0.63,-0.05 -0.83,-0.16 -0.2,-0.11 -0.33,-0.25 -0.42,-0.43 -0.08,-0.18 -0.12,-0.39 -0.11,-0.63 0.01,-0.24 0.05,-0.49 0.11,-0.75 l 0.76,-3.2 v 0 z"
                 id="path4675" />
              <path
                 class="cls-29"
                 d="m 83.41,66.67 c -0.07,0.29 -0.09,0.59 -0.06,0.88 0.03,0.3 0.09,0.56 0.18,0.79 l -1.03,0.15 -0.09,-0.18 c -0.03,-0.06 -0.05,-0.12 -0.08,-0.19 -0.14,0.12 -0.3,0.22 -0.48,0.29 -0.17,0.08 -0.37,0.12 -0.59,0.12 -0.26,0 -0.48,-0.05 -0.66,-0.14 -0.18,-0.09 -0.33,-0.21 -0.45,-0.36 -0.12,-0.15 -0.2,-0.33 -0.25,-0.53 -0.05,-0.2 -0.08,-0.42 -0.08,-0.65 0,-0.36 0.06,-0.69 0.19,-1 0.13,-0.31 0.3,-0.59 0.52,-0.82 0.22,-0.23 0.49,-0.42 0.79,-0.55 0.3,-0.13 0.63,-0.2 0.99,-0.2 h 0.24 c 0.11,0 0.25,0.02 0.4,0.04 0.15,0.02 0.31,0.05 0.47,0.09 0.17,0.04 0.32,0.1 0.47,0.17 l -0.5,2.1 h 0.02 z m -0.8,-1.43 c -0.07,0 -0.13,-0.02 -0.18,-0.02 h -0.2 c -0.17,0 -0.34,0.04 -0.49,0.13 -0.15,0.09 -0.29,0.2 -0.4,0.34 -0.11,0.14 -0.2,0.31 -0.27,0.49 -0.07,0.18 -0.1,0.38 -0.1,0.58 0,0.25 0.04,0.44 0.12,0.59 0.08,0.14 0.23,0.21 0.46,0.21 0.12,0 0.23,-0.02 0.32,-0.07 0.1,-0.05 0.2,-0.12 0.3,-0.23 0.01,-0.13 0.03,-0.26 0.05,-0.41 0.02,-0.14 0.05,-0.27 0.07,-0.39 l 0.3,-1.22 z"
                 id="path4677" />
              <path
                 class="cls-29"
                 d="m 86.19,68.5 c -0.37,0 -0.65,-0.05 -0.86,-0.14 -0.21,-0.09 -0.36,-0.23 -0.45,-0.39 -0.09,-0.17 -0.13,-0.35 -0.13,-0.57 0,-0.22 0.03,-0.44 0.09,-0.68 l 0.98,-4.1 1.2,-0.18 -1.07,4.44 c -0.02,0.09 -0.03,0.18 -0.04,0.25 0,0.08 0.01,0.15 0.04,0.2 0.03,0.06 0.08,0.11 0.16,0.14 0.08,0.04 0.18,0.06 0.31,0.07 l -0.23,0.95 v 0 z"
                 id="path4679" />
              <path
                 class="cls-29"
                 d="m 88.77,67.25 c -0.02,0.45 -0.13,0.87 -0.34,1.27 -0.21,0.4 -0.46,0.79 -0.76,1.16 l -0.84,-0.22 c 0.2,-0.34 0.36,-0.69 0.49,-1.06 0.13,-0.37 0.21,-0.75 0.24,-1.15 z"
                 id="path4681" />
              <polygon
                 class="cls-29"
                 points="96.54,64.06 94.24,64.06 94,65.14 96.02,65.14 95.78,66.11 93.76,66.11 93.45,67.43 95.92,67.43 95.67,68.42 92.01,68.42 93.29,63.07 96.78,63.07 "
                 id="polygon4683" />
              <path
                 class="cls-29"
                 d="m 97.85,64.55 c 0.09,-0.02 0.18,-0.05 0.28,-0.09 0.1,-0.03 0.21,-0.06 0.34,-0.09 0.12,-0.03 0.27,-0.05 0.42,-0.07 0.16,-0.02 0.34,-0.03 0.54,-0.03 0.25,0 0.45,0.03 0.61,0.09 0.16,0.06 0.31,0.15 0.44,0.28 0.19,-0.11 0.38,-0.2 0.57,-0.27 0.19,-0.07 0.41,-0.11 0.66,-0.11 0.25,0 0.45,0.03 0.62,0.1 0.17,0.06 0.32,0.16 0.43,0.28 0.11,0.12 0.2,0.26 0.25,0.43 0.05,0.17 0.08,0.35 0.08,0.55 0,0.09 0,0.19 -0.02,0.29 -0.02,0.1 -0.03,0.21 -0.06,0.31 l -0.52,2.19 h -1.15 l 0.51,-2.15 c 0.02,-0.07 0.03,-0.15 0.05,-0.24 0.02,-0.09 0.03,-0.18 0.03,-0.27 0,-0.14 -0.03,-0.27 -0.1,-0.38 -0.07,-0.1 -0.2,-0.16 -0.39,-0.16 -0.11,0 -0.21,0.02 -0.31,0.06 -0.1,0.04 -0.19,0.08 -0.26,0.12 0.01,0.04 0.02,0.08 0.02,0.12 v 0.1 c 0,0.09 0,0.19 -0.02,0.29 -0.01,0.1 -0.03,0.21 -0.06,0.31 l -0.52,2.19 h -1.15 l 0.51,-2.15 c 0.02,-0.07 0.03,-0.15 0.05,-0.24 0.02,-0.09 0.03,-0.18 0.03,-0.27 0,-0.14 -0.03,-0.27 -0.1,-0.38 -0.07,-0.1 -0.2,-0.16 -0.39,-0.16 -0.08,0 -0.15,0 -0.21,0.01 -0.06,0 -0.12,0.02 -0.2,0.03 l -0.75,3.14 h -1.15 l 0.93,-3.87 v 0.04 z"
                 id="path4685" />
              <path
                 class="cls-29"
                 d="m 106.5,64.28 c 0.25,0 0.46,0.04 0.64,0.13 0.18,0.09 0.33,0.21 0.45,0.36 0.12,0.15 0.21,0.32 0.26,0.52 0.06,0.2 0.09,0.42 0.09,0.65 0,0.36 -0.07,0.69 -0.2,1.01 -0.13,0.32 -0.31,0.59 -0.54,0.83 -0.23,0.23 -0.49,0.42 -0.8,0.56 -0.31,0.14 -0.64,0.2 -1,0.2 h -0.24 c -0.11,0 -0.25,-0.01 -0.4,-0.04 -0.15,-0.02 -0.31,-0.05 -0.47,-0.09 -0.17,-0.04 -0.33,-0.1 -0.47,-0.17 l 1.33,-5.61 1.2,-0.18 -0.48,1.99 c 0.1,-0.05 0.21,-0.08 0.31,-0.11 0.1,-0.03 0.21,-0.04 0.33,-0.04 m -1,3.3 c 0.18,0 0.35,-0.04 0.51,-0.13 0.16,-0.09 0.3,-0.2 0.41,-0.35 0.12,-0.15 0.21,-0.31 0.27,-0.5 0.06,-0.19 0.1,-0.38 0.1,-0.58 0,-0.25 -0.04,-0.44 -0.12,-0.58 -0.08,-0.14 -0.23,-0.21 -0.45,-0.21 -0.07,0 -0.17,0.01 -0.28,0.04 -0.11,0.03 -0.22,0.08 -0.31,0.16 l -0.51,2.11 c 0,0 0.06,0.01 0.08,0.02 0.02,0 0.05,0 0.07,0.01 h 0.23 z"
                 id="path4687" />
              <path
                 class="cls-29"
                 d="m 111.71,65.35 c -0.1,-0.03 -0.2,-0.05 -0.31,-0.07 -0.1,-0.02 -0.25,-0.03 -0.44,-0.03 -0.07,0 -0.15,0 -0.24,0.02 -0.09,0.01 -0.16,0.03 -0.22,0.04 l -0.75,3.12 h -1.15 l 0.93,-3.84 c 0.22,-0.07 0.47,-0.14 0.74,-0.2 0.28,-0.07 0.59,-0.1 0.93,-0.1 0.13,0 0.27,0.01 0.43,0.04 0.16,0.02 0.29,0.06 0.41,0.11 l -0.34,0.93 v -0.02 z"
                 id="path4689" />
              <path
                 class="cls-29"
                 d="m 115.94,66.67 c -0.07,0.29 -0.09,0.59 -0.06,0.88 0.03,0.3 0.09,0.56 0.18,0.79 l -1.03,0.15 -0.09,-0.18 c -0.03,-0.06 -0.05,-0.12 -0.08,-0.19 -0.14,0.12 -0.3,0.22 -0.48,0.29 -0.17,0.08 -0.37,0.12 -0.59,0.12 -0.26,0 -0.48,-0.05 -0.66,-0.14 -0.18,-0.09 -0.33,-0.21 -0.45,-0.36 -0.11,-0.15 -0.2,-0.33 -0.25,-0.53 -0.05,-0.2 -0.08,-0.42 -0.08,-0.65 0,-0.36 0.06,-0.69 0.19,-1 0.13,-0.31 0.3,-0.59 0.52,-0.82 0.22,-0.23 0.49,-0.42 0.79,-0.55 0.3,-0.13 0.63,-0.2 0.99,-0.2 h 0.24 c 0.11,0 0.25,0.02 0.4,0.04 0.15,0.02 0.31,0.05 0.47,0.09 0.17,0.04 0.32,0.1 0.47,0.17 l -0.5,2.1 h 0.02 z m -0.8,-1.43 c -0.07,0 -0.13,-0.02 -0.18,-0.02 h -0.2 c -0.17,0 -0.34,0.04 -0.49,0.13 -0.15,0.09 -0.29,0.2 -0.4,0.34 -0.11,0.14 -0.2,0.31 -0.27,0.49 -0.07,0.18 -0.1,0.38 -0.1,0.58 0,0.25 0.04,0.44 0.12,0.59 0.08,0.14 0.23,0.21 0.46,0.21 0.12,0 0.23,-0.02 0.32,-0.07 0.1,-0.05 0.2,-0.12 0.3,-0.23 0.01,-0.13 0.03,-0.26 0.05,-0.41 0.02,-0.14 0.05,-0.27 0.07,-0.39 l 0.3,-1.22 z"
                 id="path4691" />
              <path
                 class="cls-29"
                 d="m 117.26,66.8 c 0,-0.35 0.06,-0.68 0.17,-0.99 0.11,-0.31 0.28,-0.58 0.49,-0.81 0.21,-0.23 0.47,-0.41 0.77,-0.55 0.3,-0.13 0.64,-0.2 1.01,-0.2 0.23,0 0.44,0.02 0.62,0.07 0.18,0.04 0.35,0.1 0.5,0.17 l -0.39,0.89 c -0.1,-0.04 -0.21,-0.08 -0.32,-0.11 -0.11,-0.03 -0.24,-0.05 -0.4,-0.05 -0.39,0 -0.69,0.13 -0.91,0.39 -0.22,0.26 -0.33,0.61 -0.33,1.06 0,0.26 0.06,0.48 0.17,0.64 0.11,0.16 0.32,0.24 0.62,0.24 0.15,0 0.29,-0.01 0.43,-0.05 0.14,-0.03 0.26,-0.07 0.37,-0.12 l 0.08,0.92 c -0.14,0.06 -0.3,0.11 -0.47,0.15 -0.17,0.04 -0.38,0.07 -0.63,0.07 -0.32,0 -0.59,-0.05 -0.81,-0.14 -0.22,-0.09 -0.4,-0.22 -0.55,-0.37 -0.14,-0.16 -0.25,-0.34 -0.31,-0.55 -0.07,-0.21 -0.1,-0.43 -0.1,-0.66"
                 id="path4693" />
              <path
                 class="cls-29"
                 d="m 121.14,66.83 c 0,-0.33 0.06,-0.65 0.17,-0.96 0.12,-0.31 0.28,-0.58 0.49,-0.82 0.21,-0.24 0.47,-0.43 0.77,-0.58 0.3,-0.15 0.63,-0.22 1,-0.22 0.18,0 0.35,0.03 0.5,0.08 0.15,0.05 0.29,0.13 0.4,0.22 0.12,0.1 0.21,0.22 0.27,0.36 0.06,0.14 0.1,0.3 0.1,0.48 0,0.29 -0.06,0.53 -0.19,0.73 -0.13,0.2 -0.31,0.36 -0.54,0.49 -0.23,0.13 -0.5,0.22 -0.81,0.27 -0.31,0.06 -0.66,0.08 -1.03,0.08 0.04,0.22 0.11,0.37 0.24,0.46 0.12,0.09 0.31,0.14 0.57,0.14 0.17,0 0.33,-0.01 0.5,-0.04 0.17,-0.03 0.33,-0.07 0.48,-0.13 l 0.08,0.9 c -0.14,0.06 -0.33,0.11 -0.55,0.15 -0.22,0.04 -0.47,0.07 -0.73,0.07 -0.32,0 -0.59,-0.05 -0.81,-0.14 -0.22,-0.09 -0.4,-0.21 -0.53,-0.37 -0.14,-0.15 -0.23,-0.33 -0.3,-0.54 -0.06,-0.21 -0.09,-0.42 -0.09,-0.65 m 2.25,-1.67 c -0.26,0 -0.49,0.09 -0.69,0.28 -0.2,0.19 -0.33,0.44 -0.39,0.74 0.32,0 0.58,-0.04 0.77,-0.08 0.2,-0.04 0.35,-0.1 0.46,-0.16 0.11,-0.06 0.18,-0.13 0.22,-0.2 0.04,-0.07 0.05,-0.14 0.05,-0.22 0,-0.25 -0.14,-0.37 -0.42,-0.37"
                 id="path4695" />
              <path
                 class="cls-29"
                 d="m 129.11,67.53 c 0.12,0 0.24,0 0.35,-0.03 0.12,-0.02 0.22,-0.05 0.32,-0.1 0.09,-0.04 0.17,-0.11 0.23,-0.2 0.06,-0.09 0.09,-0.19 0.09,-0.33 0,-0.1 -0.03,-0.19 -0.08,-0.27 -0.06,-0.07 -0.13,-0.14 -0.22,-0.2 -0.09,-0.06 -0.18,-0.12 -0.29,-0.17 -0.11,-0.05 -0.22,-0.11 -0.32,-0.17 -0.14,-0.08 -0.27,-0.17 -0.39,-0.26 -0.12,-0.09 -0.23,-0.2 -0.32,-0.31 -0.09,-0.11 -0.16,-0.24 -0.21,-0.38 -0.05,-0.14 -0.08,-0.31 -0.08,-0.49 0,-0.24 0.05,-0.46 0.14,-0.66 0.09,-0.2 0.22,-0.38 0.4,-0.53 0.18,-0.15 0.4,-0.27 0.67,-0.35 0.27,-0.09 0.58,-0.13 0.94,-0.13 0.16,0 0.32,0.02 0.48,0.04 0.15,0.03 0.3,0.06 0.43,0.11 0.13,0.04 0.26,0.09 0.37,0.14 0.11,0.05 0.2,0.11 0.28,0.16 l -0.5,0.89 c -0.13,-0.1 -0.29,-0.18 -0.47,-0.25 -0.19,-0.07 -0.39,-0.1 -0.6,-0.1 -0.12,0 -0.23,0 -0.34,0.03 -0.11,0.03 -0.2,0.06 -0.29,0.11 -0.08,0.05 -0.15,0.11 -0.2,0.19 -0.05,0.08 -0.07,0.17 -0.07,0.29 0,0.1 0.02,0.19 0.06,0.26 0.04,0.07 0.09,0.13 0.15,0.18 0.06,0.05 0.13,0.1 0.22,0.14 0.08,0.04 0.17,0.09 0.26,0.13 0.16,0.08 0.31,0.17 0.46,0.26 0.15,0.09 0.28,0.2 0.39,0.32 0.11,0.12 0.2,0.26 0.27,0.41 0.07,0.15 0.1,0.34 0.1,0.55 0,0.29 -0.05,0.55 -0.16,0.76 -0.11,0.22 -0.26,0.4 -0.46,0.54 -0.2,0.14 -0.43,0.25 -0.7,0.32 -0.27,0.07 -0.57,0.1 -0.9,0.1 -0.22,0 -0.42,-0.02 -0.61,-0.05 -0.19,-0.04 -0.36,-0.08 -0.51,-0.13 -0.15,-0.05 -0.28,-0.1 -0.39,-0.16 -0.11,-0.06 -0.2,-0.11 -0.27,-0.15 l 0.51,-0.92 c 0.06,0.04 0.14,0.09 0.22,0.13 0.09,0.05 0.19,0.09 0.3,0.13 0.11,0.04 0.23,0.08 0.35,0.1 0.12,0.03 0.25,0.04 0.39,0.04"
                 id="path4697" />
              <path
                 class="cls-29"
                 d="m 136.5,64.36 -0.55,2.31 c -0.07,0.29 -0.09,0.59 -0.06,0.88 0.03,0.3 0.09,0.56 0.18,0.79 l -1.03,0.15 c -0.06,-0.11 -0.11,-0.24 -0.16,-0.38 -0.14,0.11 -0.31,0.21 -0.49,0.29 -0.18,0.08 -0.38,0.12 -0.6,0.12 -0.3,0 -0.55,-0.06 -0.74,-0.17 -0.19,-0.11 -0.33,-0.26 -0.42,-0.44 -0.09,-0.18 -0.14,-0.39 -0.15,-0.63 0,-0.24 0.02,-0.48 0.08,-0.73 l 0.52,-2.19 h 1.15 l -0.52,2.18 c -0.03,0.11 -0.05,0.23 -0.07,0.35 -0.02,0.12 -0.02,0.23 0,0.33 0.02,0.1 0.06,0.18 0.12,0.25 0.06,0.07 0.17,0.1 0.31,0.1 0.12,0 0.23,-0.02 0.33,-0.07 0.1,-0.04 0.21,-0.12 0.32,-0.23 0,-0.13 0.03,-0.26 0.05,-0.4 0.02,-0.14 0.05,-0.27 0.07,-0.39 l 0.5,-2.11 h 1.16 z"
                 id="path4699" />
              <path
                 class="cls-29"
                 d="m 137.33,66.8 c 0,-0.35 0.06,-0.68 0.17,-0.99 0.11,-0.31 0.28,-0.58 0.49,-0.81 0.21,-0.23 0.47,-0.41 0.77,-0.55 0.3,-0.13 0.64,-0.2 1.01,-0.2 0.23,0 0.44,0.02 0.62,0.07 0.18,0.04 0.35,0.1 0.5,0.17 l -0.39,0.89 c -0.1,-0.04 -0.21,-0.08 -0.32,-0.11 -0.11,-0.03 -0.25,-0.05 -0.4,-0.05 -0.39,0 -0.69,0.13 -0.91,0.39 -0.22,0.26 -0.33,0.61 -0.33,1.06 0,0.26 0.06,0.48 0.17,0.64 0.11,0.16 0.32,0.24 0.62,0.24 0.15,0 0.29,-0.01 0.43,-0.05 0.14,-0.04 0.26,-0.07 0.37,-0.12 l 0.08,0.92 c -0.14,0.06 -0.3,0.11 -0.47,0.15 -0.17,0.04 -0.38,0.07 -0.63,0.07 -0.32,0 -0.59,-0.05 -0.81,-0.14 -0.22,-0.09 -0.4,-0.22 -0.55,-0.37 -0.14,-0.16 -0.25,-0.34 -0.31,-0.55 -0.07,-0.21 -0.1,-0.43 -0.1,-0.66"
                 id="path4701" />
              <path
                 class="cls-29"
                 d="m 141.2,66.8 c 0,-0.35 0.06,-0.68 0.17,-0.99 0.11,-0.31 0.27,-0.58 0.49,-0.81 0.21,-0.23 0.47,-0.41 0.77,-0.55 0.3,-0.13 0.64,-0.2 1.01,-0.2 0.23,0 0.44,0.02 0.62,0.07 0.18,0.04 0.35,0.1 0.5,0.17 l -0.39,0.89 c -0.1,-0.04 -0.21,-0.08 -0.32,-0.11 -0.11,-0.03 -0.25,-0.05 -0.4,-0.05 -0.39,0 -0.69,0.13 -0.91,0.39 -0.22,0.26 -0.33,0.61 -0.33,1.06 0,0.26 0.06,0.48 0.17,0.64 0.11,0.16 0.32,0.24 0.62,0.24 0.15,0 0.29,-0.01 0.43,-0.05 0.14,-0.04 0.26,-0.07 0.37,-0.12 l 0.08,0.92 c -0.14,0.06 -0.3,0.11 -0.47,0.15 -0.17,0.04 -0.38,0.07 -0.63,0.07 -0.32,0 -0.59,-0.05 -0.81,-0.14 -0.22,-0.09 -0.4,-0.22 -0.55,-0.37 -0.14,-0.16 -0.25,-0.34 -0.31,-0.55 -0.07,-0.21 -0.1,-0.43 -0.1,-0.66"
                 id="path4703" />
              <path
                 class="cls-29"
                 d="m 145.08,66.83 c 0,-0.33 0.06,-0.65 0.17,-0.96 0.12,-0.31 0.28,-0.58 0.49,-0.82 0.21,-0.24 0.47,-0.43 0.77,-0.58 0.3,-0.15 0.63,-0.22 1,-0.22 0.18,0 0.35,0.03 0.5,0.08 0.15,0.05 0.29,0.13 0.4,0.22 0.11,0.09 0.21,0.22 0.27,0.36 0.06,0.14 0.1,0.3 0.1,0.48 0,0.29 -0.06,0.53 -0.19,0.73 -0.13,0.2 -0.31,0.36 -0.54,0.49 -0.23,0.13 -0.5,0.22 -0.81,0.27 -0.31,0.06 -0.66,0.08 -1.03,0.08 0.04,0.22 0.11,0.37 0.24,0.46 0.12,0.09 0.31,0.14 0.57,0.14 0.17,0 0.33,-0.01 0.5,-0.04 0.17,-0.03 0.33,-0.07 0.48,-0.13 l 0.08,0.9 c -0.14,0.06 -0.33,0.11 -0.55,0.15 -0.22,0.04 -0.47,0.07 -0.73,0.07 -0.32,0 -0.59,-0.05 -0.81,-0.14 -0.22,-0.09 -0.4,-0.21 -0.53,-0.37 -0.14,-0.15 -0.23,-0.33 -0.3,-0.54 -0.06,-0.21 -0.09,-0.42 -0.09,-0.65 m 2.25,-1.67 c -0.26,0 -0.49,0.09 -0.69,0.28 -0.2,0.19 -0.33,0.44 -0.39,0.74 0.32,0 0.58,-0.04 0.77,-0.08 0.2,-0.04 0.35,-0.1 0.46,-0.16 0.11,-0.06 0.18,-0.13 0.22,-0.2 0.04,-0.07 0.05,-0.14 0.05,-0.22 0,-0.25 -0.14,-0.37 -0.42,-0.37"
                 id="path4705" />
              <path
                 class="cls-29"
                 d="m 150.62,67.6 c 0.26,0 0.44,-0.04 0.54,-0.11 0.1,-0.07 0.15,-0.16 0.15,-0.24 0,-0.06 0,-0.11 -0.03,-0.15 -0.02,-0.04 -0.05,-0.08 -0.09,-0.12 -0.04,-0.04 -0.1,-0.07 -0.17,-0.11 -0.07,-0.04 -0.16,-0.08 -0.28,-0.14 -0.13,-0.06 -0.25,-0.12 -0.36,-0.18 -0.11,-0.07 -0.21,-0.14 -0.3,-0.23 -0.09,-0.09 -0.15,-0.19 -0.2,-0.31 -0.05,-0.12 -0.07,-0.25 -0.07,-0.41 0,-0.42 0.15,-0.75 0.46,-0.99 0.31,-0.24 0.75,-0.36 1.34,-0.36 0.28,0 0.52,0.03 0.74,0.09 0.22,0.06 0.39,0.13 0.52,0.2 l -0.39,0.86 c -0.11,-0.06 -0.25,-0.11 -0.42,-0.16 -0.17,-0.05 -0.34,-0.08 -0.5,-0.08 -0.07,0 -0.14,0 -0.21,0.01 -0.07,0 -0.13,0.02 -0.19,0.05 -0.06,0.03 -0.11,0.06 -0.14,0.11 -0.04,0.05 -0.05,0.11 -0.05,0.19 0,0.1 0.04,0.18 0.12,0.23 0.08,0.05 0.19,0.11 0.34,0.18 0.2,0.1 0.37,0.19 0.5,0.27 0.13,0.08 0.24,0.17 0.32,0.26 0.08,0.09 0.14,0.2 0.17,0.32 0.04,0.12 0.05,0.26 0.05,0.42 0,0.16 -0.03,0.33 -0.1,0.49 -0.07,0.16 -0.18,0.3 -0.33,0.42 -0.15,0.12 -0.34,0.22 -0.57,0.3 -0.23,0.08 -0.51,0.12 -0.83,0.12 -0.2,0 -0.38,-0.01 -0.54,-0.04 -0.16,-0.03 -0.3,-0.06 -0.43,-0.1 -0.12,-0.04 -0.23,-0.08 -0.31,-0.12 -0.09,-0.04 -0.15,-0.07 -0.2,-0.1 l 0.39,-0.88 c 0.09,0.05 0.22,0.12 0.41,0.19 0.18,0.08 0.41,0.12 0.67,0.12"
                 id="path4707" />
              <path
                 class="cls-29"
                 d="m 154.71,67.6 c 0.26,0 0.44,-0.04 0.54,-0.11 0.1,-0.07 0.15,-0.16 0.15,-0.24 0,-0.06 0,-0.11 -0.03,-0.15 -0.02,-0.04 -0.05,-0.08 -0.09,-0.12 -0.04,-0.04 -0.1,-0.07 -0.17,-0.11 -0.07,-0.04 -0.16,-0.08 -0.28,-0.14 -0.13,-0.06 -0.25,-0.12 -0.36,-0.18 -0.11,-0.07 -0.21,-0.14 -0.3,-0.23 -0.09,-0.09 -0.15,-0.19 -0.2,-0.31 -0.05,-0.12 -0.07,-0.25 -0.07,-0.41 0,-0.42 0.15,-0.75 0.46,-0.99 0.31,-0.24 0.75,-0.36 1.34,-0.36 0.28,0 0.52,0.03 0.74,0.09 0.22,0.06 0.39,0.13 0.52,0.2 l -0.39,0.86 c -0.11,-0.06 -0.25,-0.11 -0.42,-0.16 -0.17,-0.05 -0.34,-0.08 -0.5,-0.08 -0.07,0 -0.14,0 -0.21,0.01 -0.07,0 -0.13,0.02 -0.19,0.05 -0.06,0.03 -0.11,0.06 -0.14,0.11 -0.04,0.05 -0.05,0.11 -0.05,0.19 0,0.1 0.04,0.18 0.12,0.23 0.08,0.05 0.19,0.11 0.34,0.18 0.2,0.1 0.37,0.19 0.5,0.27 0.13,0.08 0.24,0.17 0.32,0.26 0.08,0.09 0.14,0.2 0.17,0.32 0.04,0.12 0.05,0.26 0.05,0.42 0,0.16 -0.03,0.33 -0.1,0.49 -0.07,0.16 -0.18,0.3 -0.33,0.42 -0.15,0.12 -0.34,0.22 -0.57,0.3 -0.23,0.08 -0.51,0.12 -0.83,0.12 -0.2,0 -0.38,-0.01 -0.54,-0.04 -0.16,-0.03 -0.3,-0.06 -0.43,-0.1 -0.12,-0.04 -0.23,-0.08 -0.31,-0.12 -0.09,-0.04 -0.15,-0.07 -0.2,-0.1 l 0.39,-0.88 c 0.09,0.05 0.22,0.12 0.41,0.19 0.18,0.08 0.41,0.12 0.67,0.12"
                 id="path4709" />
            </g>
          </g>
        </g>
      </g>
    </g>
  </g>
</svg>
