<svg id="SvgjsSvg1001" width="288" height="288" xmlns="http://www.w3.org/2000/svg" version="1.1" xmlns:xlink="http://www.w3.org/1999/xlink" xmlns:svgjs="http://svgjs.com/svgjs"><defs id="SvgjsDefs1002"></defs><g id="SvgjsG1008"><svg xmlns="http://www.w3.org/2000/svg" viewBox="0 0 85.79 85.79" width="288" height="288"><g data-name="Layer 2" fill="#000000" class="color000 svgShape"><g data-name="Layer 1" fill="#000000" class="color000 svgShape"><path fill="#f0a851" d="M85.79,42.89c0,23.69-19.2,42.89-42.89,42.89S0,66.58,0,42.89,19.2,0,42.89,0s42.89,19.21,42.89,42.89" class="color004d98 svgShape"></path><rect width="48.17" height="3.49" x="19.02" y="68.14" fill="#ffffff" class="colorfff svgShape"></rect><path fill="#fdd099" d="M38.36,66.08h-2.69v-3.5h-1.34l-7.97,8.78-.24-1.99c-.59-4.94-.54-9.45,.16-13.4,.56-3.19,1.54-6.04,2.9-8.45,1.8-3.18,3.82-4.78,4.73-5.4v-13.27c0-.87,.12-1.72,.34-2.54h-.04l.2-.52c.09-.28,.2-.55,.32-.82,0,0,0-.01,0-.02,.21-.53,1.12-2.77,2.46-5.04,2.14-3.63,4.25-5.47,6.28-5.47,2.03,0,4.14,1.84,6.28,5.47,1.36,2.31,2.28,4.58,2.48,5.06,.01,.03,.02,.06,.03,.07v.02h0c.11,.25,.21,.5,.29,.76l.19,.49h-.04c.23,.82,.34,1.67,.34,2.54v12.11c.92,.61,2.93,2.21,4.74,5.4,1.37,2.41,2.35,5.26,2.91,8.45,.69,3.95,.74,8.46,.16,13.4l-.24,2-7.56-8.33v.71h-1.36v3.5h-2.9" class="color7dcdeb svgShape"></path><path fill="#ffffff" d="M53.06,59.14V28.84c0-.87-.11-1.72-.34-2.54-.04-.16-.09-.33-.15-.49-.08-.26-.18-.51-.29-.75h0v-.02s-.02-.04-.04-.07c-.47-1.06-1.14-2.04-1.99-2.89-.7-.7-1.5-1.28-2.35-1.73-1.35-.7-2.85-1.08-4.41-1.08s-3.07,.37-4.41,1.07c-.86,.45-1.65,1.03-2.36,1.73-.84,.84-1.51,1.81-1.98,2.87,0,0,0,.02,0,.02-.12,.26-.23,.54-.32,.82-.06,.17-.11,.34-.16,.52-.22,.82-.34,1.67-.34,2.54V62.57h19.14v-3.43Zm-3.7,1.6h-13.61V28.84c0-.88,.14-1.73,.42-2.54,.22-.65,.53-1.26,.93-1.83,.27-.39,.57-.76,.91-1.1,1.46-1.46,3.4-2.27,5.47-2.27,2.07,0,4.01,.81,5.47,2.27,.34,.34,.65,.71,.92,1.1,.4,.57,.7,1.18,.93,1.83,.28,.8,.42,1.66,.42,2.54v31.9h-1.86Z" class="colorfff svgShape"></path><path fill="#ffffff" d="M52.58 25.82l-.29-.76v-.02s-.02-.04-.04-.08c-.19-.48-1.12-2.76-2.48-5.06-2.14-3.63-4.25-5.47-6.28-5.47-2.03 0-4.14 1.84-6.28 5.47-1.34 2.27-2.25 4.5-2.46 5.04 0 0 0 .02-.01.02-.02.05-.03.08-.04.09l-.28.72-.2.52h18.54l-.19-.49zm-15.47-1.35h-.18c.59-1.33 1.33-2.8 2.16-4.13 1.39-2.25 3.01-4.08 4.41-4.07.72 0 1.49.48 2.27 1.25.73.73 1.46 1.73 2.14 2.82.82 1.32 1.57 2.79 2.15 4.12h-12.95zM46.99 30.56c0-.88-.35-1.71-.97-2.33-.62-.62-1.45-.97-2.33-.97-1.82 0-3.3 1.48-3.3 3.3 0 .91.37 1.73.97 2.33.6.6 1.42.97 2.33.97.91 0 1.73-.37 2.33-.97s.97-1.42.97-2.33m-3.3 1.47c-.81 0-1.47-.66-1.47-1.47 0-.81.66-1.47 1.47-1.47.39 0 .76.15 1.04.43.28.28.43.65.43 1.04 0 .81-.66 1.47-1.47 1.47M46.99 37.82c0-1.82-1.48-3.3-3.3-3.3-1.82 0-3.3 1.48-3.3 3.3 0 .91.37 1.73.97 2.33.6.6 1.42.97 2.33.97.91 0 1.73-.37 2.33-.97s.97-1.42.97-2.33m-3.3 1.47c-.81 0-1.47-.66-1.47-1.47s.66-1.47 1.47-1.47c.4 0 .77.17 1.03.43.27.27.43.63.43 1.04 0 .81-.66 1.47-1.47 1.47M51.7 62.57v-1.83h-16.03v5.34h16.03v-3.5zm-14.2 1.67v-1.67h12.37v1.67h-12.37zM60.86 68.2c.59-4.94.53-9.45-.16-13.4-.56-3.2-1.54-6.04-2.91-8.45-1.8-3.18-3.82-4.78-4.73-5.4-.29-.19-.47-.29-.5-.3l-1.34-.69v19.9l1.83 2.02 7.56 8.33.24-2zm-7.8-9.06v-15.87c.89.79 2.1 2.1 3.21 4.11 1.83 3.29 3.76 9.13 2.97 18.58l-6.18-6.82z" class="colorfff svgShape"></path><path fill="#ffffff" d="M34.34,62.58l1.34-1.47,.08-.09v-19.9l-1.34,.69s-.21,.11-.49,.3c-.91,.61-2.93,2.21-4.73,5.4-1.37,2.41-2.34,5.26-2.9,8.45-.69,3.96-.75,8.46-.16,13.4l.24,2,7.97-8.78Zm-3.63-14.03c1.11-2,2.32-3.32,3.21-4.11v15.87l-6.18,6.81c-.79-9.44,1.14-15.28,2.97-18.58" class="colorfff svgShape"></path></g></g></svg></g></svg>