<svg id="SvgjsSvg1127" width="288" height="288" xmlns="http://www.w3.org/2000/svg" version="1.1" xmlns:xlink="http://www.w3.org/1999/xlink" xmlns:svgjs="http://svgjs.com/svgjs"><defs id="SvgjsDefs1128"></defs><g id="SvgjsG1129"><svg xmlns="http://www.w3.org/2000/svg" viewBox="0 0 85.79 85.79" width="288" height="288"><g data-name="Layer 2" fill="#000000" class="color000 svgShape"><g data-name="Layer 1" fill="#000000" class="color000 svgShape"><path fill="#51f096" d="M85.79,42.89c0,23.69-19.2,42.89-42.89,42.89S0,66.58,0,42.89,19.2,0,42.89,0s42.89,19.21,42.89,42.89" class="color004d98 svgShape"></path><path fill="#ffffff" d="M41.47,34.96c-6.69,2.02-11.18,6.82-10.01,10.7,.71,2.36,3.35,3.85,6.81,4.2,.83,.09,1.7,.1,2.6,.06,.57-.03,1.16-.09,1.76-.17,.9-.13,1.82-.33,2.75-.59,.11-.03,.23-.07,.34-.1,6.69-2.02,11.19-6.82,10.02-10.7s-7.57-5.4-14.26-3.39m3.85,12.78h-.03c-.94,.29-1.87,.49-2.78,.6-.29,.04-.58,.07-.86,.09-.92,.07-1.8,.05-2.62-.05-2.71-.33-4.76-1.52-5.32-3.39-.95-3.16,2.71-7.07,8.15-8.71,5.45-1.64,10.66-.41,11.61,2.76,.95,3.16-2.7,7.07-8.16,8.71" class="colorfff svgShape"></path><path fill="#ffffff" d="M55.11,26.03c-.73-.09-1.47-.16-2.23-.2-1.12-.06-2.29-.06-3.48,0-.79,.04-1.6,.1-2.41,.19-2.51,.28-5.11,.8-7.74,1.59-10.84,3.27-18.86,10.11-20.52,16.76-.15,.58-.24,1.16-.29,1.73-.03,.33-.04,.66-.03,.99,.01,.55,.08,1.1,.19,1.64,.05,.25,.11,.49,.19,.74,2.39,7.94,15.46,11.04,29.14,6.92,3.57-1.07,6.83-2.54,9.66-4.25,.32-.19,.62-.38,.93-.58,7.44-4.82,11.58-11.4,9.89-17.04-1.41-4.67-6.52-7.67-13.28-8.5m-7.58,29.06c-12.43,3.74-24.32,.92-26.49-6.29-.06-.2-.11-.4-.15-.6-.12-.55-.18-1.1-.19-1.67,0-.23,0-.46,.02-.69,.04-.58,.14-1.16,.29-1.75,1.55-6.02,8.82-12.21,18.64-15.17,2.36-.71,4.71-1.19,6.97-1.44,.85-.1,1.68-.16,2.5-.19,.91-.04,1.8-.04,2.67,0,.79,.03,1.57,.1,2.32,.19,6.12,.76,10.75,3.49,12.03,7.73,2.17,7.22-6.17,16.13-18.61,19.88" class="colorfff svgShape"></path><path fill="#ffffff" d="M38.37,24.31c-16.78,5.05-28.05,17.09-25.12,26.83,2.93,9.74,18.97,13.55,35.76,8.5,3.44-1.04,6.65-2.37,9.55-3.91,1.94-1.03,3.75-2.16,5.39-3.36,7.89-5.76,12.11-13.16,10.18-19.56-2.93-9.74-18.98-13.55-35.76-8.49m24.6,26.9c-.56,.43-1.15,.84-1.75,1.25-.77,.51-1.56,1.01-2.39,1.49-.65,.37-1.31,.74-1.99,1.08-2.52,1.29-5.28,2.41-8.22,3.29-15.54,4.68-30.39,1.15-33.1-7.87-2.72-9.02,7.71-20.16,23.25-24.84,15.54-4.68,30.39-1.15,33.11,7.86,1.74,5.79-1.93,12.46-8.9,17.73" class="colorfff svgShape"></path><path fill="#ffffff" d="M62.39,35.64c-.18-.45-.42-.88-.7-1.29-.28-.42-.62-.81-1-1.18-.38-.37-.79-.71-1.26-1.02-4.16-2.85-11.54-3.48-19.16-1.18-10.49,3.16-17.53,10.68-15.7,16.77,1.83,6.09,11.86,8.47,22.35,5.31,10.49-3.16,17.53-10.68,15.7-16.77-.07-.22-.14-.43-.23-.64m-15.86,16.1c-9.25,2.79-18.08,.68-19.7-4.68-1.62-5.36,4.59-12,13.84-14.78,6.78-2.04,13.33-1.46,16.99,1.11,1.13,.79,1.98,1.77,2.47,2.92,.09,.21,.17,.43,.24,.65,1.62,5.37-4.59,12-13.84,14.78" class="colorfff svgShape"></path><path fill="#ffffff" d="M42.74,39.17c-2.7,.81-4.51,2.74-4.04,4.31,.47,1.57,3.05,2.18,5.74,1.37,2.7-.81,4.51-2.75,4.04-4.31-.47-1.56-3.05-2.17-5.74-1.36m1.32,4.37c-1.45,.44-2.84,.11-3.09-.74-.25-.84,.72-1.88,2.17-2.32,1.45-.44,2.84-.11,3.09,.73,.25,.85-.72,1.89-2.17,2.32" class="colorfff svgShape"></path><g fill="#000000" class="color000 svgShape"><path fill="#63bf8b" d="M51.93,76.17l-7.32-5.55-.3-.16-1.95,2.57c-.2,.26-.57,.31-.82,.12l-7.11-5.39c-.26-.2-.31-.57-.11-.83l1.95-2.57-.23-.25-7.32-5.55c-.14-.11-.22-.27-.23-.44,0-.18,.06-.35,.19-.46l5.51-4.94c.1-.09,.22-.14,.36-.15l10.04-.61,4.29-5.66c.29-.38,.7-.65,1.16-.76l6.12-1.44c.55-.13,1.12,0,1.57,.33,.23,.17,.4,.38,.53,.63,.12,.24,.2,.51,.21,.8l.26,6.29c.02,.47-.13,.94-.42,1.32l-4.29,5.66,2.13,9.83c.03,.13,.01,.26-.05,.38l-3.27,6.63c-.08,.16-.22,.27-.39,.31s-.35,0-.49-.1" class="color7dcdeb svgShape"></path><path fill="#ffffff" d="M52.81,75.96l3.27-6.63c.06-.12,.07-.25,.05-.38l-2.13-9.83,4.29-5.66c.29-.38,.44-.85,.42-1.32l-.26-6.29c-.01-.28-.09-.55-.21-.79-.13-.24-.31-.46-.53-.63-.45-.34-1.02-.46-1.57-.33l-6.12,1.45c-.46,.11-.87,.38-1.16,.76l-4.29,5.66-10.04,.61c-.13,0-.26,.06-.36,.15l-5.51,4.94c-.13,.12-.2,.29-.19,.46,0,.18,.09,.34,.23,.44l7.32,5.55,.23,.25-1.95,2.57c-.2,.26-.15,.63,.11,.83l7.11,5.39c.26,.2,.63,.14,.83-.12l1.95-2.57,.3,.15,7.32,5.55c.14,.11,.32,.15,.49,.1,.17-.04,.31-.16,.39-.31m-16.51-13.12l-6.33-4.8,4.82-4.32,2.05-.12-1.77,2.34c-.2,.26-.15,.63,.11,.82,.26,.2,.63,.15,.82-.11l2.38-3.14,5.23-.32-7.32,9.65Zm5.47,9l-6.17-4.68,1.46-1.93,2.59,2.82c.05,.05,.1,.1,.17,.13l3.42,1.73-1.46,1.93Zm2.98-2.48l-.35-.18-3.42-1.73,2.62-3.45c.2-.26,.15-.63-.11-.82-.26-.2-.63-.15-.82,.11l-2.62,3.45-2.59-2.82-.27-.29,12.61-16.63c.13-.17,.3-.28,.49-.33l6.12-1.44c.21-.05,.42,0,.59,.12,.17,.13,.27,.32,.28,.53l.26,6.29c0,.2-.06,.4-.18,.56l-12.61,16.63Zm1,.63l7.32-9.65,1.11,5.12-2.38,3.14c-.2,.26-.14,.63,.11,.83,.26,.19,.63,.15,.82-.11l1.77-2.34,.43,2.01-2.86,5.81-6.33-4.8Z" class="colorfff svgShape"></path><path fill="#ffffff" d="M49.8 50.91s.09.06.14.08c.68.26 1.33.62 1.93 1.08.58.44 1.09.95 1.52 1.51.2.26.57.31.82.11.26-.2.31-.57.11-.82-.49-.65-1.08-1.23-1.74-1.74-.69-.52-1.44-.94-2.22-1.24-.3-.12-.64.04-.76.34-.1.25 0 .52.19.68M18.98 41.93c.04 2.15-1.67 3.93-3.83 3.97-2.15.04-3.93-1.67-3.97-3.82-.04-2.15 1.67-3.93 3.83-3.97s3.93 1.67 3.97 3.82M73.71 33.37c2.15-.07 3.95 1.62 4.02 3.77.07 2.15-1.62 3.95-3.78 4.02-2.15.07-3.95-1.62-4.02-3.77-.07-2.15 1.62-3.95 3.77-4.02M50.69 32.58c1.42-.04 2.6 1.07 2.64 2.48s-1.07 2.6-2.48 2.65c-1.42.04-2.6-1.07-2.65-2.48s1.07-2.6 2.48-2.65" class="colorfff svgShape"></path><polygon fill="#ffffff" points="73.2 49.99 73.81 51.24 75.19 51.44 74.19 52.42 74.43 53.79 73.2 53.14 71.96 53.79 72.2 52.42 71.2 51.44 72.58 51.24 73.2 49.99" class="colorfff svgShape"></polygon><polygon fill="#ffffff" points="25.2 21.65 25.82 22.9 27.2 23.1 26.2 24.07 26.44 25.45 25.2 24.8 23.97 25.45 24.21 24.07 23.21 23.1 24.59 22.9 25.2 21.65" class="colorfff svgShape"></polygon><polygon fill="#ffffff" points="57.51 6.92 58.55 9.03 60.88 9.37 59.2 11.02 59.59 13.34 57.51 12.25 55.42 13.34 55.82 11.02 54.13 9.37 56.46 9.03 57.51 6.92" class="colorfff svgShape"></polygon></g></g></g></svg></g></svg>