<svg id="SvgjsSvg1081" width="288" height="288" xmlns="http://www.w3.org/2000/svg" version="1.1" xmlns:xlink="http://www.w3.org/1999/xlink" xmlns:svgjs="http://svgjs.com/svgjs"><defs id="SvgjsDefs1082"></defs><g id="SvgjsG1083"><svg xmlns="http://www.w3.org/2000/svg" viewBox="0 0 86.08 86.85" width="288" height="288"><g data-name="Layer 2" fill="#000000" class="color000 svgShape"><g data-name="Layer 1" fill="#000000" class="color000 svgShape"><path fill="#71f748" d="M85.79,42.89c0,23.69-19.2,42.89-42.89,42.89S0,66.58,0,42.89,19.2,0,42.89,0s42.89,19.21,42.89,42.89" class="color004d98 svgShape"></path><path fill="#a9f796" d="M57.22,80.88l3.29-3.68c-.38-.49-.6-1.1-.6-1.76,0-.4,.08-.78,.23-1.13l-2.46-1.79c-.36,.33-.73,.64-1.1,.93-3.26,2.53-7.33,3.84-11.86,3.84-.57,0-1.15-.02-1.73-.06l-1.29-.09,.59-1.16c1.62-3.22,4.71-7.26,8.55-11.19l-4.68-3.69c-.41,.26-.9,.41-1.42,.41-1.48,0-2.68-1.21-2.68-2.69s1.2-2.68,2.68-2.68,2.69,1.21,2.69,2.68c0,.33-.06,.65-.17,.94l4.82,3.8c3.45-3.38,6.99-6.2,10.04-7.98l1.17-.68,.13,1.35c.37,3.88-.22,7.61-1.7,10.79-.73,1.56-1.66,2.98-2.79,4.25l2.36,1.72c.45-.29,.98-.45,1.55-.45,1.6,0,2.9,1.3,2.9,2.9s-1.3,2.9-2.9,2.9c-.3,0-.6-.05-.88-.14l-2.4,2.69" class="color7dcdeb svgShape"></path><path fill="#ffffff" d="M63.39,56.22l-.13-1.35-1.17,.68c-3.04,1.78-6.59,4.6-10.04,7.98-.18,.18-.36,.36-.54,.54-.23,.23-.46,.46-.68,.69-3.83,3.93-6.92,7.97-8.55,11.19l-.58,1.16,1.29,.09c.58,.04,1.16,.06,1.73,.06,4.53,0,8.6-1.31,11.86-3.84,.37-.29,.74-.6,1.1-.93,.18-.17,.36-.34,.54-.51,.24-.24,.47-.48,.69-.73,1.12-1.26,2.06-2.69,2.79-4.25,1.48-3.18,2.07-6.91,1.7-10.79m-3.27,10.06c-.78,1.68-1.84,3.19-3.13,4.48-.47,.47-.96,.9-1.47,1.29-3.01,2.34-6.81,3.53-11.05,3.48,1.77-3.04,4.71-6.7,8.26-10.24,3.07-3.07,6.23-5.69,9.03-7.51,.09,3.06-.46,5.97-1.63,8.49" class="colorfff svgShape"></path><polygon fill="#ffffff" points="64.49 75.33 61.94 78.19 59.54 80.87 58.25 82.31 56.97 81.16 57.22 80.87 60.52 77.19 61.72 75.84 61.93 75.61 61.65 75.39 60.15 74.3 57.69 72.51 57.1 72.08 58.12 70.69 58.91 71.26 61.27 72.98 63.05 74.28 63.05 74.28 63.83 74.85 64.49 75.33" class="colorfff svgShape"></polygon><path fill="#ffffff" d="M62.81,72.53c-.57,0-1.1,.17-1.55,.45-.5,.31-.89,.77-1.12,1.32-.15,.35-.23,.73-.23,1.13,0,.66,.22,1.27,.6,1.76,.36,.47,.85,.82,1.42,1,.28,.09,.57,.14,.88,.14,1.6,0,2.9-1.3,2.9-2.9s-1.3-2.9-2.9-2.9" class="colorfff svgShape"></path><polygon fill="#ffffff" points="52.66 64.01 51.59 65.37 50.83 64.77 46.15 61.08 44.92 60.11 45.99 58.76 47.24 59.75 52.06 63.54 52.66 64.01" class="colorfff svgShape"></polygon><path fill="#ffffff" d="M44.73,56.12c-1.48,0-2.68,1.21-2.68,2.69s1.21,2.69,2.68,2.69c.52,0,1.01-.15,1.42-.41,.5-.31,.89-.78,1.1-1.34,.11-.29,.17-.61,.17-.94,0-1.48-1.21-2.69-2.69-2.69m-.96,2.69c0-.53,.43-.96,.96-.96s.96,.43,.96,.96-.43,.96-.96,.96-.96-.43-.96-.96" class="colorfff svgShape"></path><rect width="24.8" height="6.06" x="48.33" y="80.79" fill="#ffffff" class="colorfff svgShape"></rect><g fill="#000000" class="color000 svgShape"><path fill="#a9f796" d="M31.03,53.7l-7.32-5.55-.3-.16-1.95,2.57c-.2,.26-.57,.31-.82,.12l-7.11-5.39c-.26-.2-.31-.57-.11-.83l1.95-2.57-.23-.25-7.32-5.55c-.14-.11-.22-.27-.23-.44,0-.18,.06-.35,.19-.46l5.51-4.94c.1-.09,.22-.14,.36-.15l10.04-.61,4.29-5.66c.29-.38,.7-.65,1.16-.76l6.12-1.44c.55-.13,1.12,0,1.57,.33,.23,.17,.4,.38,.53,.63,.12,.24,.2,.51,.21,.8l.26,6.29c.02,.47-.13,.94-.42,1.32l-4.29,5.66,2.13,9.83c.03,.13,.01,.26-.05,.38l-3.27,6.63c-.08,.16-.22,.27-.39,.31-.17,.04-.35,0-.49-.1" class="color7dcdeb svgShape"></path><path fill="#ffffff" d="M31.91,53.49l3.27-6.63c.06-.12,.07-.25,.05-.38l-2.13-9.83,4.29-5.66c.29-.38,.44-.85,.42-1.32l-.26-6.29c-.01-.28-.08-.55-.21-.79-.13-.24-.31-.46-.53-.63-.45-.34-1.02-.46-1.57-.33l-6.12,1.45c-.46,.11-.87,.38-1.16,.76l-4.29,5.66-10.04,.61c-.13,0-.26,.06-.36,.15l-5.51,4.94c-.13,.12-.2,.29-.19,.46,0,.18,.09,.34,.23,.44l7.32,5.55,.23,.25-1.95,2.57c-.2,.26-.15,.63,.11,.83l7.11,5.39c.26,.2,.63,.14,.83-.12l1.95-2.57,.3,.15,7.32,5.55c.14,.11,.32,.15,.49,.1,.17-.04,.31-.16,.39-.31m-16.51-13.12l-6.33-4.8,4.82-4.32,2.05-.12-1.77,2.34c-.2,.26-.15,.63,.11,.82,.26,.2,.63,.15,.82-.11l2.38-3.14,5.23-.32-7.32,9.65Zm5.47,9l-6.17-4.68,1.46-1.93,2.59,2.82c.05,.05,.1,.1,.17,.13l3.42,1.73-1.46,1.93Zm2.98-2.48l-.35-.18-3.42-1.73,2.62-3.45c.2-.26,.15-.63-.11-.82-.26-.2-.63-.15-.82,.11l-2.62,3.45-2.59-2.82-.27-.29,12.61-16.63c.13-.17,.3-.28,.49-.33l6.12-1.44c.21-.05,.42,0,.59,.12,.17,.13,.27,.32,.28,.53l.26,6.29c0,.2-.06,.4-.18,.56l-12.61,16.63Zm1,.63l7.32-9.65,1.11,5.12-2.38,3.14c-.2,.26-.14,.63,.11,.83,.26,.19,.63,.15,.82-.11l1.77-2.34,.43,2.01-2.86,5.81-6.33-4.8Z" class="colorfff svgShape"></path><path fill="#ffffff" d="M28.9 28.45s.09.06.14.08c.68.26 1.33.62 1.93 1.08.58.44 1.09.95 1.52 1.51.2.26.57.31.82.11.26-.2.31-.57.11-.82-.49-.65-1.08-1.23-1.74-1.74-.69-.52-1.44-.94-2.22-1.24-.3-.12-.64.04-.76.34-.1.25 0 .52.19.68M81.88 45.02c-1.07.32-1.79 1.09-1.6 1.71.19.62 1.21.86 2.28.54 1.07-.32 1.79-1.09 1.6-1.71-.19-.62-1.21-.86-2.28-.54m.52 1.73c-.58.17-1.12.04-1.23-.29-.1-.33.29-.75.86-.92.58-.17 1.13-.04 1.23.29.1.33-.29.75-.86.92M72.46 46.12c.02.85-.66 1.56-1.52 1.58-.85.02-1.56-.66-1.57-1.52-.02-.85.66-1.56 1.52-1.57.85-.02 1.56.66 1.58 1.52M85.03 42.41c.56-.02 1.03.42 1.05.98.02.56-.42 1.03-.98 1.05-.56.02-1.03-.42-1.05-.98-.02-.56.42-1.03.98-1.05" class="colorfff svgShape"></path><polygon fill="#ffffff" points="68.85 33.6 69.47 34.84 70.85 35.05 69.85 36.02 70.08 37.39 68.85 36.74 67.62 37.39 67.85 36.02 66.86 35.05 68.23 34.84 68.85 33.6" class="colorfff svgShape"></polygon><polygon fill="#ffffff" points="27.16 14.93 27.78 16.18 29.16 16.38 28.16 17.36 28.4 18.73 27.16 18.08 25.93 18.73 26.16 17.36 25.17 16.38 26.55 16.18 27.16 14.93" class="colorfff svgShape"></polygon><polygon fill="#ffffff" points="47.18 3.32 48.22 5.43 50.55 5.77 48.86 7.42 49.26 9.74 47.18 8.64 45.09 9.74 45.49 7.42 43.8 5.77 46.13 5.43 47.18 3.32" class="colorfff svgShape"></polygon><rect width="6.42" height="8.21" x="49.9" y="21.27" fill="#a9f796" transform="rotate(-16.95 53.09 25.37)" class="color7dcdeb svgShape"></rect><path fill="#ffffff" d="M57.43 28.51l-6.14 1.87c-.08.03-.17-.02-.19-.1l-2.39-7.85c-.02-.08.02-.17.1-.19l6.14-1.87c.08-.02.17.02.19.1l2.39 7.85c.02.08-.02.17-.1.19m-6.08 1.53l5.85-1.78-2.3-7.56-5.85 1.78 2.3 7.56zM49.38 20.84c.11.37-.1.75-.46.87-.37.11-.75-.1-.87-.46l-.17-.55c-.11-.37.09-.76.46-.87.37-.11.75.1.87.46l.17.54z" class="colorfff svgShape"></path><path fill="#ffffff" d="M48.96 21.86c-.45.14-.92-.12-1.06-.57l-.17-.54c-.14-.45.12-.92.57-1.06.45-.14.92.12 1.06.57l.17.54c.14.45-.12.92-.56 1.06m-.57-1.87c-.29.09-.45.39-.36.67l.17.54c.09.28.39.45.67.36.28-.09.45-.39.36-.67l-.17-.55c-.09-.28-.39-.45-.67-.36M54.95 19.15c.11.37-.1.75-.46.87s-.75-.1-.86-.46l-.17-.54c-.11-.37.09-.76.46-.87.37-.11.75.1.87.46l.17.54z" class="colorfff svgShape"></path><path fill="#ffffff" d="M54.53 20.16c-.45.14-.92-.12-1.06-.57l-.17-.54c-.14-.45.12-.92.57-1.06.45-.14.92.12 1.06.57l.17.54c.14.45-.12.92-.57 1.06m-.57-1.87c-.28.09-.45.39-.36.67l.17.55c.09.28.39.45.67.36.28-.09.45-.39.36-.67l-.17-.55c-.09-.28-.39-.45-.67-.36M57.11 23.45c-.35-.5-.79-.94-1.27-1.32-.23-.18-.48-.35-.74-.51-.11-.07-.23-.13-.35-.19-.06-.03-.11-.05-.17-.08-.03-.01-.09-.02-.11-.04-.26-.16-.54-.16-.79-.06-.38-.11-.94-.07-1.78.19-.83.25-1.32.53-1.57.82-.02 0-.04 0-.06.01-.22.06-.41.21-.53.41-.11.2-.24.39-.34.59-.27.53-.46 1.11-.58 1.7-.21 1.07-.2 2.35.43 3.29.27.42.92.35 1.1-.12.05-.14.07-.31.08-.46.03-.28.07-.55.11-.82.07-.48.18-.95.3-1.42.36.97.82 1.81 1.3 2.45 0 0 0 .01 0 .02-.06.21-.03.44-.02.66.06 1.19.27 2.39.58 3.55.07.27.15.53.23.79.06.18.11.38.21.54.25.41.79.55 1.21.33.19-.1.34-.28.42-.48.07-.18.06-.38.05-.57-.02-.56-.08-1.12-.16-1.67-.09-.6-.2-1.2-.34-1.79.26.72.59 1.42.93 2.09.14.27.28.53.43.79.11.18.21.38.34.54.3.37.85.45 1.24.17.18-.13.3-.32.35-.53.05-.19.02-.37-.03-.56-.15-.58-.34-1.14-.56-1.69-.23-.59-.48-1.17-.77-1.74-.22-.43-.45-.86-.73-1.25-.07-.09-.15-.17-.25-.23.05-.8-.04-1.75-.27-2.72.1.1.21.19.31.29.42.4.85.8 1.21 1.25.24.3.54.68.99.51.47-.18.43-.75.33-1.15-.14-.59-.4-1.12-.75-1.62" class="colorfff svgShape"></path><path fill="#a9f796" d="M50.52,27.89c.17,.56,0,1.11-.37,1.22-.38,.12-.82-.25-.99-.81-.17-.56,.11-.75,.48-.86s.71-.12,.88,.44" class="color7dcdeb svgShape"></path><path fill="#a9f796" d="M50.19 29.27c-.47.14-.99-.26-1.18-.91-.22-.72.23-.95.59-1.05.36-.11.86-.17 1.07.55.2.65 0 1.27-.48 1.42m-.51-1.67c-.35.11-.51.24-.38.67.14.47.51.79.8.71.29-.09.41-.56.27-1.03-.13-.43-.33-.45-.69-.34M58.03 25.61c.17.56 0 1.11-.37 1.22-.38.12-.82-.25-.99-.81-.17-.56.11-.75.48-.86.38-.12.71-.12.88.44" class="color7dcdeb svgShape"></path><path fill="#a9f796" d="M57.71 26.98c-.47.14-.99-.26-1.18-.91-.22-.72.23-.95.59-1.05.36-.11.86-.17 1.07.55.2.65 0 1.27-.48 1.42m-.51-1.67c-.35.11-.51.24-.38.67.14.47.51.79.8.7.29-.09.41-.56.27-1.03-.13-.43-.33-.45-.69-.34M55.29 33.47c.17.56-.32.79-.94.98-.63.19-1.16.27-1.33-.29-.17-.56.2-1.18.83-1.37.63-.19 1.28.11 1.45.67" class="color7dcdeb svgShape"></path><path fill="#a9f796" d="M54.4 34.6c-.45.14-1.29.39-1.52-.39-.2-.64.22-1.34.93-1.56.71-.22 1.44.13 1.64.78.24.79-.6 1.04-1.05 1.18m-.5-1.66c-.55.17-.87.69-.72 1.17.11.37.4.41 1.14.19.74-.22.95-.42.84-.79-.15-.48-.71-.74-1.25-.57M58.15 32.6c.17.56-.32.79-.94.98-.63.19-1.16.27-1.33-.29-.17-.56.2-1.18.83-1.37.63-.19 1.28.11 1.45.67" class="color7dcdeb svgShape"></path><path fill="#a9f796" d="M57.26 33.73c-.45.14-1.28.39-1.52-.39-.2-.64.22-1.34.93-1.56s1.44.13 1.64.78c.24.79-.6 1.04-1.05 1.18m-.5-1.66c-.55.17-.87.69-.72 1.17.11.37.4.41 1.14.19.74-.22.95-.42.84-.79-.15-.48-.71-.74-1.25-.57M54.18 19.02c.46 1.52-.39 3.13-1.91 3.59-1.52.46-3.13-.39-3.59-1.91s.39-3.13 1.91-3.59c1.52-.46 3.13.39 3.59 1.91" class="color7dcdeb svgShape"></path><path fill="#a9f796" d="M52.32,22.76c-1.6,.49-3.29-.42-3.78-2.02-.49-1.6,.42-3.3,2.02-3.78,1.6-.49,3.29,.42,3.78,2.02,.49,1.6-.42,3.3-2.02,3.78m-1.68-5.5c-1.44,.44-2.25,1.96-1.81,3.4,.44,1.43,1.96,2.25,3.4,1.81,1.43-.44,2.25-1.96,1.81-3.4-.44-1.44-1.96-2.25-3.4-1.81" class="color7dcdeb svgShape"></path><path fill="#71f748" d="M48.57,19.61c-.03,.36,0,.72,.11,1.09,.11,.36,.29,.69,.51,.96,.77-.08,1.67-.26,2.62-.55,.95-.29,1.8-.64,2.48-1.01,.03-.36,0-.72-.11-1.09-.11-.36-.29-.69-.51-.97-.77,.08-1.67,.26-2.62,.55-.95,.29-1.8,.64-2.48,1.01" class="color004d98 svgShape"></path><rect width=".39" height="2.02" x="49.51" y="25.16" fill="#a9f796" transform="rotate(-82.24 49.706 26.174)" class="color7dcdeb svgShape"></rect><rect width=".39" height="2.02" x="49.59" y="24.39" fill="#a9f796" transform="rotate(-82.25 49.786 25.404)" class="color7dcdeb svgShape"></rect><rect width="2.02" height=".39" x="55.37" y="23.91" fill="#a9f796" transform="rotate(-41.65 56.376 24.107)" class="color7dcdeb svgShape"></rect><rect width="2.02" height=".39" x="54.81" y="23.33" fill="#a9f796" transform="rotate(-41.65 55.817 23.518)" class="color7dcdeb svgShape"></rect><rect width="2.2" height=".39" x="52.38" y="30.38" fill="#a9f796" transform="rotate(-16.95 53.482 30.573)" class="color7dcdeb svgShape"></rect><rect width="2.18" height=".39" x="52.55" y="31.11" fill="#a9f796" transform="rotate(-16.95 53.612 31.313)" class="color7dcdeb svgShape"></rect><rect width="2.2" height=".39" x="54.66" y="29.69" fill="#a9f796" transform="rotate(-16.95 55.746 29.882)" class="color7dcdeb svgShape"></rect><rect width="2.18" height=".39" x="54.95" y="30.38" fill="#a9f796" transform="rotate(-16.95 56.053 30.58)" class="color7dcdeb svgShape"></rect><rect width="2.33" height="1.14" x="51.72" y="24.06" fill="#a9f796" transform="rotate(-16.93 52.893 24.63)" class="color7dcdeb svgShape"></rect><path fill="#a9f796" d="M54.41,24.96l-2.6,.79-.45-1.46,2.6-.79,.45,1.46Zm-2.34,.31l1.86-.57-.22-.72-1.86,.57,.22,.72Z" class="color7dcdeb svgShape"></path><path fill="#ffffff" d="M51.05 21.32l.53-2.87c-.17.05-.35.1-.53.15h0l-.53 2.85c.17-.04.35-.08.53-.12M49.56 21.62c.17-.02.34-.05.52-.08l.52-2.79c-.18.06-.36.13-.54.19l-.49 2.68z" class="colorfff svgShape"></path><path fill="#71f748" d="M51.86,21.26c-.93,.28-1.84,.48-2.65,.55-.05,0-.1-.02-.14-.06-.24-.3-.43-.65-.54-1.02-.11-.37-.16-.76-.12-1.15,0-.05,.04-.1,.08-.12,.71-.38,1.58-.74,2.51-1.02s1.85-.48,2.65-.56c.05,0,.1,.02,.13,.06,.24,.3,.43,.65,.54,1.02,.11,.37,.15,.76,.12,1.14,0,.05-.03,.1-.08,.12-.71,.38-1.58,.74-2.51,1.02m-2.6,.24c.76-.08,1.63-.27,2.51-.53,.88-.27,1.7-.6,2.38-.96,.02-.32-.02-.64-.11-.94-.09-.31-.24-.59-.43-.85-.77,.08-1.63,.27-2.51,.53-.88,.27-1.7,.6-2.38,.95-.02,.32,.02,.64,.11,.95,.09,.31,.24,.59,.43,.85" class="color004d98 svgShape"></path><path fill="none" stroke="#fff" stroke-linecap="round" stroke-miterlimit="10" d="M38.19,59.09s-.09-6.81,7.1-5.84" class="colorStrokefff svgStroke"></path><path fill="none" stroke="#fff" stroke-linecap="round" stroke-miterlimit="10" stroke-width="1.74" d="M34.1,59.32s-.15-11.85,12.35-10.15" class="colorStrokefff svgStroke"></path></g></g></g></svg></g></svg>