<svg id="SvgjsSvg1034" width="288" height="288" xmlns="http://www.w3.org/2000/svg" version="1.1" xmlns:xlink="http://www.w3.org/1999/xlink" xmlns:svgjs="http://svgjs.com/svgjs"><defs id="SvgjsDefs1035"></defs><g id="SvgjsG1036"><svg xmlns="http://www.w3.org/2000/svg" viewBox="0 0 85.79 87.81" width="288" height="288"><defs><clipPath id="a"><path fill="none" d="M0,42.89C0,66.58,19.2,85.79,42.89,85.79s42.89-19.2,42.89-42.89S66.58,0,42.89,0,0,19.21,0,42.89"></path></clipPath></defs><g data-name="Layer 2" fill="#000000" class="color000 svgShape"><g data-name="Layer 1" fill="#000000" class="color000 svgShape"><path fill="#e0df4d" d="M85.79,42.89c0,23.69-19.2,42.89-42.89,42.89S0,66.58,0,42.89,19.2,0,42.89,0s42.89,19.21,42.89,42.89" class="color004d98 svgShape"></path><g clip-path="url(#a)" fill="#000000" class="color000 svgShape"><path fill="#e0cd93" d="M30.5,54.55l1.05-1.38c.85,.64,1.84,.99,2.79,.96,.87-.02,1.6-.36,2.04-.95l1.39,1.05c-.77,1.02-1.98,1.6-3.39,1.63-.05,0-.09,0-.14,0-1.3,0-2.62-.46-3.74-1.32" class="color7dcdeb svgShape"></path><polygon fill="#e0cd93" points="38.14 54.51 39.52 55.55 34.9 61.66 33.51 60.62 38.14 54.51" class="color7dcdeb svgShape"></polygon><path fill="#e0cd93" d="M43.03 59.15l-4.14 5.47-1.38-1.05 4.63-6.11 1.38 1.05-.04.04 1.33 1.01c-.97 1.28-.38 3.36 1.32 4.65l-1.05 1.38c-2.21-1.68-3.04-4.42-2.05-6.44M50.85 87.81H10.23l-.07-.79c-.06-.63-.09-1.26-.09-1.88 0-.21 0-.43.01-.64 0-.03 0-.05 0-.07 0-.22.02-.44.03-.65.01-.23.03-.46.06-.68.04-.45.1-.9.18-1.34.04-.22.08-.45.12-.66.72-3.6 2.41-6.96 4.92-9.71.05-.05.1-.1.15-.15.18-.2.37-.4.57-.59.16-.16.32-.31.48-.46.33-.31.67-.61 1.02-.89.17-.14.35-.29.53-.42.22-.16.44-.32.66-.48.13-.09.27-.18.4-.27.04-.03.08-.05.12-.08.17-.11.34-.22.51-.32.19-.12.39-.24.59-.35l.17-.1.31-.17h0c2.33-1.24 4.9-2.03 7.58-2.3.68-.07 1.37-.1 2.05-.1 1.85 0 3.68.25 5.46.74h0l.2.05c5.09 1.47 9.51 4.95 12.13 9.56 1.75 3.07 2.67 6.57 2.67 10.11 0 .09 0 .19 0 .29h0c0 .53-.04 1.06-.08 1.59l-.07.79z" class="color7dcdeb svgShape"></path><path fill="#ffffff" d="M48.34,75.03c-2.62-4.61-7.05-8.1-12.13-9.56-.07-.02-.14-.04-.21-.05-1.78-.49-3.61-.74-5.46-.74-.69,0-1.38,.04-2.05,.1-2.68,.27-5.25,1.06-7.58,2.3-.11,.06-.21,.11-.31,.17l-.17,.1c-.2,.11-.4,.23-.59,.35-.17,.1-.35,.21-.51,.32-.04,.03-.08,.05-.12,.08-.13,.09-.27,.18-.4,.27-.23,.16-.44,.32-.66,.48-.18,.14-.36,.28-.53,.42-.35,.28-.69,.58-1.02,.89-.16,.15-.33,.31-.48,.46-.19,.19-.38,.39-.57,.59-.05,.05-.1,.1-.15,.15-2.51,2.76-4.2,6.12-4.92,9.72-.04,.22-.09,.44-.12,.66-.08,.44-.14,.89-.18,1.34-.03,.22-.05,.45-.06,.68-.02,.21-.03,.43-.03,.65,0,.02,0,.05,0,.07,0,.21-.01,.43-.01,.65,0,.62,.03,1.25,.09,1.88l.07,.79H50.85l.07-.79c.05-.52,.08-1.06,.08-1.57v-.02c0-.1,0-.2,0-.29,0-3.54-.92-7.04-2.67-10.11m-36.51,11.05c-.02-.31-.03-.63-.03-.94,0-.16,0-.33,0-.49,0-.09,0-.18,.01-.27,0-.15,.01-.31,.02-.46,.44-6.93,4.61-12.86,10.63-15.71,1.9-.9,3.98-1.49,6.18-1.71,.62-.06,1.25-.1,1.88-.1,1.02,0,2.04,.08,3.04,.25,.72,.11,1.44,.28,2.15,.48,.06,.02,.13,.04,.19,.06h0c.1,.03,.2,.06,.3,.09,.09,.03,.19,.06,.28,.09,.11,.04,.23,.08,.34,.12,.1,.03,.2,.07,.3,.11,.24,.09,.48,.19,.72,.29,.11,.04,.21,.09,.32,.14,.58,.26,1.15,.55,1.7,.87,.12,.07,.25,.14,.37,.22,.08,.04,.15,.09,.22,.14,.1,.06,.19,.12,.29,.19,.15,.1,.29,.2,.44,.3,.1,.07,.2,.14,.29,.21,.12,.09,.24,.17,.36,.27,1.2,.91,2.29,1.96,3.24,3.13,.08,.1,.16,.2,.24,.3,.55,.71,1.05,1.45,1.49,2.23,.09,.16,.18,.33,.27,.49,.06,.1,.11,.21,.16,.31,.06,.11,.11,.22,.16,.32,.07,.14,.14,.29,.2,.44,.07,.15,.14,.31,.2,.46,.05,.12,.11,.25,.15,.37,.03,.07,.06,.14,.08,.22,.04,.1,.08,.21,.11,.32,.02,.06,.05,.12,.07,.18,.05,.13,.09,.26,.13,.4,.05,.15,.1,.31,.14,.47,.03,.11,.06,.21,.09,.32,.03,.09,.05,.17,.07,.26,.02,.09,.05,.18,.07,.27,.03,.1,.05,.2,.07,.3,.02,.07,.03,.14,.04,.21,.03,.13,.06,.27,.08,.4,.03,.16,.06,.32,.09,.48,.04,.2,.06,.4,.09,.6,.05,.38,.09,.75,.11,1.14,.01,.19,.02,.37,.03,.56,.01,.24,.01,.48,.01,.72,0,.07,0,.14,0,.2v.03c0,.23-.01,.46-.02,.7H11.83Z" class="colorfff svgShape"></path><path fill="#ffffff" d="M25.04 86.32c-.08-.08-.17-.17-.25-.25-.64-.67-1.01-1.29-1.17-1.92-.32-1.27.39-2.66 1.08-4.01.19-.37.38-.75.55-1.11.87-1.91 1.83-4.79.14-7.62-.68-1.14-1.62-2.18-2.92-3.21-.35-.28-.73-.55-1.13-.83l-.44-.3h0l-.31.17-.17.1c-.2.11-.4.23-.59.35-.17.1-.35.21-.51.32-.04.03-.08.05-.12.08-.13.09-.27.18-.4.27-.23.16-.44.32-.66.48-.18.14-.36.28-.53.42-.35.29-.69.58-1.02.89-.16.15-.33.31-.48.46-2.86 2.85-4.83 6.49-5.63 10.46-.04.22-.09.44-.12.66-.08.44-.14.89-.18 1.34-.03.22-.05.45-.06.68-.02.21-.03.43-.03.65 0 .02 0 .05 0 .07 0 .21-.01.43-.01.65 0 .62.03 1.25.09 1.88l.07.79H26.56l-1.53-1.49zm-13.21-.25c-.02-.31-.03-.63-.03-.94 0-.16 0-.33 0-.49 0-.09 0-.18.01-.27 0-.15.01-.31.02-.46.4-6.06 3.75-11.61 8.97-14.79 1.44 1.04 2.43 2.06 3.1 3.18.98 1.64.91 3.5-.23 6.01-.15.33-.33.68-.51 1.04-.79 1.55-1.7 3.31-1.22 5.21.13.52.35 1.01.65 1.5H11.83zM48.34 75.03c-2.62-4.61-7.05-8.1-12.13-9.56l-.2-.06h0l-.19.04c-1.01.18-1.63.41-1.65.42l-.45.17-.1.46c-.01.05-.02.1-.04.15-.15.65-.37 1.29-.6 1.98-.41 1.2-.83 2.43-.88 3.75-.14 3.67 3.13 4.33 5.51 4.82.13.02.26.05.38.08 2.95.6 4.23 1.55 5.3 3.87l.09.19c.92 2.02 1.96 4.31 4.83 4.69l.15.02c.06 0 .12.02.18.02.44.06.97.12 1.53.18l.9.08.05-.89v-.02c0-.1 0-.21 0-.29 0-3.54-.92-7.04-2.67-10.11m.09 9.28c-1.82-.24-2.51-1.56-3.48-3.69l-.09-.2c-1.48-3.22-3.59-4.24-6.53-4.85-.13-.02-.26-.05-.39-.08-2.86-.58-4.2-1.07-4.12-3.05.04-1.07.4-2.13.79-3.26.2-.6.41-1.21.57-1.83.19-.05.43-.11.73-.17h0c.1.03.2.06.3.09.1.03.19.06.28.09.11.04.23.08.34.12.1.03.2.07.3.11.24.09.48.19.72.29.11.04.21.09.32.14.58.26 1.15.55 1.7.87.12.07.25.14.37.22.08.04.15.09.22.14.1.06.2.12.29.19.15.09.29.2.44.3.1.07.2.14.3.21.12.09.24.17.36.27 1.2.91 2.29 1.96 3.24 3.13.08.1.16.2.24.3.55.71 1.05 1.45 1.49 2.23.09.17.18.33.27.49.06.1.11.21.16.31.06.11.11.21.16.32.07.15.14.29.2.44.07.15.14.31.2.46.05.12.11.25.15.37.03.07.06.14.09.21.04.1.08.21.11.32.02.06.05.12.07.18.05.13.09.26.13.4.05.15.1.31.14.47.03.1.06.21.09.32.02.08.05.17.07.26.02.09.05.18.07.27.03.1.05.2.07.3.02.07.03.14.04.21.03.13.06.27.08.4.03.16.06.32.09.48.03.2.06.4.09.6.05.38.09.76.11 1.14.01.19.02.37.03.56-.25-.03-.48-.06-.69-.09l-.14-.02zM37.77 54.23c-.77 1.02-1.98 1.6-3.39 1.63-.05 0-.09 0-.14 0-1.3 0-2.62-.46-3.74-1.32l1.05-1.38c.85.65 1.84.99 2.79.96.87-.02 1.6-.36 2.05-.95l1.39 1.05zM46.13 64.21l-1.05 1.38c-2.21-1.68-3.04-4.42-2.05-6.44.11-.22.24-.44.4-.64l.06.04 1.33 1.01c-.97 1.28-.38 3.36 1.32 4.65" class="colorfff svgShape"></path><polygon fill="#ffffff" points="39.52 55.55 34.9 61.66 33.51 60.62 38.14 54.51 39.52 55.55" class="colorfff svgShape"></polygon><polygon fill="#ffffff" points="43.51 58.51 43.48 58.55 43.03 59.15 38.88 64.62 37.5 63.57 42.13 57.46 43.51 58.51" class="colorfff svgShape"></polygon></g><path fill="#e0cd93" d="M55.71,60.04l-7.32-5.55-.3-.16-1.95,2.57c-.2,.26-.57,.31-.82,.12l-7.11-5.39c-.26-.2-.31-.57-.11-.83l1.95-2.57-.23-.25-7.32-5.55c-.14-.11-.22-.27-.23-.44,0-.18,.06-.35,.19-.46l5.51-4.94c.1-.09,.22-.14,.36-.15l10.04-.61,4.29-5.66c.29-.38,.7-.65,1.16-.76l6.12-1.44c.55-.13,1.12,0,1.57,.33,.23,.17,.4,.38,.53,.63,.12,.24,.2,.51,.21,.8l.26,6.29c.02,.47-.13,.94-.42,1.32l-4.29,5.66,2.13,9.83c.03,.13,.01,.26-.05,.38l-3.27,6.63c-.08,.16-.22,.27-.39,.31-.17,.04-.35,0-.49-.1" class="color7dcdeb svgShape"></path><path fill="#ffffff" d="M56.59,59.83l3.27-6.63c.06-.12,.07-.25,.05-.38l-2.13-9.83,4.29-5.66c.29-.38,.44-.85,.42-1.32l-.26-6.29c-.01-.28-.08-.55-.21-.79-.13-.24-.31-.46-.53-.63-.45-.34-1.02-.46-1.57-.33l-6.12,1.45c-.46,.11-.87,.38-1.16,.76l-4.29,5.66-10.04,.61c-.13,0-.26,.06-.36,.15l-5.51,4.94c-.13,.12-.2,.29-.19,.46,0,.18,.09,.34,.23,.44l7.32,5.55,.23,.25-1.95,2.57c-.2,.26-.15,.63,.11,.83l7.11,5.39c.26,.2,.63,.14,.83-.12l1.95-2.57,.3,.15,7.32,5.55c.14,.11,.32,.15,.49,.1,.17-.04,.31-.16,.39-.31m-16.51-13.12l-6.33-4.8,4.82-4.32,2.05-.12-1.77,2.34c-.2,.26-.15,.63,.11,.82,.26,.2,.63,.15,.82-.11l2.38-3.14,5.23-.32-7.32,9.65Zm5.47,9l-6.17-4.68,1.46-1.93,2.59,2.82c.05,.05,.1,.1,.17,.13l3.42,1.73-1.46,1.93Zm2.98-2.48l-.35-.18-3.42-1.73,2.62-3.45c.2-.26,.15-.63-.11-.82-.26-.2-.63-.15-.82,.11l-2.62,3.45-2.59-2.82-.27-.29,12.61-16.63c.13-.17,.3-.28,.49-.33l6.12-1.44c.21-.05,.42,0,.59,.12,.17,.13,.27,.32,.28,.53l.26,6.29c0,.2-.06,.4-.18,.56l-12.61,16.63Zm1,.63l7.32-9.65,1.11,5.12-2.38,3.14c-.2,.26-.14,.63,.11,.83,.26,.19,.63,.15,.82-.11l1.77-2.34,.43,2.01-2.86,5.81-6.33-4.8Z" class="colorfff svgShape"></path><path fill="#ffffff" d="M53.58,34.79s.09,.06,.14,.08c.68,.26,1.33,.62,1.93,1.08,.58,.44,1.09,.95,1.52,1.51,.2,.26,.57,.31,.82,.11,.26-.2,.31-.57,.11-.82-.49-.65-1.08-1.23-1.74-1.74-.69-.52-1.44-.94-2.22-1.24-.3-.12-.64,.04-.76,.34-.1,.25,0,.52,.19,.68" class="colorfff svgShape"></path><polygon fill="#ffffff" points="71.2 43.21 71.81 44.46 73.19 44.66 72.2 45.63 72.43 47 71.2 46.35 69.96 47 70.2 45.63 69.2 44.66 70.58 44.46 71.2 43.21" class="colorfff svgShape"></polygon><polygon fill="#ffffff" points="29.51 24.55 30.13 25.79 31.5 26 30.51 26.97 30.74 28.34 29.51 27.69 28.28 28.34 28.51 26.97 27.51 26 28.89 25.79 29.51 24.55" class="colorfff svgShape"></polygon><polygon fill="#ffffff" points="49.52 12.93 50.57 15.04 52.9 15.38 51.21 17.03 51.61 19.35 49.52 18.26 47.43 19.35 47.83 17.03 46.14 15.38 48.48 15.04 49.52 12.93" class="colorfff svgShape"></polygon><rect width="6.42" height="8.21" x="17.71" y="31.93" fill="#e0cd93" transform="rotate(-16.95 20.904 36.044)" class="color7dcdeb svgShape"></rect><path fill="#ffffff" d="M25.24 39.18l-6.14 1.87c-.08.03-.17-.02-.19-.1l-2.39-7.85c-.02-.08.02-.17.1-.19l6.14-1.87c.08-.02.17.02.19.1l2.39 7.85c.02.08-.02.17-.1.19m-6.08 1.53l5.85-1.78-2.3-7.56-5.85 1.78 2.3 7.56zM17.19 31.51c.11.37-.1.75-.46.87-.37.11-.75-.1-.87-.46l-.17-.55c-.11-.37.1-.76.46-.87.37-.11.75.1.87.46l.17.54z" class="colorfff svgShape"></path><path fill="#ffffff" d="M16.77 32.53c-.45.14-.92-.12-1.06-.57l-.17-.54c-.14-.45.12-.92.57-1.06.45-.14.92.12 1.06.57l.17.54c.14.45-.12.92-.56 1.06m-.57-1.87c-.29.09-.45.39-.36.67l.17.54c.09.28.39.45.67.36.28-.09.45-.39.36-.67l-.17-.55c-.09-.28-.39-.45-.67-.36M22.76 29.81c.11.37-.1.75-.46.87s-.75-.1-.87-.46l-.17-.54c-.11-.37.1-.76.46-.87.37-.11.75.1.87.46l.17.54z" class="colorfff svgShape"></path><path fill="#ffffff" d="M22.34 30.83c-.45.14-.92-.12-1.06-.57l-.17-.54c-.14-.45.12-.92.57-1.06.45-.14.92.12 1.06.57l.17.54c.14.45-.12.92-.57 1.06m-.57-1.87c-.28.09-.45.39-.36.67l.17.55c.09.28.39.45.67.36.28-.09.45-.39.36-.67l-.17-.55c-.09-.28-.39-.45-.67-.36M24.93 34.12c-.35-.5-.79-.94-1.27-1.32-.23-.18-.48-.35-.74-.51-.11-.07-.23-.13-.35-.19-.06-.03-.11-.05-.17-.08-.03-.01-.09-.02-.11-.04-.26-.16-.54-.16-.79-.06-.38-.11-.94-.07-1.78.19-.83.25-1.32.53-1.57.82-.02 0-.04 0-.06.01-.22.06-.41.21-.53.41-.11.2-.24.39-.34.59-.27.53-.46 1.11-.58 1.7-.21 1.07-.2 2.35.43 3.29.27.42.92.35 1.1-.12.05-.14.07-.31.08-.46.03-.28.07-.55.11-.82.07-.48.18-.95.3-1.42.36.97.82 1.81 1.3 2.45 0 0 0 .01 0 .02-.06.21-.04.44-.02.66.06 1.19.27 2.39.58 3.55.07.27.15.53.23.79.06.18.11.38.21.54.25.41.79.55 1.21.33.19-.1.34-.28.42-.48.07-.18.06-.38.05-.57-.02-.56-.08-1.12-.16-1.67-.09-.6-.2-1.2-.34-1.79.26.72.59 1.42.93 2.09.13.27.28.53.43.79.11.18.21.38.35.54.3.37.85.45 1.24.17.18-.13.3-.32.35-.53.05-.19.02-.37-.03-.56-.15-.58-.34-1.14-.56-1.69-.23-.59-.48-1.17-.77-1.74-.22-.43-.45-.86-.73-1.25-.07-.09-.15-.17-.25-.23.05-.8-.04-1.75-.27-2.72.1.1.21.19.31.29.42.4.85.8 1.21 1.25.24.3.54.68.99.51.47-.18.43-.75.33-1.15-.14-.59-.4-1.12-.75-1.62" class="colorfff svgShape"></path><path fill="#e0cd93" d="M18.34,38.56c.17,.56,0,1.11-.37,1.22-.38,.12-.82-.25-.99-.81-.17-.56,.11-.75,.48-.86,.38-.12,.71-.12,.88,.44" class="color7dcdeb svgShape"></path><path fill="#e0cd93" d="M18.01 39.93c-.46.14-.99-.26-1.18-.91-.22-.72.23-.95.59-1.05.36-.11.86-.17 1.07.55.2.65 0 1.27-.48 1.42m-.51-1.67c-.35.11-.51.24-.38.67.14.47.51.79.8.71.29-.09.41-.56.27-1.03-.13-.43-.33-.45-.69-.34M25.85 36.27c.17.56 0 1.11-.37 1.22-.38.12-.82-.25-.99-.81-.17-.56.11-.75.48-.86.38-.12.71-.12.88.44" class="color7dcdeb svgShape"></path><path fill="#e0cd93" d="M25.52 37.64c-.47.14-.99-.26-1.18-.91-.22-.72.23-.95.59-1.05.36-.11.86-.17 1.07.55.2.65 0 1.27-.48 1.42m-.51-1.67c-.35.11-.51.24-.38.67.14.47.51.79.8.7.29-.09.41-.56.27-1.03-.13-.43-.33-.45-.69-.34M23.11 44.13c.17.56-.32.79-.94.98-.63.19-1.16.27-1.33-.29-.17-.56.2-1.18.83-1.37.63-.19 1.28.11 1.45.67" class="color7dcdeb svgShape"></path><path fill="#e0cd93" d="M22.21 45.27c-.45.14-1.29.39-1.52-.39-.2-.64.22-1.34.93-1.56.71-.22 1.44.13 1.64.78.24.79-.6 1.04-1.05 1.18m-.5-1.66c-.55.17-.87.69-.72 1.17.11.37.4.41 1.14.19.74-.22.95-.42.84-.79-.15-.48-.71-.74-1.25-.57M25.97 43.26c.17.56-.32.79-.94.98-.63.19-1.16.27-1.33-.29-.17-.56.2-1.18.83-1.37.63-.19 1.28.11 1.45.67" class="color7dcdeb svgShape"></path><path fill="#e0cd93" d="M25.07 44.39c-.45.14-1.29.39-1.52-.39-.2-.64.22-1.34.93-1.56.71-.22 1.44.13 1.64.78.24.79-.6 1.04-1.05 1.18m-.5-1.66c-.55.17-.87.69-.72 1.17.11.37.4.41 1.14.19.74-.22.95-.42.84-.79-.15-.48-.71-.74-1.25-.57M22 29.69c.46 1.52-.39 3.13-1.91 3.59-1.52.46-3.13-.39-3.59-1.91s.39-3.13 1.91-3.59c1.52-.46 3.13.39 3.59 1.91" class="color7dcdeb svgShape"></path><path fill="#e0cd93" d="M20.13,33.42c-1.6,.49-3.3-.42-3.78-2.02-.49-1.6,.42-3.3,2.02-3.78,1.6-.49,3.3,.42,3.78,2.02,.49,1.6-.42,3.3-2.02,3.78m-1.68-5.5c-1.44,.44-2.25,1.96-1.81,3.4,.44,1.43,1.96,2.25,3.4,1.81,1.43-.44,2.25-1.96,1.81-3.4-.44-1.44-1.96-2.25-3.4-1.81" class="color7dcdeb svgShape"></path><path fill="#e4e462" d="M16.38,30.27c-.03,.36,0,.72,.11,1.09,.11,.36,.29,.69,.51,.96,.77-.08,1.67-.26,2.62-.55,.95-.29,1.8-.64,2.48-1.01,.03-.36,0-.72-.11-1.09-.11-.36-.29-.69-.51-.97-.77,.08-1.67,.26-2.62,.55-.95,.29-1.8,.64-2.48,1.01" class="color134d99 svgShape"></path><rect width=".39" height="2.02" x="17.32" y="35.83" fill="#e0cd93" transform="rotate(-82.24 17.522 36.843)" class="color7dcdeb svgShape"></rect><polygon fill="#e0cd93" points="18.58 36.4 16.57 36.12 16.62 35.74 18.63 36.01 18.58 36.4" class="color7dcdeb svgShape"></polygon><rect width="2.02" height=".39" x="23.18" y="34.57" fill="#e0cd93" transform="rotate(-41.65 24.184 34.764)" class="color7dcdeb svgShape"></rect><rect width="2.02" height=".39" x="22.62" y="33.99" fill="#e0cd93" transform="rotate(-41.65 23.634 34.193)" class="color7dcdeb svgShape"></rect><rect width="2.2" height=".39" x="20.19" y="41.05" fill="#e0cd93" transform="rotate(-16.95 21.295 41.247)" class="color7dcdeb svgShape"></rect><rect width="2.18" height=".39" x="20.36" y="41.78" fill="#e0cd93" transform="rotate(-16.95 21.463 41.958)" class="color7dcdeb svgShape"></rect><rect width="2.2" height=".39" x="22.47" y="40.35" fill="#e0cd93" transform="rotate(-16.95 23.564 40.522)" class="color7dcdeb svgShape"></rect><rect width="2.18" height=".39" x="22.76" y="41.05" fill="#e0cd93" transform="rotate(-16.95 23.866 41.253)" class="color7dcdeb svgShape"></rect><rect width="2.33" height="1.14" x="19.54" y="34.73" fill="#e0cd93" transform="rotate(-16.93 20.709 35.293)" class="color7dcdeb svgShape"></rect><path fill="#e0cd93" d="M22.22,35.63l-2.6,.79-.45-1.46,2.6-.79,.45,1.46Zm-2.34,.31l1.86-.57-.22-.72-1.86,.57,.22,.72Z" class="color7dcdeb svgShape"></path><path fill="#ffffff" d="M18.86 31.99l.53-2.87c-.17.05-.35.1-.53.15h0l-.53 2.85c.17-.04.35-.08.53-.12M17.38 32.28c.17-.02.34-.05.52-.08l.52-2.79c-.18.06-.36.13-.54.19l-.49 2.68z" class="colorfff svgShape"></path><path fill="#e4e462" d="M19.67,31.93c-.93,.28-1.85,.48-2.65,.55-.05,0-.1-.02-.14-.06-.24-.3-.43-.65-.54-1.02-.11-.37-.15-.76-.12-1.15,0-.05,.04-.1,.08-.12,.71-.38,1.58-.74,2.51-1.02,.93-.28,1.85-.48,2.65-.56,.05,0,.1,.02,.14,.06,.24,.3,.43,.65,.54,1.02,.11,.37,.15,.76,.12,1.14,0,.05-.03,.1-.08,.12-.71,.38-1.58,.74-2.51,1.02m-2.6,.24c.76-.08,1.63-.27,2.51-.53,.88-.27,1.7-.6,2.38-.96,.02-.32-.02-.64-.11-.94-.09-.31-.24-.59-.43-.85-.77,.08-1.63,.27-2.51,.53-.88,.27-1.7,.6-2.38,.95-.02,.32,.02,.64,.11,.95,.09,.31,.24,.59,.43,.85" class="color134d99 svgShape"></path></g></g></svg></g></svg>