<?xml version="1.0" encoding="UTF-8" standalone="no"?>
<svg
   class="gridItem__media"
   version="1.1"
   id="Layer_1"
   x="0px"
   y="0px"
   width="1600"
   height="1200"
   viewBox="0 0 1600 1200"
   style="enable-background:new 0 0 1600 1200;"
   xml:space="preserve"
   fill="none"
   sodipodi:docname="Marketing.svg"
   inkscape:version="1.1.2 (0a00cf5339, 2022-02-04, custom)"
   xmlns:inkscape="http://www.inkscape.org/namespaces/inkscape"
   xmlns:sodipodi="http://sodipodi.sourceforge.net/DTD/sodipodi-0.dtd"
   xmlns="http://www.w3.org/2000/svg"
   xmlns:svg="http://www.w3.org/2000/svg"><defs
   id="defs4773" /><sodipodi:namedview
   id="namedview4771"
   pagecolor="#ffffff"
   bordercolor="#666666"
   borderopacity="1.0"
   inkscape:pageshadow="2"
   inkscape:pageopacity="0.0"
   inkscape:pagecheckerboard="0"
   showgrid="false"
   inkscape:zoom="0.665"
   inkscape:cx="799.24812"
   inkscape:cy="659.3985"
   inkscape:window-width="1920"
   inkscape:window-height="991"
   inkscape:window-x="-9"
   inkscape:window-y="-9"
   inkscape:window-maximized="1"
   inkscape:current-layer="Layer_1" />

<path
   d="M 1494.2932,1180.0109 83.337891,1177.3265 c -0.480519,-0.04 -0.927482,-0.255 -1.252303,-0.6174 -0.326162,-0.349 -0.507363,-0.8188 -0.507363,-1.302 0,-0.4698 0.181201,-0.9396 0.507363,-1.2886 0.324821,-0.3623 0.771784,-0.577 1.252303,-0.6173 v 0 l 1410.968809,2.6844 c 0.4697,0.054 0.8992,0.2818 1.2214,0.6308 0.3087,0.3625 0.4831,0.8188 0.4831,1.2886 0,0.4698 -0.1744,0.9262 -0.4831,1.2885 -0.3222,0.349 -0.7517,0.5772 -1.2214,0.6309 z"
   fill="#b2b6bb"
   id="path4354"
   style="stroke-width:1.34223" />
<path
   d="m 1243.6046,441.91769 c -9.4359,4.58909 -19.6771,7.2749 -30.1466,7.9044 -10.4828,0.62817 -20.9656,-0.81071 -30.8847,-4.23743 -9.9191,-3.42672 -19.0596,-8.77149 -26.9117,-15.7323 -7.8521,-6.96081 -14.2411,-15.39808 -18.8316,-24.83263 v 0 c -9.2614,-19.05432 -10.5767,-41.00786 -3.6643,-61.03127 6.9259,-20.02342 21.516,-36.47784 40.5757,-45.74326 19.0463,-9.26409 41.0052,-10.58082 61.0313,-3.66161 20.0127,6.9192 36.4684,21.50926 45.7432,40.55956 v 0 c 9.2614,19.05432 10.5768,41.00786 3.6509,61.03127 -6.9259,20.02342 -21.5159,36.47784 -40.5622,45.74327 z"
   class="change-color-in-svg"
   fill="#4D61FC"
   style="fill:#8c4fdb;stroke-width:1.34223"
   id="path4356" />
<path
   d="m 1192.7877,390.51021 c 0.2953,0.0109 0.5905,-0.0496 0.8724,-0.17583 0.2685,-0.12751 0.4967,-0.31677 0.6846,-0.55301 0.1745,-0.23757 0.2952,-0.51407 0.349,-0.80667 0.053,-0.29396 0.04,-0.59595 -0.053,-0.88051 -0.1879,-0.96641 -0.7114,-3.39584 -0.9127,-4.41594 -0.2684,-1.34223 -0.604,-1.75832 -2.0268,-2.38917 -3.5435,-1.61202 -6.3621,-4.48171 -7.9057,-8.0534 -6.0267,-12.38879 -2.1476,-27.98553 12.7109,-35.20674 13.1538,-6.40243 24.3079,-1.87911 29.5291,8.85873 6.8722,14.1337 6.4159,29.09959 -2.8724,33.5558 -5.1273,2.49655 -11.0197,0.1208 -12.3216,-5.66422 -1.5436,-6.93934 -1.9597,-15.01957 -4.1341,-19.50262 -1.9462,-4.0267 -5.7314,-6.30849 -10.1876,-4.1475 -5.2481,2.55024 -6.8185,10.02648 -3.2885,17.28794 1.2751,2.68312 3.1141,5.06559 5.369,6.99303 0,0 5.6911,25.32791 6.7111,29.7707 1.9731,8.83188 8.2951,17.78457 8.9125,18.69729 0.08,0.1302 0.2013,0.23221 0.3355,0.29261 0.1343,0.0617 0.2953,0.0765 0.443,0.0456 0.1476,-0.0308 0.2818,-0.10743 0.3758,-0.21878 0.1075,-0.11141 0.1745,-0.251 0.1879,-0.40133 0.1745,-0.87245 2.6845,-11.61031 1.047,-20.34823 -0.4698,-2.46971 -3.1006,-15.14038 -3.1006,-15.14038 3.275,2.41602 9.6372,2.85896 14.939,0.28187 15.7578,-7.66414 19.4489,-27.22046 10.107,-46.44122 -7.0735,-14.53637 -25.9587,-22.09314 -44.6828,-12.9928 -23.2878,11.32844 -26.8447,33.73029 -20.1336,47.64922 3.9999,8.44265 10.8453,14.44242 19.0463,13.90553 z"
   fill="#ffffff"
   id="path4358"
   style="stroke-width:1.34223" />
<path
   d="m 595.14561,219.38908 c -23.29845,0 -45.64393,-9.25603 -62.11848,-25.73058 -16.47456,-16.47456 -25.73058,-38.82003 -25.73058,-62.11849 0,-23.29845 9.25602,-45.643925 25.73058,-62.11848 16.47455,-16.474555 38.82003,-25.730584 62.11848,-25.730584 11.53648,0 22.96022,2.272404 33.61888,6.686997 10.65867,4.414605 20.34287,10.885504 28.49961,19.043587 8.15808,8.156737 14.62898,17.84229 19.04359,28.499606 4.4146,10.658664 6.68699,22.082394 6.68699,33.618874 0,11.53649 -2.27239,22.96022 -6.68699,33.61888 -4.41461,10.65732 -10.88551,20.34153 -19.04359,28.49961 -8.15674,8.15808 -17.84094,14.62898 -28.49961,19.04359 -10.65866,4.41459 -22.0824,6.68699 -33.61888,6.68699 z"
   fill="#868a91"
   id="path4360"
   style="stroke-width:1.34223" />
<path
   d="m 573.49541,111.95685 h -18.18723 v 58.73607 h 18.18723 z"
   fill="#ffffff"
   id="path4362"
   style="stroke-width:1.34223" />
<path
   d="m 564.3159,104.26586 c 2.14891,0.0215 4.25621,-0.59728 6.05481,-1.77577 1.79724,-1.17848 3.2039,-2.864325 4.04145,-4.844108 0.83755,-1.979794 1.06708,-4.163607 0.66038,-6.274939 -0.40535,-2.109985 -1.42948,-4.053543 -2.94217,-5.581003 -1.5127,-1.527459 -3.44417,-2.570368 -5.55148,-2.997198 -2.1073,-0.428178 -4.29245,-0.218781 -6.28029,0.598634 -1.98786,0.817425 -3.68845,2.206634 -4.88439,3.99314 -1.19726,1.785169 -1.83617,3.887105 -1.83617,6.036019 -0.0148,1.418732 0.25368,2.826742 0.78655,4.142123 0.53287,1.315391 1.3221,2.511322 2.32072,3.520682 0.99861,1.00801 2.1865,1.80798 3.49651,2.35427 1.31002,0.54763 2.71533,0.82815 4.13408,0.82815 z"
   fill="#ffffff"
   id="path4364"
   style="stroke-width:1.34223" />
<path
   d="m 602.55608,139.86185 c 0,-8.25472 3.79852,-13.18071 11.07341,-13.18071 6.71116,0 9.90567,4.72465 9.90567,13.18071 v 30.87133 h 18.10671 v -37.23351 c 0,-15.73096 -8.91242,-23.32799 -21.36834,-23.3414 -3.53812,-0.0483 -7.02792,0.82009 -10.12981,2.5207 -3.10325,1.70061 -5.71254,4.17569 -7.57422,7.18363 v -7.90575 h -17.44902 v 58.73607 h 17.44902 z"
   fill="#ffffff"
   id="path4366"
   style="stroke-width:1.34223" />
<path
   d="m 691.64,158.33096 h 402.0386 c 14.4814,0 28.36,5.75146 38.6012,15.98866 10.2413,10.23721 15.9861,24.12259 15.9861,38.5999 v 907.22788 c 0,14.4827 -5.7448,28.3614 -15.9861,38.6026 -10.2412,10.2413 -24.1198,15.9861 -38.6012,15.9861 H 683.30474 c -7.51113,0 -14.71488,-2.9798 -20.0261,-8.2951 -5.31121,-5.3152 -8.29499,-12.5096 -8.29499,-20.0261 V 194.94704 c 0.002,-4.8119 0.95164,-9.57548 2.79452,-14.01961 1.84423,-4.44412 4.5448,-8.48156 7.9487,-11.88143 3.4039,-3.40122 7.44537,-6.09776 11.89083,-7.93527 4.44682,-1.83886 9.21174,-2.7838 14.0223,-2.77977 z"
   fill="#3f4249"
   id="path4368"
   style="stroke-width:1.34223" />
<path
   opacity="0.3"
   d="m 691.64,158.33096 h 402.0386 c 14.4814,0 28.36,5.75146 38.6012,15.98866 10.2413,10.23721 15.9861,24.12259 15.9861,38.5999 v 907.22788 c 0,14.4827 -5.7448,28.3614 -15.9861,38.6026 -10.2412,10.2413 -24.1198,15.9861 -38.6012,15.9861 H 689.98905 c -9.28287,0 -18.18723,-3.6913 -24.7521,-10.2547 -6.56485,-6.5635 -10.2533,-15.4626 -10.2533,-24.7508 V 194.94704 c 0.002,-4.8119 0.95164,-9.57548 2.79452,-14.01961 1.84423,-4.44412 4.5448,-8.48156 7.9487,-11.88143 3.4039,-3.40122 7.44537,-6.09776 11.89083,-7.93527 4.44682,-1.83886 9.21174,-2.7838 14.0223,-2.77977 z"
   fill="#000000"
   id="path4370"
   style="stroke-width:1.34223" />
<path
   d="M 1109.0458,172.41097 H 646.13969 v 977.25213 h 462.90611 z"
   fill="#ffffff"
   id="path4372"
   style="stroke-width:1.34223" />
<path
   d="M 1100.2005,176.2766 H 651.89651 v 114.0897 h 448.30399 z"
   class="change-color-in-svg"
   fill="#4D61FC"
   style="fill:#8c4fdb;stroke-width:1.34223"
   id="path4374" />
<path
   d="M 1066.43,1013.3058 V 832.10445 c 0,-1.51269 -0.6,-2.96364 -1.6697,-4.0334 -1.0698,-1.06976 -2.5208,-1.67108 -4.0348,-1.67108 H 689.59847 c -1.5127,0 -2.96365,0.60132 -4.03341,1.67108 -1.06976,1.06976 -1.67109,2.52071 -1.67109,4.0334 v 63.74259 l 382.53603,-0.094 z M 718.24169,880.07581 c -3.51128,0.0109 -6.94874,-1.02143 -9.87346,-2.96498 -2.92606,-1.94356 -5.20786,-4.71258 -6.55948,-7.95407 -1.35028,-3.24283 -1.70866,-6.81317 -1.0295,-10.25867 0.68051,-3.44552 2.3677,-6.61318 4.84815,-9.09899 2.48044,-2.48716 5.64408,-4.18105 9.08824,-4.86828 3.44417,-0.68722 7.01451,-0.3369 10.26002,1.00533 3.24553,1.34358 6.01857,3.62 7.97018,6.54204 1.95026,2.92069 2.98915,6.35413 2.98646,9.86675 -0.002,4.69512 -1.86704,9.19697 -5.18236,12.51899 -3.31531,3.32336 -7.81313,5.19712 -12.50825,5.21188 z"
   fill="#dadddf"
   id="path4376"
   style="stroke-width:1.34223" />
<path
   d="m 1066.4045,895.76651 -382.53602,0.0939 v 247.86999 h 19.006 l 115.37824,-154.27606 82.77543,111.63346 56.05159,-59.6891 89.00336,102.372 h 20.3751 v -130.4516 z m -165.524,94.18448 c -4.8884,-0.0456 -9.65332,-1.53555 -13.69612,-4.28449 -4.04147,-2.74749 -7.18095,-6.63057 -9.01981,-11.15925 -1.83885,-4.53004 -2.29789,-9.50166 -1.31672,-14.28941 0.98117,-4.78908 3.35826,-9.18086 6.83061,-12.621 3.47235,-3.44014 7.88428,-5.77696 12.68275,-6.71385 4.79714,-0.93687 9.76474,-0.43353 14.27598,1.44693 4.51258,1.88181 8.36613,5.05485 11.07744,9.12316 2.71131,4.06695 4.15823,8.8453 4.15823,13.7337 -0.0148,3.267 -0.67246,6.50044 -1.93549,9.5124 -1.26439,3.01331 -3.10861,5.74744 -5.42934,8.04803 -2.32205,2.29919 -5.07228,4.11932 -8.09768,5.35552 -3.02405,1.23619 -6.26285,1.86434 -9.52985,1.84826 z"
   fill="#b2b6bb"
   id="path4378"
   style="stroke-width:1.34223" />
<path
   d="m 900.98788,1101.0878 -82.72174,-111.63341 -115.36481,154.27601 343.18177,0.027 -89.01677,-102.372 z"
   fill="#ffffff"
   id="path4380"
   style="stroke-width:1.34223" />
<path
   d="m 900.8644,940.43603 c -4.88707,0.0483 -9.65198,1.54089 -13.6921,4.29112 -4.04147,2.75023 -7.17826,6.63599 -9.01444,11.16602 -1.83751,4.53004 -2.29253,9.50166 -1.30867,14.2894 0.98385,4.78774 3.36229,9.17818 6.83598,12.61698 3.47504,3.43883 7.8883,5.77154 12.68678,6.70708 4.79713,0.93424 9.76474,0.42818 14.27597,-1.45495 4.5099,-1.88314 8.36345,-5.06019 11.07207,-9.12849 2.70863,-4.06831 4.15287,-8.84799 4.15018,-13.73641 -0.0148,-3.26698 -0.67513,-6.49908 -1.93951,-9.51239 -1.26573,-3.01197 -3.11264,-5.74475 -5.43471,-8.044 -2.32205,-2.29789 -5.07498,-4.11662 -8.10036,-5.35148 -3.02405,-1.23485 -6.26286,-1.86033 -9.53119,-1.84288 z"
   fill="#ffffff"
   id="path4382"
   style="stroke-width:1.34223" />
<path
   d="m 718.25645,880.07581 c 9.79292,0 17.73089,-7.93795 17.73089,-17.73087 0,-9.79293 -7.93797,-17.73088 -17.73089,-17.73088 -9.79292,0 -17.73088,7.93795 -17.73088,17.73088 0,9.79292 7.93796,17.73087 17.73088,17.73087 z"
   fill="#b2b6bb"
   id="path4384"
   style="stroke-width:1.34223" />
<path
   d="m 749.71702,856.55991 153.69896,0.0135"
   stroke="#263238"
   stroke-width="1.18116"
   stroke-miterlimit="10"
   stroke-linecap="round"
   id="path4386" />
<path
   d="m 750.30895,864.2509 h 73.90328"
   stroke="#263238"
   stroke-width="1.18116"
   stroke-miterlimit="10"
   stroke-linecap="round"
   id="path4388" />
<path
   d="M 1100.1603,1076.9141 H 651.85356 v 79.1918 h 448.30674 z"
   class="change-color-in-svg"
   fill="#4D61FC"
   style="fill:#8c4fdb;stroke-width:1.34223"
   id="path4390" />
<path
   d="M 1065.4663,1145.4753 H 686.62139 c -19.08653,0 -34.54905,-14.7645 -34.54905,-32.9249 V 218.10054 c 0,-18.17381 15.47595,-32.92495 34.56248,-32.92495 h 68.19879 c 3.98509,-0.0577 7.88696,1.14224 11.15261,3.42941 3.2643,2.28581 5.72595,5.54342 7.03463,9.30838 l 3.1274,9.503 c 1.30733,3.7663 3.76898,7.02523 7.0333,9.31375 3.2643,2.2885 7.16752,3.49114 11.15395,3.43745 h 163.48382 c 3.98508,0.0577 7.88695,-1.14224 11.1526,-3.42941 3.26431,-2.28581 5.72597,-5.54342 7.03463,-9.30837 l 3.12741,-9.50301 c 1.30867,-3.76495 3.77032,-7.02255 7.03464,-9.30837 3.2643,-2.28716 7.16752,-3.48711 11.1526,-3.4294 h 68.1988 c 19.0865,0 34.5597,14.76455 34.5463,32.92494 v 894.44994 c -0.04,18.1737 -15.5135,32.9114 -34.6,32.9114 z M 629.45575,204.39636 v 923.09314 c 0,12.3753 4.91525,24.2406 13.66525,32.992 8.75002,8.7514 20.61668,13.6639 32.99071,13.6639 h 399.98499 c 12.3754,0 24.2381,-4.9125 32.9894,-13.6639 8.7514,-8.7514 13.6774,-20.6167 13.6774,-32.992 V 204.39636 c 0,-12.37404 -4.9126,-24.24071 -13.664,-32.99073 -8.7513,-8.75 -20.6153,-13.66525 -32.9893,-13.66525 H 676.12514 c -6.12863,-10e-4 -12.19685,1.20398 -17.85839,3.54752 -5.66288,2.34353 -10.80765,5.77964 -15.14172,10.11237 -4.33272,4.33273 -7.77152,9.4775 -10.1164,15.13904 -2.34622,5.66018 -3.55288,11.72842 -3.55288,17.85705 z"
   fill="#3f4249"
   id="path4392"
   style="stroke-width:1.34223" />
<path
   d="m 1059.2611,254.31396 h -30.7236 c -0.196,0 -0.3825,-0.0779 -0.5221,-0.21611 -0.1383,-0.13824 -0.2161,-0.32616 -0.2161,-0.52212 -10e-4,-0.098 0.016,-0.19463 0.052,-0.28455 0.038,-0.0899 0.091,-0.17182 0.1597,-0.24161 0.07,-0.0684 0.1516,-0.12349 0.2416,-0.15972 0.091,-0.0363 0.1879,-0.0537 0.2845,-0.0524 h 30.7773 c 0.098,0 0.1933,0.0188 0.2832,0.0564 0.09,0.0376 0.1705,0.0912 0.239,0.15972 0.068,0.0684 0.1234,0.15033 0.1597,0.24027 0.038,0.0886 0.056,0.18523 0.056,0.28187 0,0.10199 -0.02,0.20267 -0.06,0.29529 -0.04,0.094 -0.099,0.17717 -0.1745,0.24697 -0.074,0.0684 -0.1611,0.12214 -0.2577,0.15569 -0.095,0.0336 -0.1973,0.0483 -0.2994,0.0403 z"
   fill="#ffffff"
   id="path4394"
   style="stroke-width:1.34223" />
<path
   d="m 1059.2625,264.42095 h -30.7237 c -0.098,10e-4 -0.1946,-0.0161 -0.2845,-0.0523 -0.09,-0.0363 -0.1732,-0.0912 -0.2416,-0.15973 -0.068,-0.0684 -0.1235,-0.15167 -0.1598,-0.2416 -0.036,-0.0899 -0.054,-0.18657 -0.052,-0.28455 -0.01,-0.10069 0.01,-0.2 0.044,-0.29529 0.035,-0.094 0.089,-0.17986 0.1571,-0.25234 0.07,-0.0739 0.153,-0.13154 0.2443,-0.17046 0.093,-0.0403 0.1919,-0.0604 0.2926,-0.0604 h 30.7773 c 0.1959,0 0.3838,0.0779 0.5221,0.21609 0.1382,0.13826 0.2161,0.32617 0.2161,0.52214 0.01,0.10471 -0.011,0.20938 -0.048,0.30871 -0.038,0.098 -0.097,0.18657 -0.1719,0.26039 -0.074,0.0739 -0.1637,0.1302 -0.263,0.16644 -0.098,0.0363 -0.204,0.051 -0.3087,0.0429 z"
   fill="#ffffff"
   id="path4396"
   style="stroke-width:1.34223" />
<path
   d="m 1059.2611,274.54139 h -30.7236 c -0.196,0 -0.3825,-0.0779 -0.5221,-0.2161 -0.1383,-0.13825 -0.2161,-0.32616 -0.2161,-0.52213 -10e-4,-0.098 0.016,-0.19463 0.052,-0.28456 0.038,-0.0912 0.091,-0.17315 0.1597,-0.2416 0.07,-0.0684 0.1516,-0.12349 0.2416,-0.15972 0.091,-0.0363 0.1879,-0.0537 0.2845,-0.0524 h 30.7773 c 0.196,0 0.3839,0.0779 0.5222,0.2161 0.1382,0.13825 0.216,0.32616 0.216,0.52212 0,0.102 -0.02,0.20269 -0.06,0.2953 -0.04,0.094 -0.099,0.17718 -0.1745,0.24696 -0.074,0.0684 -0.1611,0.12215 -0.2577,0.15571 -0.095,0.0336 -0.1973,0.047 -0.2994,0.0403 z"
   fill="#ffffff"
   id="path4398"
   style="stroke-width:1.34223" />
<path
   d="m 703.78586,248.98529 -11.63715,10.14727 c -0.18791,0.16779 -0.33824,0.37583 -0.43758,0.60669 -0.0993,0.23221 -0.14764,0.48321 -0.13958,0.73554 v 17.194 c 0.002,0.29797 0.12348,0.58252 0.33421,0.79325 0.21073,0.21074 0.49528,0.3302 0.79326,0.33422 h 6.99303 c 0.29931,0 0.58789,-0.11812 0.8013,-0.32885 0.21342,-0.21207 0.33556,-0.49796 0.33959,-0.79862 v -9.01981 c 0,-0.30066 0.11811,-0.58789 0.32885,-0.80265 0.21073,-0.21342 0.49797,-0.33421 0.79863,-0.33824 h 5.94608 c 0.29933,0.004 0.58656,0.12482 0.79729,0.33824 0.21207,0.21476 0.33019,0.50199 0.33019,0.80265 v 9.01981 c 0.002,0.30066 0.12483,0.58655 0.33824,0.79862 0.21342,0.21073 0.502,0.32885 0.80266,0.32885 h 6.96618 c 0.29798,-0.004 0.58253,-0.12348 0.79326,-0.33422 0.21073,-0.21073 0.33019,-0.49528 0.33422,-0.79325 v -17.24768 c -10e-4,-0.2416 -0.0524,-0.47918 -0.15168,-0.69931 -0.0993,-0.22012 -0.24428,-0.41609 -0.42548,-0.57581 l -11.63715,-10.1607 c -0.31543,-0.27247 -0.7181,-0.4228 -1.13419,-0.4228 -0.41744,0 -0.8201,0.15033 -1.13418,0.4228 z"
   stroke="#ffffff"
   stroke-width="2.46971"
   stroke-miterlimit="10"
   id="path4400" />
<path
   d="m 1063.9777,326.80118 -374.73761,-0.78521 c -2.2979,-0.004 -4.16495,1.85497 -4.16898,4.15286 l -0.92614,442.06269 c -0.005,2.2979 1.85362,4.16495 4.15153,4.17031 l 374.7376,0.78388 c 2.2979,0.005 4.165,-1.85364 4.169,-4.15153 l 0.9262,-442.06269 c 0.01,-2.2979 -1.8537,-4.16495 -4.1516,-4.17031 z"
   fill="#dadddf"
   id="path4402"
   style="stroke-width:1.34223" />
<path
   d="M 1067.9736,395.89256 H 684.16243 v 272.15091 h 383.81117 z"
   fill="#b2b6bb"
   id="path4404"
   style="stroke-width:1.34223" />
<path
   d="M 686.19053,668.03004 819.501,489.54006 l 82.6412,111.62 56.01133,-59.70247 109.84817,126.4785 z"
   fill="#ffffff"
   id="path4406"
   style="stroke-width:1.34223" />
<path
   d="m 927.03926,465.25909 c 0.047,4.95284 -1.37713,9.80903 -4.0938,13.94982 -2.71803,4.14213 -6.60379,7.38361 -11.16603,9.31106 -4.56225,1.92879 -9.59561,2.45897 -14.45852,1.52209 -4.86425,-0.93688 -9.34059,-3.29786 -12.85992,-6.78364 -3.51934,-3.48578 -5.92328,-7.93795 -6.90713,-12.7928 -0.98385,-4.85352 -0.50334,-9.89091 1.38116,-14.47195 1.88314,-4.58104 5.08706,-8.49901 9.20234,-11.25595 4.11393,-2.75695 8.95537,-4.22938 13.90954,-4.22938 3.26565,-0.0161 6.50312,0.61206 9.52717,1.84691 3.02405,1.23486 5.77428,3.05358 8.09499,5.35282 2.32072,2.2979 4.16629,5.03069 5.43068,8.04266 1.26438,3.01062 1.92342,6.24272 1.93952,9.50836 z"
   fill="#ffffff"
   id="path4408"
   style="stroke-width:1.34223" />
<path
   d="m 719.42016,380.14818 c 9.79293,0 17.73089,-7.93796 17.73089,-17.73089 0,-9.79292 -7.93796,-17.73087 -17.73089,-17.73087 -9.79157,0 -17.73087,7.93795 -17.73087,17.73087 0,9.79293 7.9393,17.73089 17.73087,17.73089 z"
   fill="#b2b6bb"
   id="path4410"
   style="stroke-width:1.34223" />
<path
   d="m 1050.4172,753.07385 -7.7178,-7.74467 -7.3555,7.32857 v -20.97907 h 15.0598 z"
   stroke="#263238"
   stroke-miterlimit="10"
   id="path4412"
   style="stroke-width:1.34223" />
<path
   d="m 755.10071,751.87926 -3.6106,-1.61067 c -2.06301,0.95969 -4.40923,1.11539 -6.58096,0.43756 -2.17307,-0.67917 -4.01327,-2.1422 -5.16357,-4.10589 -1.14894,-1.96368 -1.52477,-4.28574 -1.05365,-6.5125 0.47112,-2.22543 1.75565,-4.19582 3.60255,-5.52463 1.84691,-1.33015 4.122,-1.92207 6.38366,-1.66303 2.26031,0.2604 4.34211,1.35298 5.8387,3.067 1.49794,1.71404 2.30193,3.92335 2.2563,6.19843 -0.0469,2.27508 -0.93957,4.45084 -2.50461,6.10313 z m -8.42921,-19.54289 c -1.31538,-0.1396 -2.64688,10e-4 -3.90455,0.41206 -1.25767,0.41073 -2.41468,1.08318 -3.39451,1.97174 -0.98117,0.8899 -1.76235,1.97577 -2.29387,3.18781 -0.53018,1.21203 -0.79997,2.52339 -0.78924,3.84683 0.0109,1.3221 0.30066,2.62943 0.85098,3.83206 0.55032,1.204 1.34895,2.27777 2.34219,3.15157 0.9946,0.87246 2.16234,1.52612 3.42673,1.91805 1.26438,0.39059 2.59587,0.51005 3.90991,0.35033 1.59458,-0.0912 3.13948,-0.58119 4.49648,-1.42278 l 0.14765,-0.0805 2.68446,1.19458 -0.60401,-2.61735 0.12081,-0.13423 c 1.22948,-1.34088 2.04019,-3.01197 2.33011,-4.80787 0.29126,-1.79456 0.0496,-3.63611 -0.69394,-5.29644 -0.74359,-1.66034 -1.95697,-3.06566 -3.49114,-4.04415 -1.53283,-0.97848 -3.31933,-1.48719 -5.13806,-1.46169 z"
   stroke="#263238"
   stroke-width="0.671115"
   stroke-miterlimit="10"
   id="path4414" />
<path
   d="m 766.39962,733.16856 8.93927,7.07355 2.95291,10.09359 10.46941,-18.49596 z m 20.46903,-0.57716 -11.35528,6.97959 -7.36884,-5.7179 z m -8.57685,15.91886 -2.29522,-8.42921 11.44923,-7.0333 z"
   stroke="#263238"
   stroke-width="0.671115"
   stroke-miterlimit="10"
   id="path4416" />
<path
   d="m 721.95833,735.27586 c -0.27784,-1.34492 -1.02278,-2.54891 -2.10327,-3.39854 -1.07916,-0.84963 -2.42542,-1.28988 -3.79852,-1.24424 -1.37311,0.0469 -2.68581,0.57716 -3.70591,1.49792 -1.0201,0.92078 -1.68182,2.17308 -1.86838,3.53411 -0.19462,-1.36908 -0.86977,-2.62273 -1.90598,-3.53813 -1.03619,-0.91541 -2.36366,-1.43082 -3.74616,-1.45632 -1.38249,-0.0241 -2.72742,0.44562 -3.79448,1.32344 -1.06708,0.87916 -1.78652,2.10865 -2.02946,3.46967 -0.2671,2.0026 0.24697,4.03072 1.43619,5.66422 1.18116,1.60799 2.56097,3.06028 4.10722,4.32198 l 6.13401,5.36892 c 2.06703,-1.87911 3.82535,-3.65087 5.87896,-5.54341 1.52478,-1.27914 2.87775,-2.75023 4.02671,-4.37567 1.15432,-1.63216 1.64422,-3.64282 1.36907,-5.62395 z"
   class="change-color-in-svg"
   fill="#4D61FC"
   style="fill:#8c4fdb;stroke-width:1.34223"
   id="path4418" />
<path
   d="m 698.11895,685.77435 323.94765,0.0135"
   stroke="#263238"
   stroke-width="1.18116"
   stroke-miterlimit="10"
   stroke-linecap="round"
   id="path4420" />
<path
   d="m 698.11895,695.22366 323.94765,0.0268"
   stroke="#263238"
   stroke-width="1.18116"
   stroke-miterlimit="10"
   stroke-linecap="round"
   id="path4422" />
<path
   d="m 698.11895,704.6864 177.34908,0.0135"
   stroke="#263238"
   stroke-width="1.18116"
   stroke-miterlimit="10"
   stroke-linecap="round"
   id="path4424" />
<path
   d="m 748.97745,355.0216 153.69897,0.0135"
   stroke="#263238"
   stroke-width="1.18116"
   stroke-miterlimit="10"
   stroke-linecap="round"
   id="path4426" />
<path
   d="m 749.56938,362.71259 h 73.88986"
   stroke="#263238"
   stroke-width="1.18116"
   stroke-miterlimit="10"
   stroke-linecap="round"
   id="path4428" />
<path
   d="M 738.9228,1103.1414 H 710.897 c -0.18926,-0.053 -0.35435,-0.1611 -0.47381,-0.3222 -0.11812,-0.161 -0.18254,-0.349 -0.18254,-0.5503 0,-0.1879 0.0644,-0.3758 0.18254,-0.5369 0.11946,-0.1611 0.28455,-0.2684 0.47381,-0.3221 h 28.0258 c 0.18925,0.053 0.35568,0.161 0.47381,0.3221 0.11811,0.1611 0.18254,0.349 0.18254,0.5369 0,0.2013 -0.0644,0.3893 -0.18254,0.5503 -0.11813,0.1611 -0.28456,0.2685 -0.47381,0.3222 z"
   fill="#ffffff"
   stroke="#ffffff"
   stroke-width="0.604004"
   stroke-miterlimit="10"
   id="path4430" />
<path
   d="M 738.9228,1112.537 H 710.897 c -0.18926,-0.053 -0.35435,-0.161 -0.47381,-0.3221 -0.11812,-0.1611 -0.18254,-0.349 -0.18254,-0.5504 0,-0.1879 0.0644,-0.3758 0.18254,-0.5369 0.11946,-0.161 0.28455,-0.2684 0.47381,-0.3221 h 28.0258 c 0.18925,0.053 0.35568,0.1611 0.47381,0.3221 0.11811,0.1611 0.18254,0.349 0.18254,0.5369 0,0.2014 -0.0644,0.3893 -0.18254,0.5504 -0.11813,0.1611 -0.28456,0.2684 -0.47381,0.3221 z"
   fill="#ffffff"
   stroke="#ffffff"
   stroke-width="0.604004"
   stroke-miterlimit="10"
   id="path4432" />
<path
   d="m 738.92682,1121.9326 h -28.0258 c -0.19462,-0.053 -0.36643,-0.1611 -0.48991,-0.3222 -0.12348,-0.161 -0.1906,-0.349 -0.1906,-0.5502 0,-0.2014 0.0671,-0.3893 0.1906,-0.5504 0.12348,-0.161 0.29529,-0.2684 0.48991,-0.3221 h 28.0258 c 0.18926,0.053 0.35569,0.1611 0.47381,0.3221 0.11812,0.1611 0.18254,0.349 0.18254,0.5369 0,0.2014 -0.0644,0.3893 -0.18254,0.5504 -0.11812,0.1611 -0.28455,0.2684 -0.47381,0.322 z"
   fill="#ffffff"
   stroke="#ffffff"
   stroke-width="0.604004"
   stroke-miterlimit="10"
   id="path4434" />
<path
   d="m 1026.6852,1100.2019 15.0867,10.268 -15.1001,12.6841"
   stroke="#ffffff"
   stroke-width="2.41602"
   stroke-miterlimit="10"
   stroke-linecap="round"
   id="path4436" />
<path
   d="m 886.88102,1106.8325 -0.0134,18.1202 h -24.14675 v -18.1202"
   stroke="#ffffff"
   stroke-width="2.41602"
   stroke-miterlimit="10"
   stroke-linecap="round"
   id="path4438" />
<path
   d="m 859.09818,1109.2485 15.7041,-10.8586 15.6907,10.8586"
   stroke="#ffffff"
   stroke-width="2.41602"
   stroke-miterlimit="10"
   stroke-linecap="round"
   id="path4440" />
<path
   d="m 1017.1849,204.08764 c -0.2953,0.30872 -0.604,0.60401 -0.9127,0.91272 l -0.5235,0.52347 c -1.1637,-1.16774 -2.5476,-2.09523 -4.071,-2.72741 -1.5248,-0.63354 -3.1583,-0.95836 -4.8079,-0.95836 -1.6496,0 -3.2831,0.32482 -4.8065,0.95836 -1.5234,0.63218 -2.90727,1.55967 -4.07232,2.72741 l -0.49663,-0.52347 c -0.30872,-0.30871 -0.61743,-0.604 -0.91272,-0.91272 h 0.0671 c 0.38925,-0.33556 0.76508,-0.69796 1.16774,-1.03351 0.83084,-0.66844 1.73015,-1.24426 2.68443,-1.71807 1.1315,-0.55567 2.3328,-0.95701 3.5704,-1.19458 0.5906,-0.10743 1.1946,-0.16106 1.7851,-0.24161 h 1.5705 l 1.208,0.094 c 1.1207,0.12886 2.22,0.39461 3.275,0.79192 0.7704,0.27382 1.5114,0.61877 2.2147,1.03352 0.753,0.42414 1.463,0.91809 2.1207,1.47646 0.3356,0.28187 0.6443,0.59057 0.9664,0.87244 z"
   fill="#ffffff"
   id="path4442"
   style="stroke-width:1.34223" />
<path
   d="m 1000.905,208.42305 -1.44965,-1.44961 c 1.58925,-1.61873 3.67105,-2.66164 5.91925,-2.96633 1.6134,-0.24429 3.2616,-0.1033 4.8106,0.40937 1.5476,0.51274 2.9542,1.38519 4.1018,2.54353 l -1.463,1.44961 c -1.5825,-1.57712 -3.726,-2.46165 -5.9595,-2.46165 -2.2335,0 -4.377,0.88453 -5.9595,2.46165 z"
   fill="#ffffff"
   id="path4444"
   style="stroke-width:1.34223" />
<path
   d="m 1011.3717,209.87266 -1.4496,1.44961 c -0.4,-0.40402 -0.8778,-0.72347 -1.4027,-0.93957 -0.5261,-0.21609 -1.0899,-0.32616 -1.6576,-0.32213 -0.5678,-0.004 -1.1302,0.10743 -1.6536,0.32616 -0.5235,0.22013 -0.9973,0.54226 -1.3933,0.94896 l -1.4496,-1.4496 c 0.5879,-0.59595 1.2886,-1.06976 2.0617,-1.39324 0.7718,-0.32348 1.6013,-0.49127 2.4388,-0.4926 0.8376,-0.001 1.6671,0.16375 2.4402,0.48454 0.7731,0.32214 1.4751,0.79326 2.0657,1.38787 z"
   fill="#ffffff"
   id="path4446"
   style="stroke-width:1.34223" />
<path
   d="m 1008.1799,212.63765 c 0,0.3557 -0.141,0.69797 -0.3933,0.94897 -0.251,0.25233 -0.5933,0.39326 -0.949,0.39326 -0.3557,0 -0.6979,-0.14093 -0.9489,-0.39326 -0.2524,-0.251 -0.3933,-0.59327 -0.3933,-0.94897 0,-0.35568 0.1409,-0.69795 0.3933,-0.94895 0.251,-0.25234 0.5932,-0.39328 0.9489,-0.39328 0.3557,0 0.698,0.14094 0.949,0.39328 0.2523,0.251 0.3933,0.59327 0.3933,0.94895 z"
   fill="#ffffff"
   id="path4448"
   style="stroke-width:1.34223" />
<path
   d="m 685.74491,206.85264 c 0,-0.75165 0.22281,-1.48586 0.64025,-2.10999 0.41743,-0.62548 1.0107,-1.11136 1.70464,-1.39994 0.69393,-0.28725 1.45901,-0.36241 2.19589,-0.2161 0.73554,0.1463 1.41337,0.50869 1.94355,1.04022 0.53153,0.53152 0.89392,1.20801 1.04022,1.9449 0.14631,0.73688 0.0711,1.50061 -0.2161,2.19454 -0.28723,0.69394 -0.77446,1.28721 -1.3986,1.70464 -0.62547,0.41744 -1.35967,0.64025 -2.11133,0.64025 -1.00667,0 -1.97308,-0.39999 -2.6858,-1.11272 -0.71139,-0.71272 -1.11272,-1.67913 -1.11272,-2.6858 z"
   fill="#ffffff"
   id="path4450"
   style="stroke-width:1.34223" />
<path
   d="m 697.70554,206.85264 c 0,-0.75165 0.22281,-1.48719 0.64025,-2.11133 0.41878,-0.62548 1.01204,-1.11272 1.70732,-1.39995 0.69527,-0.28723 1.45901,-0.36106 2.19589,-0.21342 0.73822,0.14765 1.41471,0.51139 1.9449,1.04292 0.53151,0.53287 0.89123,1.2107 1.03619,1.94892 0.14497,0.73823 0.0684,1.50195 -0.22146,2.19589 -0.28993,0.69393 -0.7785,1.28586 -1.40398,1.70195 -0.62682,0.41609 -1.36236,0.63622 -2.11402,0.63354 -0.4993,0 -0.9919,-0.098 -1.45229,-0.28993 -0.46039,-0.19059 -0.87782,-0.47112 -1.22949,-0.82413 -0.35165,-0.35301 -0.63084,-0.77178 -0.82009,-1.23216 -0.18926,-0.4604 -0.2859,-0.95433 -0.28322,-1.4523 z"
   fill="#ffffff"
   id="path4452"
   style="stroke-width:1.34223" />
<path
   d="m 709.65409,206.85264 c 0,-0.75165 0.22281,-1.48586 0.64025,-2.10999 0.41743,-0.62548 1.0107,-1.11136 1.70463,-1.39994 0.69393,-0.28725 1.45767,-0.36241 2.19455,-0.2161 0.73689,0.1463 1.41337,0.50869 1.9449,1.04022 0.53151,0.53152 0.89258,1.20801 1.04022,1.9449 0.1463,0.73688 0.0711,1.50061 -0.21744,2.19454 -0.28724,0.69394 -0.77312,1.28721 -1.39861,1.70464 -0.62413,0.41744 -1.35834,0.64025 -2.10998,0.64025 -1.00802,0 -1.97308,-0.39999 -2.68581,-1.11272 -0.71273,-0.71272 -1.11271,-1.67913 -1.11271,-2.6858 z"
   fill="#ffffff"
   id="path4454"
   style="stroke-width:1.34223" />
<path
   d="m 721.59727,206.85264 c 0,-0.75165 0.22281,-1.48586 0.64024,-2.10999 0.41744,-0.62548 1.0107,-1.11136 1.70464,-1.39994 0.69393,-0.28725 1.45766,-0.36241 2.19455,-0.2161 0.73688,0.1463 1.41471,0.50869 1.94489,1.04022 0.53153,0.53152 0.89393,1.20801 1.04023,1.9449 0.14631,0.73688 0.0711,1.50061 -0.2161,2.19454 -0.28724,0.69394 -0.77447,1.28721 -1.39861,1.70464 -0.62547,0.41744 -1.35967,0.64025 -2.11133,0.64025 -1.00667,0 -1.97308,-0.39999 -2.6858,-1.11272 -0.71272,-0.71272 -1.11271,-1.67913 -1.11271,-2.6858 z"
   fill="#ffffff"
   id="path4456"
   style="stroke-width:1.34223" />
<path
   d="m 1075.9464,213.8054 h -24.1602 v -11.18079 h 24.1602 z m -22.9387,-1.20801 h 21.7173 v -8.75135 h -21.7173 z"
   fill="#ffffff"
   id="path4458"
   style="stroke-width:1.34223" />
<path
   d="m 1069.3829,204.51715 h -15.5833 v 7.3957 h 15.5833 z"
   fill="#ffffff"
   id="path4460"
   style="stroke-width:1.34223" />
<path
   d="m 1078.1208,205.22853 h -2.1475 v 5.98636 h 2.1475 z"
   fill="#ffffff"
   id="path4462"
   style="stroke-width:1.34223" />
<path
   d="M 956.75761,258.4883 H 795.34082 c -2.86969,0 -5.19444,2.32608 -5.19444,5.19443 v 0.0134 c 0,2.86836 2.32475,5.19444 5.19444,5.19444 h 161.41679 c 2.86836,0 5.19444,-2.32608 5.19444,-5.19444 v -0.0134 c 0,-2.86835 -2.32608,-5.19443 -5.19444,-5.19443 z"
   fill="#ffffff"
   id="path4464"
   style="stroke-width:1.34223" />
<path
   d="m 604.74526,691.70701 2.68446,23.85146 c 0.28455,2.49789 1.46169,4.81056 3.31531,6.50982 l 21.24753,19.40868 c 0.14765,0.13557 0.32751,0.23354 0.52213,0.28455 0.19463,0.0496 0.39864,0.0523 0.59461,0.005 0.19597,-0.0456 0.37717,-0.13959 0.52883,-0.27112 0.15168,-0.13289 0.26846,-0.30066 0.34094,-0.48857 0.65769,-1.51002 0.74225,-3.20928 0.2416,-4.77835 -1.15432,-2.89923 5.78501,3.75825 5.78501,3.75825 v 13.50285 c -0.008,0.40267 0.0739,0.80265 0.2416,1.16774 0.16644,0.36643 0.41342,0.69124 0.72347,0.94895 0.30871,0.25771 0.67245,0.44294 1.06305,0.54093 0.39058,0.098 0.79862,0.10731 1.19324,0.0268 0.59327,-0.13019 1.14358,-0.41207 1.59592,-0.8201 0.45232,-0.4067 0.78923,-0.92481 0.98117,-1.50197 1.06036,-2.68446 1.81201,-10.73784 2.13414,-14.87192 0.0604,-0.76105 -0.0779,-1.52344 -0.39998,-2.21603 -0.32213,-0.69124 -0.81741,-1.28719 -1.43887,-1.73013 v 0 c 0.81339,-0.8295 1.42008,-1.83886 1.77175,-2.9462 0.35166,-1.10734 0.4389,-2.2818 0.25501,-3.42941 1.48049,-3.66966 1.97443,-7.6628 1.4362,-11.58346 -0.3463,-3.49114 -1.22412,-6.90846 -2.60393,-10.13384 l -20.76433,-23.19377 z"
   fill="#fc9d9d"
   id="path4466"
   style="stroke-width:1.34223" />
<g
   opacity="0.15"
   id="g4470"
   transform="matrix(1.3422317,0,0,1.3422317,-247.92357,-272.64623)">
<path
   opacity="0.15"
   d="m 644.751,738.35 c -0.17,0.12 2.13,3.41 5.57,6.94 3.44,3.53 6.66,5.93 6.79,5.77 0.13,-0.16 -2.82,-2.82 -6.22,-6.32 -3.4,-3.5 -5.96,-6.53 -6.14,-6.39 z"
   fill="#000000"
   id="path4468" />
</g>
<g
   opacity="0.15"
   id="g4474"
   transform="matrix(1.3422317,0,0,1.3422317,-247.92357,-272.64623)">
<path
   opacity="0.15"
   d="m 658.001,742.13 c -0.16,0.15 1.86,2.47 4.49,5.18 2.63,2.71 4.91,4.78 5.07,4.63 0.16,-0.15 -1.85,-2.47 -4.5,-5.19 -2.65,-2.72 -4.89,-4.75 -5.06,-4.62 z"
   fill="#000000"
   id="path4472" />
</g>
<g
   opacity="0.15"
   id="g4478"
   transform="matrix(1.3422317,0,0,1.3422317,-247.92357,-272.64623)">
<path
   opacity="0.15"
   d="m 660.571,737.39 c -0.15,0.18 1.66,1.89 3.57,4.25 1.91,2.36 3.25,4.47 3.46,4.35 0.21,-0.12 -0.85,-2.43 -2.84,-4.85 -1.99,-2.42 -4.06,-3.91 -4.19,-3.75 z"
   fill="#000000"
   id="path4476" />
</g>
<g
   opacity="0.15"
   id="g4482"
   transform="matrix(1.3422317,0,0,1.3422317,-247.92357,-272.64623)">
<path
   opacity="0.15"
   d="m 662.749,732.51 c -0.15,0.17 1.23,1.59 2.8,3.42 1.57,1.83 2.8,3.39 3,3.27 0.2,-0.12 -0.76,-1.91 -2.38,-3.79 -1.62,-1.88 -3.28,-3.06 -3.42,-2.9 z"
   fill="#000000"
   id="path4480" />
</g>
<path
   d="m 383.59647,374.30947 c -2.37575,-0.0939 -8.1205,3.32874 -12.73778,9.69091 l -0.2416,0.28188 c -3.28847,4.26829 -6.36218,-7.93259 -6.92592,-12.46934 -0.11274,-0.70198 -0.37985,-1.37042 -0.78386,-1.95564 -0.40401,-0.5852 -0.93285,-1.07244 -1.54893,-1.42544 -0.61744,-0.35435 -1.30466,-0.56643 -2.01336,-0.61877 -0.7087,-0.0537 -1.42141,0.0511 -2.08313,0.30872 l -15.24776,7.14066 -4.45621,0.14765 c -1.06573,0.37449 -1.95295,1.13016 -2.49118,2.12341 -0.53824,0.99191 -0.68857,2.14891 -0.42146,3.24551 l 7.30174,24.07965 1.59726,6.57693 26.69699,1.12747 1.4496,-13.04648 c 0.45636,-1.90598 2.48313,-4.56359 3.3019,-7.12726 0.7342,-2.31803 1.87106,-4.48977 3.35557,-6.41587 1.61471,-2.19454 3.45491,-4.2146 5.48973,-6.02661 0.16106,-0.10743 0.34899,-0.25503 0.49663,-0.33556 0.33824,-0.18791 0.63622,-0.44429 0.87244,-0.75166 0.35302,-0.35836 0.5973,-0.80936 0.70737,-1.30062 0.10871,-0.49125 0.0779,-1.00399 -0.0899,-1.47779 -0.16913,-0.47515 -0.46711,-0.89258 -0.86038,-1.20533 -0.39327,-0.31408 -0.86842,-0.51004 -1.36773,-0.56642 z"
   fill="#fc9d9d"
   id="path4484"
   style="stroke-width:1.34223" />
<path
   d="m 377.04504,317.81494 c 0,0 -15.54305,-2.97976 -37.86436,-23.26088 -22.32132,-20.28113 -33.32762,-47.7566 -35.98524,-47.54185 -2.65761,0.21476 -14.41557,-4.84546 -35.15304,43.83729 -20.73748,48.68274 -11.70426,59.59509 -7.31516,59.38034 4.38909,-0.21477 33.99873,-9.39563 52.70943,-7.79837 18.71071,1.59726 42.95142,10.63047 42.95142,10.63047 z"
   class="change-color-in-svg"
   fill="#4D61FC"
   style="fill:#8c4fdb;stroke-width:1.34223"
   id="path4486" />
<path
   d="m 410.59144,343.07574 -4.97969,10.17412 -2.24152,4.55016 c -1.47512,3.0066 -4.04683,5.33403 -7.18631,6.50043 -3.13948,1.16505 -6.60647,1.08318 -9.68554,-0.23221 l -33.42157,-10.59021 18.02617,-44.56209 33.55579,16.69737 c 3.09653,1.5355 5.45751,4.23474 6.57022,7.50709 1.11137,3.27236 0.88185,6.8521 -0.63755,9.95534 z"
   fill="#3f4249"
   id="path4488"
   style="stroke-width:1.34223" />
<path
   d="m 391.95857,359.6523 -9.95936,20.97908 -5.36892,-1.34223 -33.66317,28.9922 -10.1607,-18.57648 c 0,0 20.13347,-9.39562 23.67697,-16.71079 3.54349,-7.31516 -0.84561,-8.88557 -0.84561,-8.88557 l 9.27482,-11.15395 z"
   fill="#3f4249"
   id="path4490"
   style="stroke-width:1.34223" />
<path
   d="m 269.85844,291.66827 c -11.01972,26.36142 -15.26118,49.66257 -9.46274,52.11885 5.79845,2.45629 19.42209,-16.97923 30.44182,-43.35409 11.01972,-26.37485 15.26117,-49.66257 9.46273,-52.11886 -5.79844,-2.45628 -19.38182,16.99266 -30.44181,43.3541 z"
   fill="#3f4249"
   id="path4492"
   style="stroke-width:1.34223" />
<path
   d="m 412.386,357.47788 -7.59703,-2.56366 5.24812,-10.72443 6.85881,3.99985 z"
   fill="#61656d"
   id="path4494"
   style="stroke-width:1.34223" />
<g
   opacity="0.3"
   id="g4498"
   transform="matrix(1.3422317,0,0,1.3422317,-247.92357,-272.64623)">
<path
   opacity="0.5"
   d="m 454.25,468.96 18.29,10.94 2.12,-4.45 z"
   fill="#000000"
   id="path4496" />
</g>
<path
   d="m 403.93128,346.80714 c -0.12081,0.2953 -4.64412,-1.34223 -10.10701,-3.6106 -5.46288,-2.26837 -9.79829,-4.37568 -9.66406,-4.65754 0.13422,-0.28187 4.64412,1.34223 10.107,3.59718 5.46288,2.25494 9.78487,4.37567 9.66407,4.67096 z"
   fill="#61656d"
   id="path4500"
   style="stroke-width:1.34223" />
<path
   d="m 400.64549,353.50488 c -0.97177,0.007 -1.93415,-0.18121 -2.83211,-0.55032 -0.85902,-0.22817 -1.87912,-0.53689 -3.00659,-0.88586 -1.12748,-0.34899 -2.2818,-0.92615 -3.51665,-1.44962 -4.97967,-2.13415 -8.79162,-4.25488 -8.67082,-4.52332 0.12081,-0.26845 4.18776,1.34223 9.11376,3.46296 1.23485,0.52347 2.38917,1.10063 3.46296,1.51672 1.07378,0.4161 2.05361,0.77849 2.87237,1.11405 1.6241,0.64428 2.61736,1.15432 2.57708,1.31539 z"
   fill="#61656d"
   id="path4502"
   style="stroke-width:1.34223" />
<path
   d="m 295.11655,286.64831 c 0,0 -13.66392,-7.93258 -20.49588,10.4023 -6.83196,18.33488 7.38228,20.9254 7.38228,20.9254 5.81991,-9.77548 10.23452,-20.3214 13.1136,-31.3277 z"
   fill="#ffffff"
   id="path4504"
   style="stroke-width:1.34223" />
<path
   opacity="0.3"
   d="m 307.32818,263.1861 c -0.051,1.16775 -0.19463,2.33012 -0.42952,3.47639 -0.3624,2.22809 -0.87245,5.46288 -1.62409,9.39561 l -1.6778,6.40245 c -0.29528,1.15432 -0.61743,2.33549 -0.93956,3.55691 -0.16107,0.61743 -0.32213,1.23486 -0.49663,1.8657 -0.17449,0.63085 -0.42951,1.24828 -0.64426,1.87913 -0.88588,2.5234 -1.83886,5.1676 -2.80527,7.90575 -0.2416,0.68454 -0.49663,1.34223 -0.73823,2.08046 -0.24161,0.73822 -0.59058,1.34223 -0.88587,2.05361 l -1.87913,4.16092 -1.89255,4.17435 c -0.32213,0.68453 -0.59057,1.34223 -0.95298,2.02676 l -1.06036,1.93281 -4.02669,7.34202 c -0.32214,0.57716 -0.63085,1.16773 -0.97984,1.71805 l -1.06036,1.61067 -2.05361,3.0603 -3.70456,5.50314 c -2.46971,3.18109 -4.55016,5.69107 -5.98635,7.43597 -0.6993,0.95701 -1.47646,1.85363 -2.32207,2.68447 0.56777,-1.02413 1.22814,-1.99456 1.97309,-2.89923 l 5.69105,-7.66415 3.55693,-5.5434 c 0.64426,-0.97984 1.34223,-2.01335 1.98649,-3.07371 l 1.03353,-1.59726 c 0.33555,-0.55032 0.63085,-1.1409 0.95298,-1.71806 l 4.02669,-7.32859 1.04694,-1.91939 c 0.36241,-0.64427 0.63085,-1.34223 0.93957,-2.01334 0.61742,-1.34223 1.24827,-2.75158 1.8657,-4.1475 l 1.87912,-4.13408 c 0.29529,-0.68454 0.64428,-1.34223 0.88588,-2.04019 0.2416,-0.69796 0.49662,-1.34223 0.73822,-2.05361 l 2.85896,-7.83864 c 0.22818,-0.63085 0.46978,-1.23485 0.65769,-1.85227 l 0.52347,-1.83886 c 0.33556,-1.22144 0.67111,-2.38917 0.99325,-3.53008 l 1.79859,-6.33533 c 0.81876,-3.89247 1.48988,-7.06013 1.97308,-9.31508 0.15973,-1.16104 0.42012,-2.30731 0.7785,-3.4227 z"
   fill="#000000"
   id="path4506"
   style="stroke-width:1.34223" />
<path
   d="m 351.93322,363.46424 c -0.79997,0.36508 -1.43216,1.01876 -1.7704,1.8308 -0.33824,0.81071 -0.35838,1.71941 -0.0551,2.54487 1.16775,3.31532 3.0603,8.52317 4.48306,11.67742 0.39729,1.04158 0.98923,1.99858 1.7449,2.81869 0.37046,0.39729 0.84292,0.68454 1.36639,0.82815 0.52482,0.14497 1.07782,0.14094 1.59994,-0.01 0.52482,-0.25905 0.96776,-0.65904 1.28049,-1.15297 0.31274,-0.4953 0.48186,-1.06708 0.49125,-1.6523 0.0109,-1.18787 -0.20267,-2.36769 -0.63085,-3.47637 -1.00667,-3.10056 -2.68446,-7.74468 -4.20117,-11.52978 -0.15302,-0.41206 -0.38657,-0.78788 -0.68857,-1.10734 -0.30066,-0.31811 -0.66441,-0.57313 -1.06573,-0.74897 -0.40268,-0.17583 -0.83621,-0.26844 -1.27512,-0.27247 -0.43891,-0.002 -0.8738,0.0819 -1.27915,0.24966 z"
   fill="#fc9d9d"
   id="path4508"
   style="stroke-width:1.34223" />
<path
   d="m 347.30253,369.58481 c -0.79729,0.36778 -1.42814,1.02145 -1.76907,1.83081 -0.33958,0.80937 -0.36509,1.71806 -0.0698,2.54487 1.18116,3.31531 3.07371,8.52317 4.49647,11.67741 0.39328,1.04158 0.98118,1.99725 1.73148,2.8187 0.36912,0.39998 0.84159,0.68856 1.3664,0.83352 0.52347,0.14496 1.07781,0.13959 1.59994,-0.0148 0.52615,-0.25638 0.97178,-0.65501 1.28451,-1.1503 0.31274,-0.49529 0.48187,-1.06842 0.48724,-1.65497 0.0175,-1.18922 -0.19731,-2.36904 -0.63085,-3.47638 -0.99325,-3.10055 -2.68447,-7.74468 -4.20119,-11.52977 -0.15167,-0.41072 -0.38387,-0.78655 -0.6832,-1.106 -0.30066,-0.31945 -0.66305,-0.57314 -1.06304,-0.74896 -0.40133,-0.17583 -0.83487,-0.26845 -1.27244,-0.27248 -0.43757,-0.004 -0.87245,0.0806 -1.27646,0.24831 z"
   fill="#fc9d9d"
   id="path4510"
   style="stroke-width:1.34223" />
<path
   d="m 342.83289,373.47728 c -0.71272,0.29261 -1.28452,0.85098 -1.59457,1.557 -0.3114,0.70601 -0.33556,1.50464 -0.0698,2.22811 1.06036,2.87237 2.77841,7.38227 4.0267,10.12042 0.36105,0.90467 0.89393,1.72879 1.57041,2.42944 0.33287,0.3879 0.77715,0.66172 1.27243,0.78387 0.49663,0.12079 1.01742,0.0846 1.49122,-0.10471 0.47381,-0.18926 0.87648,-0.52214 1.15164,-0.95299 0.27381,-0.42951 0.40804,-0.93419 0.37985,-1.44424 0.002,-1.0295 -0.19328,-2.05093 -0.57716,-3.0066 -0.91271,-2.68446 -2.46971,-6.71116 -3.79851,-9.98621 -0.14765,-0.3624 -0.36644,-0.69259 -0.64293,-0.97043 -0.2765,-0.27784 -0.60401,-0.49796 -0.96641,-0.64829 -0.36106,-0.15168 -0.74897,-0.22952 -1.1409,-0.23087 -0.39193,0 -0.77984,0.0765 -1.14224,0.22549 z"
   fill="#fc9d9d"
   id="path4512"
   style="stroke-width:1.34223" />
<path
   d="m 336.94049,374.77925 c -0.71406,0.29529 -1.28586,0.85634 -1.59591,1.56371 -0.31005,0.70869 -0.33421,1.50866 -0.0684,2.23481 1.07378,2.88579 2.79184,7.42254 4.02669,10.17412 0.36241,0.91002 0.90064,1.74087 1.58384,2.44286 0.33555,0.38656 0.78252,0.65769 1.27914,0.7785 0.49663,0.11945 1.01876,0.0819 1.49256,-0.10873 0.47381,-0.1906 0.87648,-0.52481 1.15298,-0.95433 0.27516,-0.43085 0.40938,-0.93688 0.38389,-1.44692 0.0161,-1.03486 -0.18121,-2.06302 -0.57716,-3.02002 -0.91272,-2.68447 -2.46971,-6.71116 -3.81195,-10.02648 -0.14899,-0.36508 -0.36777,-0.69795 -0.64561,-0.97848 -0.27784,-0.28052 -0.60804,-0.50333 -0.97312,-0.65636 -0.36374,-0.15166 -0.75434,-0.23086 -1.15029,-0.23086 -0.39462,0 -0.78521,0.0765 -1.1503,0.22818 z"
   fill="#fc9d9d"
   id="path4514"
   style="stroke-width:1.34223" />
<path
   opacity="0.15"
   d="m 356.07938,382.47024 c -0.32214,0.13422 -1.70464,-2.4697 -3.10056,-5.82529 -1.39592,-3.35558 -2.2818,-6.16083 -1.95966,-6.28164 0.32214,-0.1208 1.69122,2.46971 3.08714,5.81186 1.39592,3.34216 2.2281,6.18769 1.97308,6.29507 z"
   fill="#000000"
   id="path4516"
   style="stroke-width:1.34223" />
<path
   opacity="0.15"
   d="m 350.95205,387.54388 c -0.30871,0.13422 -1.79859,-2.87238 -3.31531,-6.71117 -1.51672,-3.83878 -2.49655,-7.04671 -2.17442,-7.18093 0.32214,-0.13423 1.79859,2.87237 3.31531,6.71116 1.51673,3.83878 2.49655,7.06013 2.17442,7.18094 z"
   fill="#000000"
   id="path4518"
   style="stroke-width:1.34223" />
<path
   opacity="0.15"
   d="m 345.67573,388.22841 c -0.29529,0.14765 -1.9328,-2.36232 -3.34215,-5.77159 -1.40934,-3.40928 -2.06703,-6.34875 -1.7449,-6.45613 0.32213,-0.10743 1.47645,2.68446 2.87237,5.97293 1.39592,3.28846 2.5234,6.09373 2.21468,6.25479 z"
   fill="#000000"
   id="path4520"
   style="stroke-width:1.34223" />
<path
   d="m 428.2807,372.10821 c -0.6201,3.28981 -0.33152,6.687 0.83219,9.82513 1.46438,4.20656 4.53272,7.66415 8.53525,9.61844 4.00254,1.95429 8.61579,2.24555 12.83308,0.8107 1.95027,-0.60131 4.03609,-0.60668 5.98904,-0.0161 1.95429,0.59057 3.68711,1.75027 4.97699,3.33142 2.49655,3.01867 5.77026,5.29644 9.46811,6.58901 3.69784,1.29122 7.67891,1.5476 11.51097,0.73957 12.68409,-2.68447 20.52273,-16.20074 16.40208,-29.2875 -1.43082,-4.6468 -4.35957,-8.6896 -8.32989,-11.49622 -3.96898,-2.8066 -8.75673,-4.21997 -13.61561,-4.01998 -3.26295,0.18523 -6.44136,1.10734 -9.29763,2.69386 -2.85627,1.58786 -5.31659,3.8012 -7.19839,6.47358 -1.36774,-2.71398 -3.41598,-5.02665 -5.94609,-6.71115 2.59857,-2.68849 4.50453,-5.96891 5.55147,-9.55938 1.04829,-3.58912 1.20668,-7.37959 0.46173,-11.04389 -0.52615,-2.94619 -1.65095,-5.7528 -3.30457,-8.248 -1.65229,-2.49522 -3.79851,-4.62668 -6.30581,-6.26017 -2.50729,-1.63484 -5.32329,-2.7395 -8.27217,-3.24552 -2.95022,-0.50468 -5.97294,-0.40133 -8.88155,0.30468 -10.92576,2.79185 -18.17381,14.09344 -16.38865,25.50241 0.78923,5.26154 3.40256,10.07882 7.38228,13.61023 1.45497,1.26707 2.55157,2.89251 3.18377,4.71526 0.63085,1.82275 0.77312,3.77838 0.4134,5.67362 z"
   fill="#21252b"
   id="path4522"
   style="stroke-width:1.34223" />
<path
   d="m 536.97329,411.15374 c 4.3891,-3.22136 -5.30182,-5.9461 -6.26822,-11.26133 l -3.2482,-39.77033 -3.07371,-15.34171 h -39.4482 l -5.91924,59.0582 c -0.2416,5.73133 -1.04694,10.92577 -6.71115,11.97271 -0.0135,0 33.44841,18.22751 64.66872,-4.65754 z"
   fill="#fc9d9d"
   id="path4524"
   style="stroke-width:1.34223" />
<path
   opacity="0.15"
   d="m 480.02239,387.59757 c 3.01869,0.63219 6.09643,0.94761 9.18088,0.93956 6.52592,-0.0845 12.84113,-2.31535 17.97248,-6.34876 5.5461,-0.57716 10.89757,-2.36366 15.67727,-5.2347 0.22817,-0.14765 0.38925,-0.3812 0.44695,-0.6483 0.0577,-0.26577 0.008,-0.54495 -0.13825,-0.77446 -0.13556,-0.22013 -0.353,-0.37717 -0.60534,-0.43758 -0.251,-0.0604 -0.51676,-0.0188 -0.73689,0.11543 -3.68039,2.2214 -7.74736,3.72872 -11.98613,4.4428 -0.29528,0 -0.604,0.17448 -0.91272,0.17448 -0.91271,0.14765 -1.6912,0.14765 -2.45627,0.30872 h -0.30872 c -0.50065,0.14496 -1.02278,0.20402 -1.54357,0.17449 h -4.13407 c -6.30849,-0.33556 -13.79814,-1.75832 -19.01942,-4.92599 z"
   fill="#000000"
   id="path4526"
   style="stroke-width:1.34223" />
<path
   d="m 457.95477,373.38333 30.29417,-15.62358 -4.0267,-73.56772 -26.02587,3.34216 -12.29485,10.3486 c 0,0 0.69797,4.13407 0.87245,6.57694 0.67112,9.31509 -7.01987,14.17397 -15.81149,19.05969 z"
   fill="#21252b"
   id="path4528"
   style="stroke-width:1.34223" />
<path
   d="m 464.20957,343.62605 1.53014,-46.44121 c 0.0336,-1.99456 0.46038,-3.96228 1.25499,-5.79174 0.79459,-1.82945 1.94221,-3.48309 3.37705,-4.86827 1.43485,-1.38518 3.12875,-2.47373 4.98505,-3.20391 1.85631,-0.72883 3.83878,-1.08586 5.832,-1.04828 l 45.354,1.73148 c 1.53821,0.0739 3.04687,0.45099 4.44011,1.10734 1.3919,0.65769 2.64152,1.58383 3.67638,2.72339 1.03486,1.14089 1.83483,2.47508 2.35293,3.92469 0.51944,1.4496 0.74762,2.9878 0.67112,4.526 l -1.65095,49.98471 c -0.64428,19.61 -16.57656,34.99198 -35.71679,34.34771 l -2.68446,-0.13422 c -19.006,-0.6577 -33.90477,-17.24768 -33.42157,-36.85769 z"
   fill="#fc9d9d"
   id="path4530"
   style="stroke-width:1.34223" />
<path
   d="m 507.565,331.81442 c -0.0241,-0.73555 -0.26309,-1.44693 -0.68991,-2.04691 -0.42549,-0.59997 -1.01741,-1.06037 -1.70329,-1.32613 -0.68722,-0.26442 -1.43485,-0.32213 -2.15429,-0.16375 -0.7181,0.15839 -1.3731,0.52347 -1.88583,1.05231 -0.51139,0.5275 -0.85634,1.19459 -0.99057,1.91805 -0.13556,0.72212 -0.0551,1.46975 0.2322,2.14623 0.2859,0.67783 0.76642,1.25499 1.37981,1.66168 0.61206,0.4067 1.3315,0.62414 2.06705,0.62414 1.00801,-0.0175 1.96905,-0.43488 2.67104,-1.15969 0.70198,-0.72346 1.0872,-1.69792 1.07379,-2.70593 z"
   fill="#21252b"
   id="path4532"
   style="stroke-width:1.34223" />
<path
   d="m 503.05509,332.48553 c -0.002,-0.15301 -0.0509,-0.302 -0.13825,-0.42818 -0.0872,-0.12616 -0.20939,-0.22414 -0.35166,-0.28186 -0.14228,-0.0564 -0.29932,-0.0698 -0.4483,-0.0389 -0.15034,0.0323 -0.28858,0.10743 -0.39596,0.2161 -0.10743,0.11006 -0.17986,0.24831 -0.20939,0.39998 -0.0281,0.15033 -0.012,0.30603 0.047,0.44697 0.0591,0.14227 0.15837,0.26307 0.28723,0.34763 0.12751,0.0846 0.2765,0.1302 0.43086,0.1302 0.2067,-0.004 0.40534,-0.0885 0.55031,-0.23623 0.14631,-0.14899 0.22817,-0.34765 0.22817,-0.55569 z"
   fill="#ffffff"
   id="path4534"
   style="stroke-width:1.34223" />
<path
   d="m 747.8567,1017.4841 -25.88092,28.4231 24.64204,22.4395 25.8809,-28.4244 z"
   fill="#fc9d9d"
   id="path4536"
   style="stroke-width:1.34223" />
<path
   opacity="0.15"
   d="m 740.50931,1025.5738 24.24071,22.5092 4.33541,-11.2614 -21.74415,-19.2072 z"
   fill="#000000"
   id="path4538"
   style="stroke-width:1.34223" />
<path
   d="m 768.64115,1031.6407 21.58308,19.6502 c 0.83354,0.7544 1.51002,1.6657 1.98919,2.6818 0.47917,1.0161 0.75299,2.1181 0.80668,3.2402 0.0524,1.1234 -0.11811,2.2456 -0.50199,3.3019 -0.38254,1.0576 -0.97044,2.0281 -1.73013,2.8562 l -66.80288,73.3261 c -0.64293,0.698 -1.53417,1.1141 -2.48044,1.1544 -0.94762,0.053 -1.87376,-0.2819 -2.57978,-0.9127 -2.50058,-2.2952 -4.21997,-5.3153 -4.91793,-8.644 -0.69796,-3.3153 -0.33959,-6.7648 1.02546,-9.8789 l 9.61038,-21.4756 2.81869,-35.8242 c 0.14362,-1.8026 0.90332,-3.5019 2.15294,-4.8105 1.24962,-1.3074 2.9113,-2.1449 4.70586,-2.3704 l 16.37524,-2.0939 c 1.18519,-0.153 2.314,-0.6013 3.28041,-1.3047 0.96641,-0.7046 1.74087,-1.6402 2.24957,-2.722 l 7.04672,-15.1135 c 0.23086,-0.4779 0.56911,-0.8967 0.98923,-1.2215 0.42012,-0.3248 0.91003,-0.5463 1.43081,-0.6496 0.52079,-0.1032 1.05768,-0.084 1.56907,0.058 0.51274,0.1409 0.9852,0.3986 1.37982,0.753 z"
   fill="#61656d"
   id="path4540"
   style="stroke-width:1.34223" />
<path
   d="m 790.78931,1063.3576 -66.80286,73.3395 c -0.64293,0.698 -1.53418,1.1141 -2.48046,1.1544 -0.94761,0.053 -1.87375,-0.2819 -2.57976,-0.9127 -0.90601,-0.7786 -1.69256,-1.6778 -2.33549,-2.6845 l 74.58782,-81.8762 c 1.22948,1.5866 1.86436,3.5543 1.79322,5.5596 -0.0711,2.0066 -0.84292,3.9247 -2.18247,5.4199 z"
   fill="#3f4249"
   id="path4542"
   style="stroke-width:1.34223" />
<path
   d="m 736.47054,1068.5118 c 0.14362,-0.1571 0.22147,-0.3638 0.21475,-0.5771 -0.004,-0.1182 -0.0308,-0.235 -0.0805,-0.3437 -0.0496,-0.1075 -0.11946,-0.204 -0.2067,-0.2846 -0.0886,-0.08 -0.19061,-0.1423 -0.30336,-0.1812 -0.1114,-0.04 -0.23086,-0.056 -0.34897,-0.05 l -8.80504,0.093 c -0.11812,0 -0.23355,0.03 -0.34093,0.079 -0.10602,0.049 -0.20268,0.1181 -0.28321,0.204 -0.0792,0.086 -0.14093,0.1879 -0.18254,0.298 -0.0403,0.1101 -0.0577,0.2281 -0.0524,0.3449 0.005,0.1182 0.0336,0.2349 0.0832,0.3409 0.0496,0.1076 0.12081,0.204 0.20805,0.2832 0.0872,0.08 0.18925,0.1423 0.30066,0.1826 0.1114,0.04 0.22953,0.058 0.34764,0.052 l 8.81847,-0.08 c 0.23622,-0.068 0.45232,-0.1921 0.63085,-0.3625 z"
   fill="#ffffff"
   id="path4544"
   style="stroke-width:1.34223" />
<path
   d="m 736.01283,1074.4981 c 0.14363,-0.1611 0.22148,-0.3623 0.21476,-0.5771 -0.004,-0.1208 -0.0308,-0.2282 -0.0792,-0.3356 -0.0483,-0.1076 -0.11811,-0.2013 -0.20402,-0.2819 -0.0859,-0.08 -0.18791,-0.1476 -0.29797,-0.1879 -0.11007,-0.04 -0.22683,-0.053 -0.34496,-0.053 l -8.81845,0.08 c -0.11946,0 -0.23624,0.027 -0.34496,0.08 -0.10872,0.053 -0.2067,0.1208 -0.28724,0.2014 -0.0819,0.094 -0.1463,0.1879 -0.18791,0.3087 -0.0429,0.1075 -0.0631,0.2281 -0.0591,0.3355 0.004,0.1208 0.0308,0.2416 0.0792,0.349 0.0483,0.1076 0.11812,0.2148 0.20536,0.2953 0.0859,0.08 0.18791,0.1342 0.29932,0.1879 0.1114,0.04 0.22952,0.054 0.34898,0.054 l 8.81846,-0.08 c 0.24697,-0.067 0.47381,-0.2013 0.65769,-0.3758 z"
   fill="#ffffff"
   id="path4546"
   style="stroke-width:1.34223" />
<path
   d="m 735.55783,1080.4844 c 0.11676,-0.1341 0.19327,-0.2818 0.21743,-0.4563 0.0241,-0.1744 -0.004,-0.349 -0.0805,-0.51 -0.0779,-0.1477 -0.19999,-0.2819 -0.35032,-0.3624 -0.15167,-0.08 -0.32616,-0.1208 -0.49797,-0.1075 l -8.81846,0.08 c -0.23758,0.013 -0.46038,0.1207 -0.62012,0.2952 -0.16106,0.1745 -0.24696,0.4026 -0.2389,0.6443 0.0175,0.2416 0.12347,0.4563 0.29797,0.6174 0.17583,0.1611 0.40401,0.2416 0.64158,0.2416 l 8.81847,-0.093 c 0.12348,-0.013 0.24294,-0.053 0.35167,-0.1076 0.10731,-0.067 0.20267,-0.1477 0.27918,-0.2417 z"
   fill="#ffffff"
   id="path4548"
   style="stroke-width:1.34223" />
<path
   d="m 477.00237,331.81442 c -0.0228,-0.73555 -0.26307,-1.44693 -0.68856,-2.04691 -0.42549,-0.59997 -1.01875,-1.06037 -1.70463,-1.32613 -0.68588,-0.26442 -1.43484,-0.32213 -2.15294,-0.16375 -0.71809,0.15839 -1.37445,0.52347 -1.88584,1.05231 -0.51139,0.5275 -0.85634,1.19459 -0.99191,1.91805 -0.13422,0.72212 -0.0537,1.46975 0.23221,2.14623 0.28723,0.67783 0.76642,1.25499 1.37981,1.66168 0.61341,0.4067 1.3315,0.62414 2.06704,0.62414 1.00935,-0.0175 1.96905,-0.43488 2.67105,-1.15969 0.70198,-0.72346 1.08855,-1.69792 1.07377,-2.70593 z"
   fill="#21252b"
   id="path4550"
   style="stroke-width:1.34223" />
<path
   d="m 472.47772,332.31104 c -0.002,-0.15302 -0.051,-0.302 -0.13825,-0.42817 -0.0872,-0.12617 -0.20939,-0.22416 -0.35167,-0.28187 -0.14362,-0.0564 -0.29932,-0.0698 -0.44965,-0.0376 -0.14898,0.0308 -0.28723,0.10601 -0.39462,0.2161 -0.10742,0.10871 -0.17986,0.24696 -0.20938,0.39864 -0.0296,0.15033 -0.0121,0.30603 0.047,0.44696 0.0591,0.14228 0.15838,0.26307 0.2859,0.34763 0.12885,0.0846 0.27784,0.13021 0.43219,0.13021 0.1033,0 0.20536,-0.0201 0.30066,-0.0604 0.0953,-0.0403 0.1812,-0.098 0.25368,-0.1718 0.0725,-0.0739 0.1302,-0.16107 0.16779,-0.25771 0.0389,-0.0953 0.0577,-0.19865 0.0564,-0.302 z"
   fill="#ffffff"
   id="path4552"
   style="stroke-width:1.34223" />
<g
   opacity="0.15"
   id="g4556"
   transform="matrix(1.3422317,0,0,1.3422317,-247.92357,-272.64623)">
<path
   opacity="0.15"
   d="m 545.938,458.91 c 0.069,-0.885 0.481,-1.709 1.148,-2.295 0.666,-0.586 1.535,-0.889 2.422,-0.845 0.213,0.064 0.398,0.197 0.526,0.378 0.129,0.181 0.193,0.4 0.184,0.622 -0.057,0.203 -0.176,0.383 -0.341,0.514 -0.166,0.131 -0.368,0.207 -0.579,0.216 -0.462,0.01 -0.905,0.188 -1.246,0.5 -0.341,0.313 -0.555,0.74 -0.604,1.2 -0.025,0.224 -0.005,0.452 0.057,0.669 0.063,0.217 0.168,0.419 0.309,0.596 0.142,0.176 0.316,0.323 0.514,0.432 0.198,0.109 0.415,0.178 0.64,0.203 l 3.71,0.33 c 0.204,0.062 0.383,0.187 0.511,0.358 0.128,0.171 0.198,0.379 0.199,0.592 -0.057,0.203 -0.176,0.383 -0.341,0.514 -0.166,0.131 -0.368,0.207 -0.579,0.216 l -3.71,-0.33 c -0.46,-0.02 -0.909,-0.143 -1.315,-0.36 -0.405,-0.217 -0.757,-0.523 -1.028,-0.895 -0.271,-0.372 -0.455,-0.8 -0.537,-1.253 -0.083,-0.453 -0.062,-0.918 0.06,-1.362 z"
   fill="#000000"
   id="path4554" />
</g>
<path
   d="m 499.62032,357.39735 c 0.63085,0 0.7785,0.46978 0.63085,0.95299 -0.81607,1.87241 -2.15696,3.46967 -3.8616,4.5958 -1.70329,1.12747 -3.6965,1.73685 -5.73938,1.75564 -2.04287,0.0188 -4.04683,-0.55569 -5.7716,-1.65095 -1.72342,-1.0966 -3.0925,-2.66836 -3.94213,-4.52601 -0.0443,-0.10471 -0.0617,-0.21743 -0.0524,-0.32884 0.0109,-0.11275 0.047,-0.22147 0.10743,-0.31542 0.0604,-0.0953 0.14363,-0.1745 0.2416,-0.23087 0.098,-0.0551 0.20805,-0.0872 0.3208,-0.0912 z"
   fill="#ffffff"
   id="path4558"
   style="stroke-width:1.34223" />
<path
   d="m 452.96032,296.90297 c 1.49794,3.07774 3.89784,5.62663 6.88162,7.30577 2.98379,1.67779 6.40782,2.40796 9.81575,2.08984 5.71254,-0.44695 11.06535,-2.9623 15.05581,-7.07355 3.99046,-4.1126 6.34473,-9.53791 6.62123,-15.26118 h 0.21476 c 2.27239,3.01331 5.25349,5.41859 8.68021,7.00242 3.42537,1.5825 7.18899,2.29388 10.95663,2.07107 2.18918,-0.12751 4.34616,-0.57985 6.40245,-1.34223 2.68446,25.0863 18.17382,27.04597 18.17382,27.04597 0.14764,2.4026 0.41609,7.2212 0.75164,12.93912 0.24161,3.87904 -4.34882,5.75817 -2.13414,8.56342 l -1.20801,0.0805 c 0.65769,0.93956 -1.07379,2.13414 -0.60401,3.20793 0.76508,1.77981 1.22009,3.67772 1.34224,5.61053 0.1033,1.59457 -0.0282,3.19451 -0.38924,4.75151 -0.92883,3.80253 -3.20257,7.14066 -6.40245,9.39561 -4.61728,3.36901 -9.69092,7.91917 -10.4023,13.825 -0.88587,7.31515 4.5099,20.73747 22.72398,20.37507 5.24813,-0.094 47.28683,-1.22143 42.24004,-38.70996 -0.34899,-2.61736 -2.44286,-6.64405 -3.63745,-8.77821 -1.01607,-1.90999 -1.61068,-4.01461 -1.7449,-6.17426 -0.32213,-5.15417 2.85895,-8.83188 6.17427,-12.16061 1.87375,-1.69122 3.33947,-3.78509 4.2911,-6.12327 0.95031,-2.33817 1.35969,-4.86022 1.19862,-7.37958 -0.17584,-3.45357 -1.43887,-6.76218 -3.60791,-9.45469 -2.17039,-2.69385 -5.13538,-4.6307 -8.47217,-5.53805 -0.92614,-0.25368 -1.75967,-0.76909 -2.40126,-1.48182 -0.64293,-0.71406 -1.06708,-1.59726 -1.22277,-2.54487 -1.43619,-8.20103 -10.93919,-29.16669 -40.26696,-25.85138 0.52348,-8.63056 -8.13391,-21.27438 -20.93881,-21.62335 -10.95261,-0.30872 -19.90529,8.28156 -25.63663,15.59672 -1.63081,2.09254 -3.75422,3.7502 -6.17963,4.82533 -2.42542,1.07512 -5.08035,1.53282 -7.72589,1.33552 -2.36233,-0.20134 -5.79844,-1.34223 -9.11375,-1.16775 -12.77804,0.69797 -18.49596,11.83849 -16.42891,25.83797 z"
   fill="#21252b"
   id="path4560"
   style="stroke-width:1.34223" />
<path
   d="m 531.31041,349.59899 1.63752,-18.63019 c 2.2818,-17.10002 22.63004,-14.69743 19.70398,2.30864 -2.92608,17.00609 -19.48921,16.10678 -19.48921,16.10678 z"
   fill="#fc9d9d"
   id="path4562"
   style="stroke-width:1.34223" />
<path
   d="m 460.97344,783.78411 49.38071,96.39909 c 4.3797,8.54464 10.03855,16.36985 16.77789,23.20718 l 192.87871,146.06172 31.08609,-31.972 -5.20786,-5.6105 c -10.81839,-11.7714 -24.01253,-23.78436 -33.77055,-36.44159 -12.3888,-16.10678 -27.36811,-32.9652 -38.92472,-47.38083 -23.94541,-29.90492 -53.55504,-56.81667 -87.24507,-71.39331 L 558.52685,710.65933 c -4.44279,-24.40312 -15.67726,-47.05999 -32.41489,-65.36669 z"
   fill="#21252b"
   id="path4564"
   style="stroke-width:1.34223" />
<path
   d="m 421.43533,1111.4632 h -38.44152 v 33.3276 h 38.44152 z"
   fill="#fc9d9d"
   id="path4566"
   style="stroke-width:1.34223" />
<path
   opacity="0.15"
   d="m 411.67864,1111.4632 0.59059,35.0457 8.69766,-1.4496 v -33.3679 z"
   fill="#000000"
   id="path4568"
   style="stroke-width:1.34223" />
<path
   d="m 424.97747,1136.3616 v 29.1935 c 0.001,1.1275 -0.21878,2.2281 -0.64829,3.2751 -0.42818,1.0335 -1.05902,1.9731 -1.85362,2.765 -0.79326,0.7918 -1.73685,1.4227 -2.77574,1.8523 -1.03754,0.4295 -2.15026,0.6442 -3.27236,0.6442 H 317.156 c -0.94628,0 -1.85228,-0.3758 -2.52072,-1.0469 -0.66843,-0.6711 -1.04694,-1.5838 -1.04962,-2.5234 0.0109,-3.3959 1.08587,-6.6978 3.07237,-9.4493 1.98517,-2.7516 4.78371,-4.8186 8.00105,-5.8924 l 22.38842,-7.3823 28.3882,-22.0394 c 1.42411,-1.114 3.19048,-1.7047 4.99982,-1.6644 1.80932,0.04 3.54752,0.7113 4.91927,1.8926 l 12.57672,10.7378 c 0.91405,0.7651 2.00931,1.302 3.18242,1.5302 1.17446,0.2416 2.38784,0.1744 3.52873,-0.1879 l 15.91887,-4.9663 c 0.51004,-0.1611 1.04962,-0.1879 1.57444,-0.093 0.52615,0.08 1.02278,0.2953 1.45229,0.6174 0.42818,0.3087 0.77715,0.7248 1.01875,1.208 0.24161,0.4698 0.36778,0.9932 0.37046,1.5301 z"
   fill="#61656d"
   id="path4570"
   style="stroke-width:1.34223" />
<path
   d="m 416.48249,1174.0917 h -99.32515 c -0.94494,0 -1.85094,-0.3758 -2.52071,-1.0469 -0.66843,-0.6711 -1.0456,-1.5838 -1.04963,-2.5234 -0.0215,-1.2081 0.13288,-2.416 0.45636,-3.5838 h 110.77439 c -0.3302,1.9866 -1.34492,3.7852 -2.86969,5.0871 -1.52343,1.3154 -3.4576,2.0402 -5.46557,2.067 z"
   fill="#3f4249"
   id="path4572"
   style="stroke-width:1.34223" />
<path
   d="m 376.05581,1137.3951 c 0.21207,-0.013 0.41609,-0.094 0.57716,-0.2282 0.16644,-0.1744 0.25905,-0.4026 0.25905,-0.6442 0,-0.2282 -0.0926,-0.4564 -0.25905,-0.6309 l -5.99977,-6.4561 c -0.17047,-0.1611 -0.39999,-0.255 -0.63756,-0.255 -0.23892,0 -0.4671,0.093 -0.63757,0.255 -0.0832,0.08 -0.15033,0.1744 -0.19596,0.2952 -0.0443,0.1076 -0.0684,0.2149 -0.0684,0.3357 0,0.1208 0.0242,0.2281 0.0684,0.3355 0.0456,0.1208 0.11275,0.2147 0.19596,0.2953 l 5.99978,6.4695 c 0.21341,0.1208 0.45233,0.2014 0.69796,0.2282 z"
   fill="#ffffff"
   id="path4574"
   style="stroke-width:1.34223" />
<path
   d="m 371.31505,1141.0862 c 0.21476,0 0.41878,-0.08 0.57716,-0.2281 0.16643,-0.1745 0.26039,-0.4027 0.26039,-0.6443 0,-0.2282 -0.094,-0.4563 -0.26039,-0.6309 l -5.99978,-6.4561 c -0.0819,-0.08 -0.1812,-0.1476 -0.28858,-0.1879 -0.10872,-0.053 -0.22414,-0.067 -0.34227,-0.067 -0.11678,0 -0.2322,0.013 -0.34092,0.067 -0.10872,0.04 -0.2067,0.1075 -0.28993,0.1879 -0.0819,0.08 -0.14764,0.1879 -0.19328,0.2953 -0.0443,0.1076 -0.0671,0.2148 -0.0671,0.3356 0,0.1208 0.0228,0.2282 0.0671,0.3355 0.0456,0.1075 0.1114,0.2147 0.19328,0.2953 l 5.99979,6.4696 c 0.21072,0.1208 0.44292,0.2013 0.68453,0.2281 z"
   fill="#ffffff"
   id="path4576"
   style="stroke-width:1.34223" />
<path
   d="m 366.58905,1144.7506 c 0.21342,0 0.42012,-0.08 0.57716,-0.2282 0.16644,-0.1746 0.26039,-0.4027 0.26039,-0.6443 0,-0.2281 -0.094,-0.4564 -0.26039,-0.6309 l -5.99977,-6.4561 c -0.0886,-0.094 -0.19194,-0.1611 -0.30737,-0.2013 -0.11543,-0.053 -0.23892,-0.08 -0.36375,-0.08 -0.12482,0 -0.24831,0.027 -0.36241,0.08 -0.11543,0.04 -0.22012,0.1075 -0.3087,0.2013 -0.0886,0.093 -0.15839,0.1879 -0.20537,0.3087 -0.0483,0.1209 -0.0725,0.2417 -0.0725,0.3624 0,0.1208 0.0241,0.2416 0.0725,0.3624 0.047,0.1209 0.11678,0.2148 0.20537,0.3088 l 5.99977,6.4561 c 0.11006,0.08 0.23354,0.1342 0.36508,0.1611 0.13289,0.027 0.26845,0.027 0.39999,0 z"
   fill="#ffffff"
   id="path4578"
   style="stroke-width:1.34223" />
<path
   opacity="0.3"
   d="m 550.07078,794.87094 18.79126,77.15149 c 0,0 57.7965,14.67059 122.14308,98.66751 l 50.85717,56.37376 9.26139,-9.5299 -5.2347,-5.6642 c -10.81839,-11.7714 -24.01253,-23.78436 -33.77055,-36.44159 -12.3888,-16.10678 -27.36811,-32.9652 -38.92472,-47.38083 -23.94541,-29.90492 -53.55504,-56.81667 -87.24507,-71.39331 L 555.5471,691.19696 538.48733,736.20199 Z"
   fill="#000000"
   id="path4580"
   style="stroke-width:1.34223" />
<path
   d="m 568.15334,686.39177 c 0.42951,-13.81156 -6.50983,-32.49543 -13.2881,-46.07881 l -7.65072,-34.89802 -104.43905,11.59687 0.93956,33.55579 -60.40043,191.93915 c -2.91265,9.19563 -4.40118,18.78319 -4.41594,28.42846 v 242.25949 h 45.70299 l 3.71798,-27.3413 c 3.43611,-25.2742 7.77152,-50.4276 13.15387,-75.3663 6.95277,-32.21355 18.79124,-95.37903 12.08009,-131.53875 L 543.7784,755.75831 c 13.91895,-20.6301 23.55618,-44.54867 24.37494,-69.36654 z"
   fill="#21252b"
   id="path4582"
   style="stroke-width:1.34223" />
<path
   opacity="0.15"
   d="m 547.88429,325.98913 c -0.16778,0.23221 -0.41341,0.39596 -0.69259,0.45905 -0.27919,0.0644 -0.57178,0.0255 -0.82413,-0.11007 -0.47784,-0.36777 -1.02412,-0.63488 -1.60799,-0.78655 -0.58253,-0.15302 -1.19056,-0.18657 -1.78785,-0.0993 -1.13285,0.43354 -2.04959,1.2966 -2.55024,2.40259 -0.83487,1.70866 -1.26707,3.58779 -1.2617,5.48973 l -0.094,1.95966 c 0,1.6241 -2.21468,1.23485 -2.20126,0 v -1.77175 c -0.10601,-2.34085 0.44293,-4.6656 1.58384,-6.71115 0.36239,-0.80937 0.89526,-1.53149 1.56236,-2.11536 0.66708,-0.58387 1.45363,-1.01607 2.30326,-1.26707 0.86842,-0.16375 1.76235,-0.14228 2.62272,0.0617 0.85903,0.20268 1.66706,0.58387 2.37038,1.11942 0.22952,0.13825 0.40804,0.34495 0.51139,0.59058 0.10471,0.24563 0.12752,0.51811 0.0657,0.7785 z"
   fill="#000000"
   id="path4584"
   style="stroke-width:1.34223" />
<path
   d="m 540.74362,343.2368 c -0.0188,-0.64695 -0.22818,-1.27377 -0.60132,-1.80261 -0.3718,-0.5275 -0.89259,-0.93419 -1.49659,-1.16908 -0.60266,-0.23355 -1.2617,-0.28456 -1.89255,-0.14631 -0.63218,0.13825 -1.20934,0.45905 -1.65899,0.9248 -0.45099,0.46441 -0.753,1.05096 -0.87111,1.68719 -0.11812,0.63622 -0.0456,1.29256 0.20804,1.88851 0.25234,0.59461 0.67649,1.10198 1.21607,1.45767 0.54091,0.35569 1.17445,0.54494 1.8214,0.54226 0.88185,-0.0175 1.72075,-0.38253 2.33415,-1.01607 0.61339,-0.63353 0.95164,-1.48451 0.9409,-2.36636 z"
   class="change-color-in-svg"
   fill="#4D61FC"
   style="fill:#8c4fdb;stroke-width:1.34223"
   id="path4586" />
<path
   opacity="0.15"
   d="m 535.62032,346.18972 c 0.54764,0.43891 1.24694,0.64696 1.94624,0.57716 0.44159,-0.004 0.87782,-0.0994 1.28183,-0.27785 0.40401,-0.17985 0.76775,-0.43891 1.06707,-0.76239 0.30066,-0.32481 0.53153,-0.70601 0.67917,-1.12344 0.14764,-0.4161 0.20805,-0.85904 0.17986,-1.29928 -0.0551,-0.53286 -0.22281,-1.04694 -0.49125,-1.50867 -0.26846,-0.46308 -0.6322,-0.8644 -1.06573,-1.17579 0.36911,0.5597 0.59863,1.1986 0.67111,1.8657 0.0268,0.47917 -0.0416,0.95969 -0.20268,1.41203 -0.16106,0.45367 -0.41072,0.86976 -0.7342,1.22411 -0.32482,0.35569 -0.71541,0.64159 -1.15164,0.84426 -0.43622,0.20134 -0.90869,0.31408 -1.38786,0.33154 -0.16107,-0.1745 -0.46978,-0.1745 -0.79192,-0.10743 z"
   fill="#000000"
   id="path4588"
   style="stroke-width:1.34223" />
<path
   d="m 541.85901,447.52821 c 0.21476,0 0.21476,-2.68446 0.93957,-7.0333 0.97177,-5.59307 2.90727,-10.97408 5.71791,-15.90544 3.20793,-5.82529 7.62387,-10.14727 11.59688,-11.81164 3.973,-1.66436 6.80511,-0.80533 6.81853,-1.0872 -0.57313,-0.32483 -1.22008,-0.50066 -1.87912,-0.51005 -1.79457,-0.17047 -3.60524,0.0779 -5.28839,0.7248 -4.32199,1.53014 -9.11375,6.06689 -12.40222,12.08009 -2.90325,5.05752 -4.76896,10.64256 -5.48973,16.42891 -0.56374,4.37568 -0.16108,7.12726 -0.0135,7.11383 z"
   fill="#263238"
   id="path4590"
   style="stroke-width:1.34223" />
<path
   d="m 474.31658,414.84487 -98.64062,79.98359 -4.34884,-84.13109 H 342.3215 l -10.12043,115.86145 c -0.44696,4.01462 0.18926,8.07621 1.84154,11.76331 1.65229,3.68577 4.26025,6.86283 7.55409,9.20235 v 0 c 2.93009,2.09523 6.31922,3.46162 9.88419,3.98374 3.56362,0.52348 7.20241,0.18792 10.61168,-0.97714 l 74.52072,-26.69699 z"
   class="change-color-in-svg"
   fill="#4D61FC"
   style="fill:#8c4fdb;stroke-width:1.34223"
   id="path4592" />
<g
   opacity="0.2"
   id="g4596"
   transform="matrix(1.3422317,0,0,1.3422317,-247.92357,-272.64623)">
<path
   opacity="0.2"
   d="m 531.608,522.08 c -25.94,23.77 -48.71,55.7 -56.12,83.22 11.48,-3.76 22.35,-7.41 29.52,-10.4 0,0 -2.15,-11.34 -0.85,-18 1.6,-8.16 5.33,-14 19.88,-40.75"
   fill="#000000"
   id="path4594" />
</g>
<path
   d="m 477.41847,413.23419 67.11159,-8.92584 c 10.5137,-1.40263 21.16968,1.21204 29.8378,7.32321 8.66948,6.11119 14.71355,15.26923 16.92555,25.642 l 24.49573,114.90847 17.44901,136.35732 -29.38145,4.02669 -27.19361,-118.61302 -15.94572,-33.35445 -11.6103,40.61593 4.02669,19.19391 c 0.21475,0.89795 0.24294,1.8308 0.0832,2.73949 -0.15973,0.91004 -0.50334,1.77712 -1.00936,2.54891 -0.52884,0.75701 -1.20398,1.39994 -1.98516,1.8912 -0.78118,0.48992 -1.65363,0.8201 -2.565,0.96774 l -105.37862,16.36181 c -0.9503,0.15033 -1.92208,0.0927 -2.84687,-0.17315 -0.9248,-0.26442 -1.78114,-0.72749 -2.5073,-1.35834 -0.72614,-0.63085 -1.30598,-1.41336 -1.69791,-2.29118 -0.39193,-0.87917 -0.5879,-1.83215 -0.5718,-2.79453 l 5.66422,-69.00413 c 0,0 -27.43521,-41.30047 0,-81.56743 l 32.36121,-51.4209 c 0.51945,-0.82547 1.21204,-1.5288 2.0308,-2.05898 0.81741,-0.53153 1.74221,-0.87782 2.70728,-1.01473 z"
   class="change-color-in-svg"
   fill="#4D61FC"
   style="fill:#8c4fdb;stroke-width:1.34223"
   id="path4598" />
<g
   opacity="0.2"
   id="g4602"
   transform="matrix(1.3422317,0,0,1.3422317,-247.92357,-272.64623)">
<path
   opacity="0.2"
   d="m 593.472,635.84 8.64,-30.26 c -5.35,-18.67 -7.85,-34.69 -12.59,-53.29 -0.42,-1.67 -3.37,-3.65 -4.36,-5 -0.622,-0.937 -1.583,-1.596 -2.68,-1.84 -2.81,-0.49 -4.2,1.83 -5.06,4 -4.45,11 -3.21,23.35 -1.9,35.13 2.107,18.9 4.213,37.803 6.32,56.71 l -0.52,17 11.06,-1.86 c 0,0 5.41,-1.08 4.33,-6.48 z"
   fill="#000000"
   id="path4600" />
</g>
<g
   opacity="0.2"
   id="g4606"
   transform="matrix(1.3422317,0,0,1.3422317,-247.92357,-272.64623)">
<path
   opacity="0.2"
   d="m 464.83,571.4 c 0.21,0.23 -2.27,2.55 -4,6.24 -1.73,3.69 -2,7.07 -2.35,7 -0.35,-0.07 -0.45,-3.57 1.44,-7.47 1.89,-3.9 4.78,-5.98 4.91,-5.77 z"
   fill="#000000"
   id="path4604" />
</g>
<path
   d="m 546.0857,480.34578 c 0.58253,0.53555 1.23754,0.98789 1.94623,1.34223 1.85497,1.17713 3.79182,2.21737 5.79845,3.11398 3.01734,1.41739 6.33265,2.08448 9.66407,1.94623 3.83878,-0.20133 7.69099,-2.08045 11.20764,-4.41594 3.16632,-2.31937 6.49371,-4.40923 9.95936,-6.2548 2.78781,-1.4496 5.96755,-1.97174 9.07348,-1.48988 2.09119,0.33556 4.02804,1.31136 5.54342,2.79184 1.03351,1.07379 1.34223,1.87913 1.48988,1.82544 -0.16376,-0.81339 -0.55032,-1.56638 -1.11406,-2.17441 -1.47645,-1.73417 -3.49785,-2.91668 -5.73133,-3.35559 -3.31666,-0.66037 -6.75679,-0.18791 -9.77145,1.34223 -3.55423,1.80799 -6.95678,3.89919 -10.17411,6.2548 -3.46296,2.29523 -7.06014,4.02671 -10.57679,4.30858 -3.15155,0.17985 -6.30177,-0.36643 -9.20771,-1.59726 -5.06021,-2.1073 -7.99969,-3.93274 -8.10708,-3.63745 z"
   fill="#fafafa"
   id="path4608"
   style="stroke-width:1.34223" />
<path
   d="m 434.72208,477.54052 c 0,0 0.13422,0.36239 0.51005,0.9664 0.55568,0.88319 1.20934,1.7033 1.94623,2.44286 2.75426,2.73815 6.1944,4.68573 9.95936,5.63738 5.55281,1.44826 11.37542,1.52611 16.96581,0.22818 6.30849,-1.34224 12.83174,-4.0267 19.7308,-6.34876 11.72306,-4.30856 24.43668,-5.16089 36.62951,-2.45629 9.39562,2.09389 14.56321,5.1676 14.68402,4.88573 -0.27382,-0.2416 -0.58119,-0.44025 -0.91272,-0.59058 -0.89661,-0.52079 -1.82007,-0.99594 -2.765,-1.42277 -3.44417,-1.61604 -7.04135,-2.88445 -10.73785,-3.78509 -5.51523,-1.37176 -11.19153,-1.9865 -16.87185,-1.82544 -6.96618,0.22416 -13.85183,1.55163 -20.40193,3.93274 -6.95275,2.41602 -13.42232,5.07364 -19.55631,6.41587 -5.43068,1.34358 -11.10429,1.37578 -16.54972,0.094 -3.65758,-0.83621 -7.04135,-2.58648 -9.83856,-5.08706 -1.90597,-1.8657 -2.67104,-3.16767 -2.79184,-3.08713 z"
   fill="#fafafa"
   id="path4610"
   style="stroke-width:1.34223" />
<path
   d="m 413.79802,466.21208 c -0.4483,1.75429 -0.53958,3.57973 -0.26844,5.36893 0.37449,4.34346 1.6147,8.56747 3.64819,12.42504 2.03348,3.85622 4.81726,7.26684 8.1903,10.03049 1.31941,1.22814 2.87102,2.18247 4.56358,2.80527 0.1208,-0.18792 -1.58383,-1.34224 -4.02669,-3.50323 -6.19441,-5.78233 -10.25332,-13.48674 -11.51635,-21.86495 -0.46978,-3.20794 -0.42952,-5.26155 -0.59059,-5.26155 z"
   fill="#fafafa"
   id="path4612"
   style="stroke-width:1.34223" />
<path
   opacity="0.3"
   d="m 428.32232,1085.7997 c 3.4361,-25.2742 7.77151,-50.4276 13.15386,-75.3662 6.95277,-32.21364 18.79126,-95.37912 12.08009,-131.53884 L 543.7811,755.70462 c 13.85183,-20.56298 23.48905,-44.53525 24.28097,-69.29942 0.42951,-13.81157 -6.50983,-32.49543 -13.2881,-46.07882 l -7.19436,-32.81756 -16.40207,3.75825 1.44961,31.91827 c 0,0 12.56328,20.6301 10.41571,51.56853 -1.65094,23.79778 -10.26806,45.12584 -24.16017,64.50767 l -84.923,116.00909 c 0,0 11.83848,52.34703 -2.09388,116.77422 -8.08292,36.78525 -13.83438,74.04285 -17.22084,111.55295 l -0.83218,9.4895 10.73785,-0.255 z"
   fill="#000000"
   id="path4614"
   style="stroke-width:1.34223" />
<g
   opacity="0.3"
   id="g4618"
   transform="matrix(1.3422317,0,0,1.3422317,-247.92357,-272.64623)">
<path
   opacity="0.3"
   d="m 596.16,753.1 c -3.083,7.624 -6.785,14.981 -11.07,22 -2.09,3.54 -4.41,6.94 -6.76,10.31 -1.18,1.7 -2.44,3.32 -3.7,5 l -3.67,4.9 -7.44,9.69 -3.78,4.81 c -1.24,1.62 -2.48,3.24 -3.75,4.85 -5,6.45 -10.12,12.83 -15.49,19 4.28,-7 8.82,-13.8 13.45,-20.53 4.63,-6.73 9.57,-13.28 14.46,-19.85 l 3.73,-4.86 1.86,-2.42 1.84,-2.42 c 2.46,-3.21 4.8,-6.53 7.11,-9.87 4.6,-6.72 9.003,-13.59 13.21,-20.61 z"
   fill="#000000"
   id="path4616" />
</g>
<path
   d="m 512.61179,319.97593 c -10.6439,-3.79852 -15.18065,0.26844 -15.18065,0.26844 l -0.17449,1.15432 c 0,0 9.23456,-2.33548 14.52295,-0.63085 z"
   fill="#21252b"
   id="path4620"
   style="stroke-width:1.34223" />
<path
   d="m 466.14372,319.80144 c 10.54995,-4.0267 15.18064,-0.13423 15.18064,-0.13423 l 0.20134,1.15432 c 0,0 -9.28825,-2.09387 -14.52295,-0.25501 z"
   fill="#21252b"
   id="path4622"
   style="stroke-width:1.34223" />
<path
   d="m 1367.6671,1129.2881 h -190.9728 v 24.2407 h 190.9728 z"
   class="change-color-in-svg"
   fill="#4D61FC"
   style="fill:#8c4fdb;stroke-width:1.34223"
   id="path4624" />
<path
   opacity="0.2"
   d="m 1367.6671,1129.2881 h -190.9728 v 24.2407 h 190.9728 z"
   fill="#ffffff"
   id="path4626"
   style="stroke-width:1.34223" />
<path
   opacity="0.2"
   d="m 1212.6259,1129.2881 h -36.3208 v 24.2407 h 36.3208 z"
   fill="#000000"
   id="path4628"
   style="stroke-width:1.34223" />
<path
   opacity="0.2"
   d="m 1344.9297,1129.2881 h -26.6299 v 24.2407 h 26.6299 z"
   fill="#ffffff"
   id="path4630"
   style="stroke-width:1.34223" />
<path
   d="m 1367.6671,1080.8201 h -190.9728 v 24.2407 h 190.9728 z"
   class="change-color-in-svg"
   fill="#4D61FC"
   style="fill:#8c4fdb;stroke-width:1.34223"
   id="path4632" />
<path
   opacity="0.2"
   d="m 1367.6671,1080.8201 h -190.9728 v 24.2407 h 190.9728 z"
   fill="#ffffff"
   id="path4634"
   style="stroke-width:1.34223" />
<path
   opacity="0.2"
   d="m 1212.6259,1080.8066 h -36.3208 v 24.2407 h 36.3208 z"
   fill="#000000"
   id="path4636"
   style="stroke-width:1.34223" />
<path
   opacity="0.2"
   d="m 1344.9297,1080.8201 h -26.6299 v 24.2407 h 26.6299 z"
   fill="#ffffff"
   id="path4638"
   style="stroke-width:1.34223" />
<path
   d="m 1367.6671,1008.0979 h -190.9728 v 24.2407 h 190.9728 z"
   class="change-color-in-svg"
   fill="#4D61FC"
   style="fill:#8c4fdb;stroke-width:1.34223"
   id="path4640" />
<path
   opacity="0.2"
   d="m 1367.6671,1008.0979 h -190.9728 v 24.2407 h 190.9728 z"
   fill="#ffffff"
   id="path4642"
   style="stroke-width:1.34223" />
<path
   opacity="0.2"
   d="m 1212.6393,1008.0979 h -36.3208 v 24.2407 h 36.3208 z"
   fill="#000000"
   id="path4644"
   style="stroke-width:1.34223" />
<path
   opacity="0.2"
   d="m 1344.9297,1008.0979 h -26.6299 v 24.2407 h 26.6299 z"
   fill="#ffffff"
   id="path4646"
   style="stroke-width:1.34223" />
<path
   d="m 1390.3911,1153.5288 h -190.9728 v 24.2407 h 190.9728 z"
   class="change-color-in-svg"
   fill="#4D61FC"
   style="fill:#8c4fdb;stroke-width:1.34223"
   id="path4648" />
<path
   opacity="0.2"
   d="m 1390.3911,1153.5288 h -190.9728 v 24.2407 h 190.9728 z"
   fill="#ffffff"
   id="path4650"
   style="stroke-width:1.34223" />
<path
   opacity="0.2"
   d="m 1236.7055,1152.1865 h -36.3208 v 24.2408 h 36.3208 z"
   fill="#000000"
   id="path4652"
   style="stroke-width:1.34223" />
<path
   opacity="0.2"
   d="m 1367.6536,1153.5288 h -26.6299 v 24.2407 h 26.6299 z"
   fill="#ffffff"
   id="path4654"
   style="stroke-width:1.34223" />
<path
   d="m 1390.4045,1056.5794 h -190.9728 v 24.2407 h 190.9728 z"
   class="change-color-in-svg"
   fill="#4D61FC"
   style="fill:#8c4fdb;stroke-width:1.34223"
   id="path4656" />
<path
   opacity="0.2"
   d="m 1390.4045,1056.5794 h -190.9728 v 24.2407 h 190.9728 z"
   fill="#ffffff"
   id="path4658"
   style="stroke-width:1.34223" />
<path
   opacity="0.2"
   d="m 1236.7055,1056.5659 h -36.3208 v 24.2407 h 36.3208 z"
   fill="#000000"
   id="path4660"
   style="stroke-width:1.34223" />
<path
   opacity="0.2"
   d="m 1367.6671,1056.5794 h -26.6299 v 24.2407 h 26.6299 z"
   fill="#ffffff"
   id="path4662"
   style="stroke-width:1.34223" />
<path
   d="m 1390.4045,1032.3386 h -190.9728 v 24.2408 h 190.9728 z"
   class="change-color-in-svg"
   fill="#4D61FC"
   style="fill:#8c4fdb;stroke-width:1.34223"
   id="path4664" />
<path
   opacity="0.2"
   d="m 1390.4045,1032.3386 h -190.9728 v 24.2408 h 190.9728 z"
   fill="#ffffff"
   id="path4666"
   style="stroke-width:1.34223" />
<path
   opacity="0.2"
   d="m 1236.7055,1032.3386 h -36.3208 v 24.2408 h 36.3208 z"
   fill="#000000"
   id="path4668"
   style="stroke-width:1.34223" />
<path
   opacity="0.2"
   d="m 1367.6671,1032.3386 h -26.6299 v 24.2408 h 26.6299 z"
   fill="#ffffff"
   id="path4670"
   style="stroke-width:1.34223" />
<path
   d="m 1390.3911,1105.0473 h -190.9728 v 24.2408 h 190.9728 z"
   class="change-color-in-svg"
   fill="#4D61FC"
   style="fill:#8c4fdb;stroke-width:1.34223"
   id="path4672" />
<path
   opacity="0.2"
   d="m 1390.3911,1105.0473 h -190.9728 v 24.2408 h 190.9728 z"
   fill="#ffffff"
   id="path4674"
   style="stroke-width:1.34223" />
<path
   opacity="0.2"
   d="m 1236.7055,1105.0473 h -36.3208 v 24.2408 h 36.3208 z"
   fill="#000000"
   id="path4676"
   style="stroke-width:1.34223" />
<path
   opacity="0.2"
   d="m 1367.6536,1105.0608 h -26.6299 v 24.2407 h 26.6299 z"
   fill="#ffffff"
   id="path4678"
   style="stroke-width:1.34223" />
<g
   opacity="0.3"
   id="g4682"
   transform="matrix(1.3422317,0,0,1.3422317,-247.92357,-272.64623)">
<path
   opacity="0.3"
   d="m 1203.65,1061.97 h -125.34 v 1.14 h 125.34 z"
   fill="#000000"
   id="path4680" />
</g>
<g
   opacity="0.3"
   id="g4686"
   transform="matrix(1.3422317,0,0,1.3422317,-247.92357,-272.64623)">
<path
   opacity="0.3"
   d="m 1203.65,1043.91 h -125.34 v 1.14 h 125.34 z"
   fill="#000000"
   id="path4684" />
</g>
<g
   opacity="0.3"
   id="g4690"
   transform="matrix(1.3422317,0,0,1.3422317,-247.92357,-272.64623)">
<path
   opacity="0.3"
   d="m 1203.65,1025.85 h -125.34 v 1.14 h 125.34 z"
   fill="#000000"
   id="path4688" />
</g>
<g
   opacity="0.3"
   id="g4694"
   transform="matrix(1.3422317,0,0,1.3422317,-247.92357,-272.64623)">
<path
   opacity="0.3"
   d="m 1203.65,1007.79 h -125.34 v 1.14 h 125.34 z"
   fill="#000000"
   id="path4692" />
</g>
<g
   opacity="0.3"
   id="g4698"
   transform="matrix(1.3422317,0,0,1.3422317,-247.92357,-272.64623)">
<path
   opacity="0.3"
   d="m 1220.6,989.74 h -142.28 v 1.14 h 142.28 z"
   fill="#000000"
   id="path4696" />
</g>
<g
   opacity="0.3"
   id="g4702"
   transform="matrix(1.3422317,0,0,1.3422317,-247.92357,-272.64623)">
<path
   opacity="0.3"
   d="m 1220.6,971.68 h -142.28 v 1.14 h 142.28 z"
   fill="#000000"
   id="path4700" />
</g>
<path
   d="m 1467.4754,1177.6755 c 44.1864,-6.6708 74.5878,-47.8908 67.917,-92.0771 -6.6709,-44.1876 -47.9043,-74.5959 -92.0905,-67.9209 -44.1729,6.6749 -74.5879,47.9029 -67.917,92.0811 6.6843,44.1862 47.9043,74.6012 92.0905,67.9169 z"
   class="change-color-in-svg"
   fill="#4D61FC"
   style="fill:#8c4fdb;stroke-width:1.34223"
   id="path4704" />
<path
   opacity="0.1"
   d="m 1467.4754,1177.6755 c 44.1864,-6.6708 74.5878,-47.8908 67.917,-92.0771 -6.6709,-44.1876 -47.9043,-74.5959 -92.0905,-67.9209 -44.1729,6.6749 -74.5879,47.9029 -67.917,92.0811 6.6843,44.1862 47.9043,74.6012 92.0905,67.9169 z"
   fill="#000000"
   id="path4706"
   style="stroke-width:1.34223" />
<path
   d="m 1524.4129,1103.0474 c 4.7381,-44.4345 -27.4486,-84.2922 -71.8764,-89.0261 -44.4414,-4.7328 -84.2922,27.4512 -89.0303,71.8859 -4.7381,44.4278 27.4486,84.292 71.8899,89.0301 44.4279,4.7247 84.2922,-27.462 89.0168,-71.8899 z"
   class="change-color-in-svg"
   fill="#4D61FC"
   style="fill:#8c4fdb;stroke-width:1.34223"
   id="path4708" />
<path
   opacity="0.4"
   d="m 1524.4129,1103.0474 c 4.7381,-44.4345 -27.4486,-84.2922 -71.8764,-89.0261 -44.4414,-4.7328 -84.2922,27.4512 -89.0303,71.8859 -4.7381,44.4278 27.4486,84.292 71.8899,89.0301 44.4279,4.7247 84.2922,-27.462 89.0168,-71.8899 z"
   fill="#ffffff"
   id="path4710"
   style="stroke-width:1.34223" />
<path
   d="m 1466.1869,1155.5823 c 33.6766,-12.268 51.0182,-49.5148 38.7502,-83.1915 -12.268,-33.6779 -49.515,-51.0302 -83.1915,-38.7596 -33.6766,12.2694 -51.0317,49.5109 -38.7502,83.1875 12.2679,33.6766 49.5149,51.0316 83.1915,38.7636 z"
   class="change-color-in-svg"
   fill="#4D61FC"
   style="fill:#8c4fdb;stroke-width:1.34223"
   id="path4712" />
<path
   opacity="0.2"
   d="m 1466.1869,1155.5823 c 33.6766,-12.268 51.0182,-49.5148 38.7502,-83.1915 -12.268,-33.6779 -49.515,-51.0302 -83.1915,-38.7596 -33.6766,12.2694 -51.0317,49.5109 -38.7502,83.1875 12.2679,33.6766 49.5149,51.0316 83.1915,38.7636 z"
   fill="#ffffff"
   id="path4714"
   style="stroke-width:1.34223" />
<path
   opacity="0.2"
   d="m 1385.0893,1082.2965 c 3.087,-11.3552 9.1943,-21.6663 17.6771,-29.8177 8.4963,-8.1526 19.0328,-13.8438 30.509,-16.4638 11.4761,-2.6187 23.4488,-2.0697 34.6296,1.5906 11.1942,3.6602 21.167,10.2922 28.8713,19.1885 -4.9259,-7.0212 -11.1942,-12.9968 -18.4422,-17.5805 -7.2346,-4.5851 -15.3283,-7.687 -23.7844,-9.1272 -8.4426,-1.4402 -17.1,-1.1906 -25.4621,0.7341 -8.3487,1.9249 -16.241,5.4872 -23.2206,10.4816 -6.9662,4.9944 -12.8854,11.3203 -17.3953,18.6141 -4.5099,7.2922 -7.5299,15.4142 -8.8856,23.8702 -1.3557,8.4695 -1.0201,17.1268 0.9933,25.4621 2.0133,8.3353 5.6507,16.1873 10.711,23.1133 -8.4024,-15.2747 -10.6305,-33.1934 -6.2011,-50.0519 z"
   fill="#000000"
   id="path4716"
   style="stroke-width:1.34223" />
<path
   d="m 1428.4434,1136.8582 2.4294,-8.9929 c -10.0265,-3.2213 -14.1605,-8.0534 -10.8452,-20.2812 0.6845,-2.6308 1.5837,-5.2079 2.6844,-7.6909 l 12.8049,3.4629 c -0.4698,1.1409 -0.8724,2.3221 -1.1946,3.5167 -1.4362,5.3689 -1.9059,8.4023 3.2884,9.8116 5.1945,1.4094 6.1475,-0.3086 8.0535,-7.1271 0.8993,-3.3422 1.2214,-4.4965 -0.1879,-6.6039 -2.8456,-4.6173 -11.6506,-9.5969 -15.2746,-14.0531 -3.2885,-3.8657 -3.1408,-8.0534 -0.2417,-18.7913 3.3556,-12.3485 8.1743,-15.5028 20.1335,-12.8854 l 1.9329,-7.1406 7.2749,1.9596 -1.9329,7.1407 c 10.7379,3.4093 13.4224,8.2413 10.5231,19.2073 -0.6308,2.3624 -1.4228,4.671 -2.3757,6.9125 l -12.6841,-3.4361 c 0.4564,-1.2751 0.8456,-2.577 1.1677,-3.8925 1.3423,-4.8454 1.3423,-7.4628 -3.5569,-8.7647 -4.1609,-1.1275 -5.691,0 -7.2481,5.7044 -1.624,5.9998 -1.4361,6.7112 2.0134,9.4762 3.7449,3.114 7.5434,5.5031 10.7379,8.2413 4.4964,3.9461 7.6507,6.0401 4.4294,17.9188 -4.5368,16.7376 -9.2212,21.6502 -22.1603,19.1402 l -2.4697,9.1004 z"
   fill="#f4f4f4"
   id="path4718"
   style="stroke-width:1.34223" />
<path
   d="m 1221.8202,930.54373 c -6.322,-2.41199 -12.0936,-6.04541 -17.0061,-10.69087 -4.9126,-4.64682 -8.8588,-10.21439 -11.6238,-16.38732 -2.7515,-6.17157 -4.2682,-12.8277 -4.4562,-19.58583 -0.1879,-6.75948 0.953,-13.48809 3.369,-19.8033 v 0 c 4.8724,-12.7512 14.6169,-23.04477 27.0863,-28.61503 12.4558,-5.56893 26.6299,-5.96086 39.3811,-1.08855 v 0 c 6.3219,2.41199 12.0935,6.0454 17.0061,10.69087 4.9125,4.64546 8.8586,10.21439 11.6236,16.38596 2.7517,6.17293 4.2683,12.82905 4.4562,19.5872 0.188,6.75813 -0.9529,13.48808 -3.3689,19.80328 v 0 c -4.8723,12.7512 -14.6169,23.04344 -27.0863,28.6137 -12.4559,5.57026 -26.6299,5.96219 -39.381,1.08989 z"
   class="change-color-in-svg"
   fill="#4D61FC"
   style="fill:#8c4fdb;stroke-width:1.34223"
   id="path4720" />
<path
   fill-rule="evenodd"
   clip-rule="evenodd"
   d="m 1267.0131,891.20292 c 2.3221,-6.75814 1.9463,-14.15115 -1.047,-20.63816 -2.9931,-6.487 -8.3889,-11.56735 -15.0329,-14.18068 -6.6441,-2.61466 -14.0532,-2.55964 -20.6704,0.15168 -6.6038,2.71131 -11.919,7.8695 -14.8182,14.39945 -0.1611,0.36241 -0.3222,0.73824 -0.4565,1.11406 -1.7851,4.68171 -2.2549,9.76877 -1.3422,14.69744 l -9.9324,11.99955 16.1067,0.92614 c 3.114,3.64684 7.1139,6.42661 11.6238,8.0695 4.4965,1.64289 9.3554,2.09119 14.08,1.30465 4.7246,-0.7879 9.1674,-2.78648 12.8988,-5.79979 3.7314,-3.0133 6.6172,-6.94068 8.3756,-11.39958 0.067,-0.21475 0.1476,-0.42951 0.2147,-0.64426 z m -34.388,12.36196 c -4.2548,-1.61874 -7.9459,-4.45084 -10.617,-8.14736 l -9.3957,-0.53689 5.7851,-6.99302 c -1.2886,-4.71258 -1.0202,-9.71373 0.7382,-14.26792 0.2685,-0.69797 0.5772,-1.34224 0.9127,-2.05362 2.6174,-5.18505 7.087,-9.20637 12.5096,-11.27475 5.4226,-2.06972 11.4359,-2.03885 16.8316,0.0872 5.4092,2.12609 9.8252,6.19439 12.3888,11.40627 2.5637,5.2119 3.1006,11.19423 1.4765,16.77388 -0.1611,0.5785 -0.349,1.14761 -0.5772,1.70463 -1.1007,2.84688 -2.7516,5.44946 -4.8454,7.65878 -2.1073,2.20931 -4.6308,3.9824 -7.4226,5.21725 -2.7919,1.2362 -5.7985,1.90866 -8.8453,1.98248 -3.0603,0.0724 -6.0938,-0.45636 -8.9393,-1.55699 z"
   fill="#ffffff"
   id="path4722"
   style="stroke-width:1.34223" />
<path
   fill-rule="evenodd"
   clip-rule="evenodd"
   d="m 1250.7721,891.68612 c -0.5235,-0.56373 -3.0603,-3.27504 -3.5569,-3.70456 -0.4966,-0.42951 -0.8859,-0.69796 -1.557,-0.2416 -0.6711,0.45636 -2.4295,1.42276 -2.9529,1.70463 -0.5234,0.28188 -0.9127,0.18791 -1.4362,-0.37582 -1.5839,-1.45363 -2.9127,-3.17035 -3.9193,-5.07363 -0.8993,-1.79993 -1.5167,-3.72202 -1.8523,-5.7045 -0.1342,-0.77848 0.3221,-0.97982 0.765,-1.18115 0.443,-0.20134 0.9128,-0.49663 1.3423,-0.73824 l 0.3356,-0.21475 c 0.2416,-0.18523 0.4831,-0.38656 0.698,-0.60401 0.1476,-0.13958 0.2684,-0.31408 0.322,-0.51004 0.067,-0.19463 0.08,-0.40267 0.04,-0.60401 0,-0.37582 -0.1208,-4.02669 -0.1744,-5.43603 -0.053,-1.40935 -0.6578,-1.4362 -1.0336,-1.58384 -0.3759,-0.14764 -0.7651,-0.3624 -1.1812,-0.52347 -0.3221,-0.11409 -0.671,-0.16241 -1.0067,-0.13825 -0.3489,0.0228 -0.6845,0.11544 -0.9932,0.27248 -0.9664,0.40266 -1.8523,1.00399 -2.5771,1.76368 -0.7248,0.75971 -1.2885,1.66303 -1.6509,2.65226 -0.2685,0.72882 -0.4429,1.49256 -0.4966,2.26837 -0.095,1.76637 0.1075,3.53813 0.6039,5.23471 0.1611,0.53689 1.7181,8.65739 7.1944,13.66392 5.4763,5.00651 5.8253,4.13407 7.0334,4.46963 1.2079,0.33556 4.3353,-0.0806 5.3688,-1.34224 0.7919,-0.77044 1.3155,-1.76369 1.5168,-2.84553 0.04,-0.33555 -0.2551,-0.6577 -0.8322,-1.20801 z"
   fill="#ffffff"
   id="path4724"
   style="stroke-width:1.34223" />
<path
   d="m 147.85763,632.70251 c -11.64655,0 -22.81794,-4.62668 -31.05387,-12.86261 -8.23594,-8.23728 -12.86395,-19.40733 -12.86395,-31.05522 v 0 c 0,-11.65057 4.62935,-22.82465 12.86797,-31.06461 8.23862,-8.23861 19.4127,-12.86663 31.06327,-12.86663 11.64923,0.004 22.82062,4.63338 31.05655,12.872 8.2346,8.23862 12.86127,19.41001 12.86127,31.05924 0,5.76891 -1.13553,11.48011 -3.3435,16.81011 -2.20797,5.32866 -5.4441,10.17143 -9.52448,14.24913 -4.07904,4.07905 -8.92181,7.31383 -14.25181,9.51912 -5.33,2.20662 -11.04254,3.34081 -16.81145,3.33947 z"
   class="change-color-in-svg"
   fill="#4D61FC"
   style="fill:#8c4fdb;stroke-width:1.34223"
   id="path4726" />
<path
   d="m 124.46656,603.48212 c 4.40252,2.83479 9.52984,4.33541 14.76455,4.32199 17.83825,0 27.90499,-15.05984 27.30098,-28.56269 1.88181,-1.35969 3.50591,-3.04687 4.79177,-4.97969 -1.75161,0.78118 -3.6106,1.29257 -5.51657,1.51673 2.01872,-1.21338 3.52201,-3.12337 4.22803,-5.36893 -1.88851,1.11942 -3.95287,1.91 -6.10715,2.33548 -1.44693,-1.5382 -3.36095,-2.55695 -5.44543,-2.89787 -2.08449,-0.34093 -4.22266,0.0135 -6.08568,1.0107 -1.86168,0.99593 -3.34485,2.57708 -4.2173,4.5005 -0.87379,1.92342 -1.08855,4.08038 -0.6134,6.13802 -3.81596,-0.18925 -7.55005,-1.17982 -10.95932,-2.90727 -3.40792,-1.72745 -6.41452,-4.15286 -8.82517,-7.1192 -1.23083,2.11268 -1.60934,4.61594 -1.05902,6.99706 0.55166,2.38246 1.99187,4.46426 4.02535,5.82126 -1.52477,-0.0496 -3.01599,-0.46307 -4.34883,-1.20801 -0.0282,2.23884 0.72615,4.41862 2.13281,6.16084 1.40666,1.74221 3.37705,2.93814 5.5716,3.38243 -1.41337,0.38387 -2.89654,0.44025 -4.33541,0.16106 0.60803,1.91403 1.79859,3.59048 3.40659,4.79446 1.60799,1.20398 3.55154,1.87375 5.55952,1.91671 -1.99724,1.57175 -4.28709,2.73412 -6.73532,3.41731 -2.44823,0.68454 -5.00787,0.87782 -7.5326,0.56911 z"
   fill="#ffffff"
   id="path4728"
   style="stroke-width:1.34223" />
<path
   d="m 260.21718,1044.4725 c -15.888,3.7836 -32.62831,1.1005 -46.53785,-7.4575 -13.90956,-8.5581 -23.85012,-22.2918 -27.63387,-38.17851 v 0 c -3.78375,-15.88796 -1.10198,-32.62692 7.4561,-46.53647 8.55941,-13.90955 22.29178,-23.85017 38.17978,-27.63526 v 0 c 15.88665,-3.78376 32.62697,-1.10063 46.53651,7.45743 13.90955,8.55813 23.85012,22.29185 27.63521,38.1785 v 0 c 3.78241,15.88795 1.10063,32.62691 -7.45743,46.53651 -8.55808,13.9096 -22.2918,23.8501 -38.17845,27.6353 z"
   fill="#868a91"
   id="path4730"
   style="stroke-width:1.34223" />
<path
   d="m 239.53474,957.64344 c 8.77819,-2.09387 9.82514,-2.30863 13.31493,-2.96633 2.0912,-0.47247 4.24682,-0.58118 6.3756,-0.32214 1.54626,0.20805 3.03344,0.73958 4.36226,1.55699 1.32881,0.81877 2.47239,1.90732 3.35558,3.19452 1.19055,1.77711 2.06301,3.74885 2.57708,5.82528 0.97983,3.42269 1.2617,4.45621 3.35559,13.22098 2.09387,8.76473 2.30864,9.82518 2.96633,13.32837 0.47112,2.08582 0.58118,4.23877 0.32213,6.36216 -0.20939,1.54631 -0.73957,3.03343 -1.55833,4.36223 -0.81742,1.3302 -1.90597,2.4724 -3.19317,3.3556 -1.7798,1.1906 -3.75019,2.067 -5.82529,2.5905 -3.42269,0.9798 -4.4562,1.2617 -13.22098,3.3422 -8.76478,2.0805 -9.82514,2.3086 -13.31494,2.9797 -2.09254,0.4631 -4.24817,0.5665 -6.37559,0.3087 -1.55431,-0.1798 -3.04553,-0.7127 -4.36227,-1.5569 -1.34088,-0.8 -2.4858,-1.8859 -3.35557,-3.1811 -1.18787,-1.7839 -2.05898,-3.7596 -2.57708,-5.8388 -0.99326,-3.4227 -1.27513,-4.45618 -3.35558,-13.22089 -2.08046,-8.7648 -2.30864,-9.81174 -2.96634,-13.31497 -0.47246,-2.0912 -0.58118,-4.24816 -0.32213,-6.3756 0.17986,-1.5543 0.71272,-3.04552 1.55699,-4.36225 0.80667,-1.35431 1.9073,-2.50998 3.22136,-3.38243 1.78382,-1.18787 3.75824,-2.05898 5.8387,-2.57708 3.42269,-0.97983 4.4562,-1.2617 13.22098,-3.35558 z m -1.36909,-5.94608 c -8.91241,2.12073 -10.02646,2.42944 -13.48942,3.42268 -2.71131,0.70468 -5.28436,1.86168 -7.61046,3.4227 -1.97844,1.36639 -3.65087,3.12874 -4.90987,5.17564 -1.25902,2.04825 -2.07913,4.33541 -2.40529,6.71653 -0.35569,2.78245 -0.23354,5.60651 0.36241,8.34868 0.68454,3.53007 0.91271,4.65754 3.03344,13.58342 2.12073,8.92579 2.42944,10.02639 3.42269,13.42229 0.70467,2.7113 1.86167,5.2844 3.42269,7.6104 1.36505,1.9785 3.12874,3.6495 5.17564,4.9085 2.04691,1.2605 4.33541,2.0792 6.71653,2.4067 2.77842,0.3543 5.59711,0.2322 8.33527,-0.3624 3.54348,-0.6846 4.67096,-0.9127 13.5968,-3.0335 8.92584,-2.1206 10.02647,-2.4293 13.48943,-3.4227 2.69386,-0.6925 5.25215,-1.8307 7.57019,-3.3689 1.97711,-1.3664 3.64952,-3.1288 4.90854,-5.1757 1.26035,-2.0482 2.07911,-4.3353 2.40662,-6.71648 0.35435,-2.77848 0.23221,-5.59846 -0.36241,-8.33523 -0.68453,-3.54349 -0.91271,-4.67107 -3.03344,-13.59685 -2.12072,-8.92585 -2.42944,-10.02648 -3.42268,-13.48944 -0.70468,-2.7113 -1.86302,-5.28436 -3.4227,-7.61045 -1.36639,-1.97845 -3.12874,-3.64953 -5.17699,-4.90988 -2.0469,-1.25902 -4.33406,-2.07778 -6.71518,-2.40528 -2.77977,-0.35704 -5.5998,-0.22952 -8.33526,0.37583 -3.54349,0.67111 -4.67096,0.89929 -13.59681,3.02002"
   fill="#ffffff"
   id="path4732"
   style="stroke-width:1.34223" />
<path
   d="m 241.98967,967.71019 c -3.33812,0.79191 -6.3662,2.55694 -8.70168,5.07094 -2.33414,2.51266 -3.87099,5.66288 -4.41595,9.05068 -0.54359,3.38783 -0.0711,6.86018 1.35834,9.97809 1.42949,3.11944 3.75289,5.74347 6.67492,7.5421 2.92205,1.7985 6.31117,2.6897 9.73923,2.5609 3.42941,-0.1288 6.74204,-1.2724 9.52046,-3.28442 2.77976,-2.01195 4.89914,-4.80379 6.09104,-8.0198 1.1919,-3.2173 1.40264,-6.71655 0.60535,-10.05335 -0.52615,-2.21467 -1.4845,-4.30184 -2.81868,-6.14607 -1.33419,-1.84422 -3.01869,-3.40658 -4.95687,-4.59983 -1.93818,-1.19324 -4.09112,-1.99187 -6.33936,-2.35159 -2.24689,-0.36106 -4.54211,-0.27515 -6.7568,0.25235 z m 6.61721,27.81102 c -2.16637,0.5154 -4.43876,0.37713 -6.52593,-0.39733 -2.08851,-0.77576 -3.90052,-2.15294 -5.20652,-3.95689 -1.30465,-1.80526 -2.0469,-3.9569 -2.12878,-6.18229 -0.0832,-2.22676 0.49662,-4.42667 1.66437,-6.32325 1.16774,-1.89792 2.87237,-3.40524 4.89781,-4.33272 2.02542,-0.92882 4.28037,-1.23486 6.47894,-0.88185 2.19993,0.35435 4.24414,1.35297 5.8763,2.86835 1.63215,1.51672 2.77842,3.48175 3.29249,5.64945 0.68991,2.90456 0.19731,5.96491 -1.36773,8.50703 -1.56505,2.54224 -4.07636,4.35825 -6.98095,5.0495 z"
   fill="#ffffff"
   id="path4734"
   style="stroke-width:1.34223" />
<path
   d="m 263.25331,961.92516 c 0.17852,0.77312 0.12484,1.58249 -0.1557,2.32475 -0.28053,0.7436 -0.77446,1.38653 -1.41874,1.84959 -0.64561,0.46307 -1.41203,0.72481 -2.20529,0.753 -0.79325,0.0281 -1.57845,-0.17852 -2.2536,-0.59461 -0.67649,-0.4161 -1.21472,-1.02278 -1.54625,-1.74357 -0.33287,-0.72077 -0.44428,-1.52343 -0.32214,-2.30864 0.12215,-0.78386 0.47515,-1.51403 1.0107,-2.09924 0.5369,-0.58522 1.23486,-0.99862 2.0053,-1.18788 0.51944,-0.12751 1.05768,-0.15033 1.58518,-0.0684 0.52749,0.0832 1.03351,0.26979 1.48718,0.54897 0.45502,0.28053 0.84965,0.64696 1.16104,1.0805 0.3114,0.43355 0.53286,0.9248 0.65232,1.44559"
   fill="#ffffff"
   id="path4736"
   style="stroke-width:1.34223" />
<path
   d="m 1414.3633,456.91041 6.1877,-1.23485 9.7849,-21.47571 -2.4563,-12.36196 c 0,0 9.3956,-2.48312 11.5432,13.91895 2.1476,16.40207 2.4831,12.08009 2.4831,12.08009 0,0 15.6236,-5.36894 22.3617,-2.5234 7.2614,3.0066 6.04,21.1133 8.4291,32.01222 1.1946,5.48973 -1.1677,11.28818 -6.0266,13.61023 -0.6845,0.32348 -1.396,0.56643 -2.1341,0.72481 -5.0737,1.00667 -31.7841,2.01335 -31.7841,2.01335 l -10.7378,2.12072 z"
   fill="#dadddf"
   id="path4738"
   style="stroke-width:1.34223" />
<path
   d="m 1399.827,459.59487 8.3487,39.0321 10.5901,-2.1073 -8.2144,-38.92472 z"
   fill="#dadddf"
   id="path4740"
   style="stroke-width:1.34223" />
<path
   d="m 1423.3563,713.50486 c -12.4559,0 -24.4152,-4.95015 -33.2202,-13.75922 -8.805,-8.81041 -13.758,-20.75896 -13.758,-33.21889 v 0 c 0,-12.45994 4.953,-24.40849 13.758,-33.2189 8.805,-8.81041 20.7643,-13.75921 33.2202,-13.75921 v 0 c 12.4559,0 24.4018,4.9488 33.2203,13.75921 8.805,8.81041 13.7578,20.75896 13.7578,33.2189 v 0 c 0,12.45993 -4.9528,24.40848 -13.7578,33.21889 -8.8185,8.80907 -20.7644,13.75922 -33.2203,13.75922 z"
   fill="#868a91"
   id="path4742"
   style="stroke-width:1.34223" />
<path
   d="m 1416.1887,694.90152 h 11.4493 v -28.65665 h 8.0534 l 0.8456,-9.59695 h -8.8319 v -5.46288 c 0,-2.26837 0.4564,-3.16768 2.6845,-3.16768 h 6.1876 v -9.95935 h -8.0533 c -8.5232,0 -12.362,3.75824 -12.362,10.93919 v 7.65072 h -5.946 v 9.71776 h 5.946 z"
   fill="#ffffff"
   id="path4744"
   style="stroke-width:1.34223" />
<path
   d="m 1011.5059,35.395959 3.114,5.677631 5.6763,3.113985 -5.6763,3.10055 -3.114,5.677641 -3.1005,-5.677641 -5.6777,-3.10055 5.6777,-3.113985 z"
   class="change-color-in-svg"
   fill="#4D61FC"
   style="fill:#8c4fdb;stroke-width:1.34223"
   id="path4746" />
<path
   d="m 1332.3395,316.37875 3.1005,5.67764 5.6777,3.11398 -5.6777,3.10055 -3.1005,5.69106 -3.1139,-5.69106 -5.6776,-3.10055 5.6776,-3.11398 z"
   class="change-color-in-svg"
   fill="#4D61FC"
   style="fill:#8c4fdb;stroke-width:1.34223"
   id="path4748" />
<path
   d="m 1287.321,547.83319 3.1007,5.67764 5.6776,3.11398 -5.6776,3.10056 -3.1007,5.67764 -3.1139,-5.67764 -5.6776,-3.10056 5.6776,-3.11398 z"
   class="change-color-in-svg"
   fill="#4D61FC"
   style="fill:#8c4fdb;stroke-width:1.34223"
   id="path4750" />
<path
   d="m 1043.0215,110.62804 3.114,5.67765 5.6776,3.11397 -5.6776,3.10056 -3.114,5.67763 -3.1005,-5.67763 -5.6777,-3.10056 5.6777,-3.11397 z"
   class="change-color-in-svg"
   fill="#4D61FC"
   style="fill:#8c4fdb;stroke-width:1.34223"
   id="path4752" />
<path
   d="m 360.30606,76.011889 3.98643,7.301739 7.30174,3.986427 -7.30174,3.986428 -3.98643,7.301739 -3.99985,-7.301739 -7.28831,-3.986428 7.28831,-3.986427 z"
   fill="#dadddf"
   id="path4754"
   style="stroke-width:1.34223" />
<path
   d="m 291.23884,691.98888 3.10056,5.69107 5.69106,3.10055 -5.69106,3.10056 -3.10056,5.69105 -3.10055,-5.69105 -5.69106,-3.10056 5.69106,-3.10055 z"
   class="change-color-in-svg"
   fill="#4D61FC"
   style="fill:#8c4fdb;stroke-width:1.34223"
   id="path4756" />
<path
   d="m 522.67852,992.90392 3.10056,5.67764 5.67764,3.10054 -5.67764,3.1139 -3.10056,5.6776 -3.11398,-5.6776 -5.67764,-3.1139 5.67764,-3.10054 z"
   class="change-color-in-svg"
   fill="#4D61FC"
   style="fill:#8c4fdb;stroke-width:1.34223"
   id="path4758" />
<path
   d="m 954.56978,62.683525 7.18093,13.113602 13.11361,7.167518 -13.11361,7.180944 -7.18093,13.113601 -7.16752,-13.113601 -13.11361,-7.180944 13.11361,-7.167518 z"
   class="change-color-in-svg"
   fill="#4D61FC"
   style="fill:#8c4fdb;stroke-width:1.34223"
   id="path4760" />
<path
   d="m 306.80739,24.067517 9.54326,17.462437 17.47587,9.556687 -17.47587,9.556687 -9.54326,17.462437 -9.55669,-17.462437 -17.46243,-9.556687 17.46243,-9.556687 z"
   fill="#dadddf"
   id="path4762"
   style="stroke-width:1.34223" />
<path
   d="m 1240.0074,591.18727 7.1675,13.11361 13.1271,7.16752 -13.1271,7.18094 -7.1675,13.11361 -7.1809,-13.11361 -13.1136,-7.18094 13.1269,-7.16752 z"
   class="change-color-in-svg"
   fill="#4D61FC"
   style="fill:#8c4fdb;stroke-width:1.34223"
   id="path4764" />
<path
   d="m 349.46084,602.74389 7.15409,13.08676 13.08676,7.1541 -13.08676,7.15409 -7.15409,13.08676 -7.15411,-13.08676 -13.08675,-7.15409 13.08675,-7.1541 z"
   class="change-color-in-svg"
   fill="#4D61FC"
   style="fill:#8c4fdb;stroke-width:1.34223"
   id="path4766" />
<path
   d="m 1400.1223,867.45884 7.154,13.08675 13.0868,7.15411 -13.0868,7.16751 -7.154,13.08676 -7.1541,-13.10018 -13.0868,-7.15409 13.0868,-7.15411 z"
   class="change-color-in-svg"
   fill="#4D61FC"
   style="fill:#8c4fdb;stroke-width:1.34223"
   id="path4768" />
</svg>
