<svg id="SvgjsSvg1018" width="288" height="288" xmlns="http://www.w3.org/2000/svg" version="1.1" xmlns:xlink="http://www.w3.org/1999/xlink" xmlns:svgjs="http://svgjs.com/svgjs"><defs id="SvgjsDefs1019"></defs><g id="SvgjsG1020"><svg xmlns="http://www.w3.org/2000/svg" viewBox="0 0 85.79 85.79" width="288" height="288"><g data-name="Layer 2" fill="#000000" class="color000 svgShape"><g data-name="Layer 1" fill="#000000" class="color000 svgShape"><path fill="#fad657" d="M85.79,42.89c0,23.69-19.2,42.89-42.89,42.89S0,66.58,0,42.89,19.2,0,42.89,0s42.89,19.21,42.89,42.89" class="color004d98 svgShape"></path><path fill="#f5e4bd" d="M45.43,57.6l-.87-1.27c-.64-.93-1.49-1.85-1.83-1.99-.34,.14-1.21,1.05-1.85,1.99l-.87,1.26-.4-1.48c-.42-1.55-.73-3-.95-4.36h-2.09v-2.73h-1.04l-6.21,6.84-.18-1.55c-.46-3.85-.42-7.36,.12-10.44,.44-2.49,1.2-4.7,2.26-6.58,1.4-2.48,2.98-3.73,3.69-4.21v-10.34c0-.68,.09-1.34,.26-1.98h-.03l.16-.41c.07-.22,.15-.43,.25-.64v-.02c.17-.42,.88-2.16,1.93-3.93,1.66-2.83,3.31-4.26,4.89-4.26,1.58,0,3.23,1.43,4.89,4.26,1.06,1.8,1.78,3.57,1.93,3.94,.01,.03,.02,.05,.02,.06h0v.02c.09,.19,.16,.38,.23,.59l.15,.38h-.03c.18,.64,.27,1.3,.27,1.98v9.43c.71,.48,2.28,1.73,3.69,4.2,1.07,1.88,1.83,4.1,2.27,6.59,.54,3.08,.58,6.59,.12,10.44l-.18,1.56-5.89-6.49v.55h-1.06v2.73h-2.26c-.22,1.36-.53,2.81-.95,4.36l-.4,1.49Z" class="color7dcdeb svgShape"></path><path fill="#ffffff" d="M50.1,46.35V22.74c0-.68-.09-1.34-.26-1.98-.03-.13-.07-.26-.11-.38-.07-.2-.14-.4-.23-.59h0v-.02s-.02-.03-.03-.06c-.37-.83-.89-1.59-1.55-2.25-.55-.55-1.16-1-1.83-1.35-1.05-.55-2.22-.84-3.44-.84s-2.39,.29-3.44,.84c-.67,.35-1.29,.8-1.84,1.35-.65,.65-1.17,1.41-1.54,2.24v.02c-.1,.21-.18,.42-.25,.63-.05,.13-.09,.27-.12,.41-.17,.64-.27,1.3-.27,1.98v26.28h14.91v-2.68Zm-2.88,1.25h-10.6V22.74c0-.68,.11-1.35,.33-1.98,.17-.5,.41-.98,.72-1.43,.21-.3,.44-.59,.71-.86,1.14-1.14,2.65-1.77,4.26-1.77,1.61,0,3.12,.63,4.26,1.77,.27,.27,.51,.56,.71,.86,.31,.44,.55,.92,.72,1.43,.22,.63,.33,1.29,.33,1.98v24.85h-1.45Z" class="colorfff svgShape"></path><path fill="#ffffff" d="M49.72 20.38l-.23-.59h0l-.02-.07c-.15-.38-.87-2.15-1.93-3.94-1.67-2.83-3.31-4.26-4.89-4.26-1.58 0-3.23 1.43-4.89 4.26-1.04 1.77-1.76 3.51-1.92 3.93 0 0 0 .01 0 .02-.02.04-.02.06-.03.07l-.22.56-.16.4h14.44l-.15-.38zm-12.05-1.05h-.14c.46-1.03 1.04-2.18 1.68-3.22 1.09-1.75 2.34-3.18 3.44-3.17.56 0 1.16.37 1.77.98.57.57 1.14 1.35 1.67 2.2.64 1.03 1.22 2.18 1.68 3.21h-10.09zM45.37 24.08c0-.69-.27-1.33-.75-1.82-.49-.49-1.13-.75-1.82-.75-1.42 0-2.57 1.15-2.57 2.57 0 .71.29 1.35.75 1.81.47.47 1.11.76 1.82.76.71 0 1.35-.29 1.82-.76.47-.47.75-1.11.76-1.82m-2.57 1.14c-.63 0-1.14-.51-1.15-1.14 0-.63.51-1.14 1.14-1.14.31 0 .59.12.81.33.22.21.34.5.34.81 0 .63-.51 1.14-1.14 1.14M45.37 29.74c0-1.42-1.15-2.57-2.57-2.57-1.42 0-2.57 1.15-2.57 2.57 0 .71.29 1.35.75 1.81.47.47 1.11.76 1.82.76.71 0 1.35-.29 1.82-.76.47-.47.75-1.11.76-1.82m-2.57 1.14c-.63 0-1.14-.51-1.14-1.14s.51-1.14 1.14-1.14c.31 0 .6.13.81.34.21.21.34.49.34.81 0 .63-.51 1.14-1.14 1.14M49.04 49.02v-1.43h-12.49v4.16h12.49v-2.73zm-11.06 1.3v-1.3h9.63v1.3h-9.63zM56.17 53.4c.46-3.85.42-7.36-.12-10.44-.44-2.49-1.2-4.71-2.26-6.59-1.4-2.48-2.98-3.73-3.69-4.2-.23-.15-.37-.23-.39-.24l-1.04-.54v15.5l1.43 1.57 5.89 6.49.18-1.56zm-6.08-7.06v-12.36c.69.62 1.64 1.64 2.5 3.2 1.43 2.57 2.93 7.11 2.31 14.47l-4.82-5.31z" class="colorfff svgShape"></path><path fill="#ffffff" d="M35.51 49.02l1.04-1.14.07-.07v-15.5l-1.04.54s-.16.09-.38.24c-.71.48-2.28 1.73-3.69 4.21-1.06 1.88-1.83 4.1-2.26 6.58-.54 3.08-.58 6.59-.12 10.44l.18 1.55 6.21-6.84zm-2.83-10.93c.87-1.56 1.81-2.58 2.5-3.2v12.36l-4.81 5.31c-.62-7.36.88-11.9 2.31-14.47M45.83 56.11c.42-1.55.73-3 .95-4.36.08-.49.15-.97.21-1.43.05-.44.1-.88.13-1.3.04-.49.07-.97.09-1.43.15-3.63-.38-6.38-1.01-8.29-1.15-3.54-2.86-5.12-2.94-5.18l-.47-.43-.48.42c-.07.06-1.83 1.64-3.02 5.18-.65 1.91-1.2 4.66-1.07 8.3.01.46.04.94.08 1.43.03.42.08.85.13 1.3.05.46.12.94.2 1.43.22 1.36.53 2.82.95 4.36l.4 1.48.87-1.26c.65-.94 1.51-1.85 1.85-1.99.34.14 1.19 1.05 1.83 1.99l.87 1.27.4-1.49zm-3.1-3.21c-.68 0-1.46.68-2.11 1.42-.21-.9-.38-1.76-.52-2.58-.08-.49-.15-.96-.21-1.43-.06-.44-.1-.88-.14-1.3-.04-.49-.07-.97-.09-1.43-.13-3.4.37-5.95.96-7.73.7-2.12 1.62-3.46 2.17-4.15 1.02 1.29 3.3 4.98 3 11.88-.02.46-.05.94-.1 1.43-.04.42-.08.85-.14 1.3-.06.46-.13.94-.21 1.43-.14.82-.32 1.68-.53 2.57-.64-.74-1.41-1.41-2.08-1.42" class="colorfff svgShape"></path><polygon fill="#ffffff" points="33.42 61.3 31.99 61.3 31.99 53.32 33.42 53.32 33.42 61.3" class="colorfff svgShape"></polygon><rect width="6.29" height="1.43" x="32.12" y="55.03" fill="#ffffff" transform="rotate(-89.92 35.259 55.75)" class="colorfff svgShape"></rect><rect width="1.43" height="7.99" x="51.22" y="54.03" fill="#ffffff" transform="rotate(-.08 50.094 57.33)" class="colorfff svgShape"></rect><rect width="1.43" height="6.29" x="48.67" y="53.32" fill="#ffffff" class="colorfff svgShape"></rect><path fill="#ffffff" d="M41.26,69.73l.04-7.48c0-.38-.32-.7-.7-.7s-.7,.31-.7,.7v7.38c-1.18-.82-2.76-1-4.15-.32-.14,.07-.28,.15-.41,.24-.78-1.7-2.49-2.88-4.48-2.88-.76,0-1.51,.18-2.2,.52-1.03-.93-2.38-1.46-3.83-1.46-3.18,0-5.76,2.58-5.76,5.76s2.58,5.76,5.76,5.76H60.75c3.17,0,5.76-2.58,5.76-5.76s-2.58-5.76-5.76-5.76c-1.45,0-2.8,.54-3.84,1.46-.68-.34-1.43-.52-2.19-.52-1.99,0-3.7,1.18-4.48,2.88-.13-.08-.27-.17-.41-.24-1.38-.68-2.96-.5-4.14,.32v-7.38c0-.38-.31-.7-.7-.7s-.7,.31-.7,.7v7.51l-3.03-.03Z" class="colorfff svgShape"></path></g></g></svg></g></svg>